<svg xmlns="http://www.w3.org/2000/svg" width="20" height="20" viewBox="0 0 20 20"><path d="M17 5.95V16.3c0 .523-.452.772-1 1.16-.44.314-1-.074-1-.586V6.76c0-.21-.074-.412-.314-.535S6.948 2.16 6.948 2.16c-.12-.045-.65-.378-1.353-.016-.67.344-1.033.718-1.126.894l8.18 4.482c.216.114.35.29.35.516v10.802c0 .23-.142.476-.37.585-.103.052-.218.077-.332.077-.135 0-.27-.033-.386-.104-.215-.13-7.774-4.766-8.273-5.067-.24-.145-.522-.44-.528-.66L3 3.386c0-.198-.023-.547.29-1.032C3.985 1.27 6.417.036 7.65.675l8.998 4.555c.217.112.352.336.352.72z"/></svg>