<svg xmlns="http://www.w3.org/2000/svg" width="496.64" height="496.64" viewBox="0 0 496.64 496.64">
  <defs>
    <clipPath id="a" transform="translate(-1.6 -1.48)">
      <path d="M298 314h20v5h-6v21h-7v-21h-7v-5zm-30.74 0h8.46l10 26h-7.5l-1.87-6h-10.17l-2 6h-6.94zm4.09 5.14l-3.4 9.86h6.7zM226.23 314h8.46l10 26h-7.5l-1.87-6h-10.16l-2 6h-6.94zm4.09 5.14l-3.4 9.86h6.7zm-30.42-5.08l-.52 5.43a18.29 18.29 0 0 0-3.09-1 12.76 12.76 0 0 0-2.87-.34 6.81 6.81 0 0 0-3.32.68 2.06 2.06 0 0 0-1.19 1.86 2 2 0 0 0 .61 1.45 4.55 4.55 0 0 0 1.83 1l1.16.37a23.15 23.15 0 0 1 6 2.58 6.66 6.66 0 0 1 2 2.45 7.47 7.47 0 0 1 .65 3.23 8 8 0 0 1-2.89 6.63q-2.88 2.28-8.36 2.29a29 29 0 0 1-7.91-1.11l.59-5.86a21.28 21.28 0 0 0 3.59 1.27 13.7 13.7 0 0 0 3.3.44 6 6 0 0 0 3.27-.78 2.39 2.39 0 0 0 1.2-2.11q0-1.65-3.84-3c-.62-.21-1.09-.37-1.42-.5a13.19 13.19 0 0 1-5.37-3.13 6.57 6.57 0 0 1-1.61-4.57 7.16 7.16 0 0 1 2.83-6.09q2.83-2.13 8.12-2.13a28.65 28.65 0 0 1 3.74.23 22.56 22.56 0 0 1 3.5.71z" fill="#af1f24" clip-rule="evenodd"/>
    </clipPath>
    <clipPath id="b" transform="translate(-1.6 -1.48)">
      <path d="M246.2 255.59h.1zm-1.37-.3h.19zm-4.46-1.56l.32.15zm-.39-.18l.31.15zm-36.56-59.25c-4.07 4.05-6.73 8.87-6.62 14.6.34 19 50.5 23.08 42.77 44.45 18.47-14 4.6-26.75-12.11-37.69-9.83-6.44-18.88-14.72-23.53-21.55z" fill="#af1f24" clip-rule="evenodd"/>
    </clipPath>
    <clipPath id="c" transform="translate(-1.6 -1.48)">
      <path d="M261.16 141.87c-20.75 4.77-52.85 14.44-57.17 37.32-3.39 17.93 27 31.86 41.35 46.52 8.56 8.76 10.35 18.41-2 27.9 25.7 6.22 61.71-14.65 41.18-44-10.77-15.4-35.8-23.52-39.75-37.08-5.1-17.55 13.14-25 16.4-30.64" fill="#af1f24" clip-rule="evenodd"/>
    </clipPath>
  </defs>
  <path d="M465.84 230.9a7.15 7.15 0 0 1 2.81 2.31 6.49 6.49 0 0 1 1.17 3.3 5.6 5.6 0 0 1-1.54 4.69 8.46 8.46 0 0 1-5.38 2l-9.84.75-.43-5.69 8.64-.66a5.12 5.12 0 0 0 2.84-.86 2.28 2.28 0 0 0 .77-2.07 2.58 2.58 0 0 0-1.35-2.13 5.49 5.49 0 0 0-3.26-.59l-8.08.62-.44-5.72 8.64-.66a5.18 5.18 0 0 0 2.84-.86 2.3 2.3 0 0 0 .77-2.09 2.62 2.62 0 0 0-1.36-2.14 5.45 5.45 0 0 0-3.24-.58l-8.08.62-.43-5.69 16.81-1.28.39 5.17-3 .23a6.8 6.8 0 0 1 2.73 2.28 6.5 6.5 0 0 1 1.14 3.27 6.15 6.15 0 0 1-.65 3.43 5.69 5.69 0 0 1-2.46 2.37m-3.8-40.8l1.3 5.62-8.27 1.91a5.05 5.05 0 0 0-2.72 1.35 2.48 2.48 0 0 0-.47 2.31 2.74 2.74 0 0 0 1.85 2.11 7.3 7.3 0 0 0 4-.05l7-1.62 1.3 5.62-16.42 3.79-1.22-5.12 3.08-.71a6.91 6.91 0 0 1-3.08-1.91 7.08 7.08 0 0 1-1.66-3.26 5.88 5.88 0 0 1 .79-5 8.28 8.28 0 0 1 5-2.83zm2.87-10.14l-5.43 1.85 1.33 3.91-3.94 1.34-1.33-3.91-5.5 1.87a4.36 4.36 0 0 0-2.3 1.42 2.54 2.54 0 0 0-.05 2.22 3.05 3.05 0 0 0 .22.48c.1.19.27.46.49.8l-3.53 1.31q-.49-.81-.88-1.61a14.18 14.18 0 0 1-.65-1.58q-1.1-3.25 0-5.24t4.71-3.22l5.65-1.92-1-3.07 3.94-1.34 1.15 3.38 3.69-1.25zm-9.87-9.56l-4 1a10.84 10.84 0 0 0 .08-2.53 8 8 0 0 0-.5-2.22 3 3 0 0 0-.95-1.38 1.21 1.21 0 0 0-1.2-.14c-.55.22-.75 1.13-.57 2.75l.12 1.21a8.34 8.34 0 0 1-.45 4.2 4.46 4.46 0 0 1-2.54 2.15 5 5 0 0 1-4.68-.4 9.47 9.47 0 0 1-3.53-4.77 19.73 19.73 0 0 1-.9-2.94 18.64 18.64 0 0 1-.42-3l4.15-1.24a11.69 11.69 0 0 0 0 2.7 10.91 10.91 0 0 0 .67 2.59 4.16 4.16 0 0 0 1 1.65 1.11 1.11 0 0 0 1.2.22q1-.38.72-3.07c0-.44-.07-.8-.09-1.05a9.25 9.25 0 0 1 .45-4.13 3.83 3.83 0 0 1 2.22-2 4.74 4.74 0 0 1 4.59.43 10.05 10.05 0 0 1 3.51 4.92 15 15 0 0 1 .72 2.43 18.8 18.8 0 0 1 .4 2.6zm-2.48-25.73l2.63 5.14-4.18 2.13-2.62-5.15zm-6.89 3.52l2.63 5.14-15 7.67-2.63-5.14zm-1.08-3l-4.47 2.22a3.6 3.6 0 0 0-.2-.79 6 6 0 0 0-.44-.91 3.73 3.73 0 0 0-2.71-2 6.21 6.21 0 0 0-3.91 1l-6.23 3.59-2.88-5 14.6-8.41 2.57 4.46-2.78 1.6a6.85 6.85 0 0 1 3.48.48 5.05 5.05 0 0 1 2.27 2.15 12.94 12.94 0 0 1 .66 1.5zM431.65 111l3.35 4.7-8.2 5.82a5.8 5.8 0 0 1 3 .68 7.19 7.19 0 0 1 2.47 2.24 5.85 5.85 0 0 1 1.19 4.94 8.36 8.36 0 0 1-3.58 4.53l-8 5.72-3.33-4.68 7.06-5a5.05 5.05 0 0 0 2-2.29 2.48 2.48 0 0 0-.46-2.31 2.84 2.84 0 0 0-2.39-1.25 5.34 5.34 0 0 0-3.19 1.16l-6.6 4.7-3.35-4.7zm-5.44-3.14l-3.94 2.66a10.67 10.67 0 0 0-.87-2.75 10.4 10.4 0 0 0-1.55-2.36 7.4 7.4 0 0 0-5.05-2.81 8 8 0 0 0-8.05 7 7.55 7.55 0 0 0 2.08 5.45 12.06 12.06 0 0 0 2 1.86 14.8 14.8 0 0 0 2.59 1.49l-3.62 3.62a24.64 24.64 0 0 1-5-4.38q-4.05-4.69-3.91-9.38t4.51-8.34a11.22 11.22 0 0 1 8.75-3.06q4.64.49 8.46 4.91a21.22 21.22 0 0 1 2.19 3 15.21 15.21 0 0 1 1.41 3.08zM386.4 79.45a7.16 7.16 0 0 1 3.6-.51 6.49 6.49 0 0 1 3.22 1.37 5.61 5.61 0 0 1 2.42 4.31 8.45 8.45 0 0 1-2.17 5.31l-6.07 7.76-4.49-3.52 5.35-6.82a5.13 5.13 0 0 0 1.28-2.68 2.28 2.28 0 0 0-1-2 2.58 2.58 0 0 0-2.48-.44 5.5 5.5 0 0 0-2.63 2l-5 6.38-4.51-3.54 5.35-6.82a5.17 5.17 0 0 0 1.28-2.67 2.3 2.3 0 0 0-1-2 2.62 2.62 0 0 0-2.49-.44 5.45 5.45 0 0 0-2.64 2l-5.02 6.38-4.49-3.52 10.41-13.26 4.08 3.2-1.86 2.37a6.8 6.8 0 0 1 3.53-.48 6.5 6.5 0 0 1 3.19 1.37 6.15 6.15 0 0 1 2.09 2.8 5.7 5.7 0 0 1 .05 3.45zm-32.07-25.37l5 2.88-4.24 7.36a5.05 5.05 0 0 0-.86 2.91 2.48 2.48 0 0 0 1.37 1.92 2.74 2.74 0 0 0 2.8.08 7.3 7.3 0 0 0 2.67-2.95l3.6-6.25 5 2.88-8.4 14.61-4.54-2.61 1.58-2.74a6.91 6.91 0 0 1-3.5.95 7.07 7.07 0 0 1-3.52-1 5.88 5.88 0 0 1-3.15-4 8.28 8.28 0 0 1 1.35-5.6zm-4.87-2.37l-2.19 3.48a10.86 10.86 0 0 0-1.71-1.87 8 8 0 0 0-1.9-1.24 3 3 0 0 0-1.64-.33 1.21 1.21 0 0 0-1 .74c-.25.54.26 1.33 1.51 2.37l.93.78a8.33 8.33 0 0 1 2.61 3.32 4.46 4.46 0 0 1-.33 3.31 5 5 0 0 1-3.63 3 9.47 9.47 0 0 1-5.85-1 19.69 19.69 0 0 1-2.7-1.48 18.6 18.6 0 0 1-2.41-1.88l2.12-3.78a11.72 11.72 0 0 0 1.91 1.91 11 11 0 0 0 2.29 1.39 4.17 4.17 0 0 0 1.88.47 1.11 1.11 0 0 0 1-.68q.42-.93-1.62-2.7l-.8-.69a9.27 9.27 0 0 1-2.53-3.25 3.82 3.82 0 0 1 .2-3 4.74 4.74 0 0 1 3.59-2.89 10.06 10.06 0 0 1 5.94 1.08 15 15 0 0 1 2.27 1.27 18.61 18.61 0 0 1 2.06 1.67zM327.63 49a4.42 4.42 0 0 0 0-2.88 3 3 0 0 0-1.8-1.76 3 3 0 0 0-2.49.06 4.55 4.55 0 0 0-2 2.08zm4 3.74l-.52 1.31-11-4.35a3.42 3.42 0 0 0 .39 2.89 5.66 5.66 0 0 0 2.8 2.07 11.07 11.07 0 0 0 2.62.65 15.8 15.8 0 0 0 3.08.08l-1.52 3.84a16.68 16.68 0 0 1-3-.37 19.35 19.35 0 0 1-3.06-.93 10.11 10.11 0 0 1-5.81-4.91 8.81 8.81 0 0 1 .07-7.24 8.32 8.32 0 0 1 4.53-4.94 8.91 8.91 0 0 1 6.87.22 8.24 8.24 0 0 1 5 4.55q1.19 3.03-.43 7.13zm-22.12-23.15l5.84 1.65-6.21 21.89-5.84-1.61zm-15.17 2l-1.18 4.85a3.61 3.61 0 0 0-.73-.35 6.11 6.11 0 0 0-1-.25 3.73 3.73 0 0 0-3.3.76 6.22 6.22 0 0 0-1.73 3.63l-1.27 7.08-5.68-1 3-16.59 5.07.91-.57 3.16a6.85 6.85 0 0 1 2.6-2.35 5 5 0 0 1 3.11-.35 12.92 12.92 0 0 1 1.57.46zm-22.26 3.49a4.42 4.42 0 0 0-.88-2.74 3 3 0 0 0-2.24-1.15 3 3 0 0 0-2.36.8 4.56 4.56 0 0 0-1.29 2.53zm4.95 2.38l-.11 1.41-11.8-.9a3.42 3.42 0 0 0 1.23 2.65 5.67 5.67 0 0 0 3.28 1.15 11.08 11.08 0 0 0 2.7-.15 15.73 15.73 0 0 0 3-.83l-.31 4.11a16.64 16.64 0 0 1-3 .54 19.4 19.4 0 0 1-3.2 0 10.11 10.11 0 0 1-7-3 8.81 8.81 0 0 1-2.11-6.92 8.32 8.32 0 0 1 2.86-6.06 8.91 8.91 0 0 1 6.62-1.82 8.24 8.24 0 0 1 6.14 2.88q2.07 2.52 1.7 6.91zm-30.35-6.45a3.17 3.17 0 0 0-2.61 1.29 5.26 5.26 0 0 0-.87 3.37 5.21 5.21 0 0 0 1 3.25 3.09 3.09 0 0 0 2.59 1.14 3.12 3.12 0 0 0 2.61-1.34 5.42 5.42 0 0 0 .88-3.43 5 5 0 0 0-1-3.16 3.07 3.07 0 0 0-2.6-1.14zm-3.33 10.72l.24 9.2-5.77.15-.61-23.7 5.18-.13.08 3.21a7.25 7.25 0 0 1 2.48-2.79 6.68 6.68 0 0 1 3.49-1 6.91 6.91 0 0 1 5.55 2.26 9.41 9.41 0 0 1 2.25 6.33 9.72 9.72 0 0 1-1.93 6.54 6.75 6.75 0 0 1-5.34 2.64 6.84 6.84 0 0 1-3.16-.62 6.58 6.58 0 0 1-2.46-2.11zm-31.86-12a10.19 10.19 0 0 1 7.44 1.06 8.42 8.42 0 0 1 3.68 6 8.38 8.38 0 0 1-1.38 6.85 12 12 0 0 1-14 2.51 8.37 8.37 0 0 1-3.67-5.94 8.41 8.41 0 0 1 1.37-6.88 10.11 10.11 0 0 1 6.55-3.61zm.71 4a3.2 3.2 0 0 0-2.38 1.77 5.58 5.58 0 0 0-.38 3.62 5.52 5.52 0 0 0 1.61 3.23 3.36 3.36 0 0 0 5.25-.92 5.57 5.57 0 0 0 .37-3.6 5.64 5.64 0 0 0-1.6-3.28 3.2 3.2 0 0 0-2.87-.86zm-17 6.73a4.43 4.43 0 0 0-1.8-2.31 3 3 0 0 0-2.5-.3 3 3 0 0 0-1.94 1.56 4.56 4.56 0 0 0-.32 2.86zm5.47.53l.38 1.36-11.39 3.17a3.42 3.42 0 0 0 2.07 2.06 5.66 5.66 0 0 0 3.48-.05 11.07 11.07 0 0 0 2.48-1.07 15.83 15.83 0 0 0 2.5-1.81l1.13 4a16.66 16.66 0 0 1-2.62 1.54 19.45 19.45 0 0 1-3 1.12 10.11 10.11 0 0 1-7.6-.37 8.81 8.81 0 0 1-4.34-5.79 8.32 8.32 0 0 1 .59-6.67 8.91 8.91 0 0 1 5.59-4 8.24 8.24 0 0 1 6.74.57q2.78 1.66 3.99 5.9zm-45.32-.12l7.42-2.92a29.13 29.13 0 0 1 5-1.55 10 10 0 0 1 3.64-.13 10.49 10.49 0 0 1 5 2.36 12 12 0 0 1 3.24 4.78 12.55 12.55 0 0 1 1 6.06 10 10 0 0 1-5.05 7.55 35.53 35.53 0 0 1-5.2 2.34L163.68 62zm7.28 1.86l5.05 12.79 2.44-1a6.54 6.54 0 0 0 3.94-3.49 7.11 7.11 0 0 0-.26-5.42 6.8 6.8 0 0 0-3.55-4.06 7.12 7.12 0 0 0-5.48.25zm-29.15 7.56l5-2.88 2.34 4.06-5 2.88zm3.86 6.71l5-2.88 8.41 14.61-5 2.88zm-10.06-.62l3.1 4.83 3.48-2.23 2.25 3.51-3.48 2.23 3.13 4.8a4.36 4.36 0 0 0 1.93 1.9 2.54 2.54 0 0 0 2.17-.48 3 3 0 0 0 .41-.33c.16-.15.38-.37.66-.66l2.11 3.12q-.67.67-1.35 1.24a14.11 14.11 0 0 1-1.38 1q-2.89 1.85-5.09 1.25t-4.25-3.8l-3.22-5-2.72 1.76-2.25-3.51 3-1.92-2.1-3.28zm-3.55 17.45l6.1 7.76-4.51 3.55-5.36-6.81a5.05 5.05 0 0 0-2.38-1.89 2.48 2.48 0 0 0-2.29.57 2.84 2.84 0 0 0-1.14 2.44 5.33 5.33 0 0 0 1.31 3.07l5 6.37-4.54 3.57-10.4-13.25 4.12-3.24 1.86 2.37a6.92 6.92 0 0 1 .42-3.62 7 7 0 0 1 2.23-2.89 5.86 5.86 0 0 1 4.88-1.42 8.36 8.36 0 0 1 4.7 3.36zm-20.89 16.84a4.42 4.42 0 0 0-2.63-1.15 3 3 0 0 0-2.35.9 3 3 0 0 0-1 2.28 4.56 4.56 0 0 0 1.05 2.68zm5.08-2.08l1 1-8.56 8.17a3.42 3.42 0 0 0 2.79.86 5.66 5.66 0 0 0 3.05-1.67 11 11 0 0 0 1.69-2.11 15.8 15.8 0 0 0 1.37-2.76l2.85 3a16.66 16.66 0 0 1-1.6 2.58 19.33 19.33 0 0 1-2.13 2.39 10.12 10.12 0 0 1-6.89 3.22 8.8 8.8 0 0 1-6.54-3.1 8.31 8.31 0 0 1-2.59-6.18 8.9 8.9 0 0 1 3.04-6.14 8.24 8.24 0 0 1 6.23-2.64q3.25.19 6.29 3.37zm-31.69 8.7l3.78-4.36L83.55 96l-3.78 4.36zm5.85 5.07L85.86 98l12.74 11-3.78 4.36zm-5.78 13.07a3.18 3.18 0 0 0-.67 2.83 5.26 5.26 0 0 0 2 2.82 5.21 5.21 0 0 0 3.16 1.28 3.09 3.09 0 0 0 2.61-1.26 3.12 3.12 0 0 0 .62-2.82 5.43 5.43 0 0 0-2.09-2.87 5 5 0 0 0-3.09-1.22 3.07 3.07 0 0 0-2.54 1.24zm6.14 9.4l7.23 5.69-3.56 4.54-18.65-14.64 3.2-4.08 2.53 2a7.24 7.24 0 0 1-.57-3.69 6.68 6.68 0 0 1 1.43-3.35 6.91 6.91 0 0 1 5.28-2.84 9.41 9.41 0 0 1 6.31 2.31 9.72 9.72 0 0 1 3.76 5.65 6.75 6.75 0 0 1-1.37 5.79 6.84 6.84 0 0 1-2.5 2 6.59 6.59 0 0 1-3.13.62zm-11.27 4.75l7.42 4.76-2.72 4.18-2.28-1.31a6.26 6.26 0 0 1 .46 3.24 8.21 8.21 0 0 1-1.32 3.32 5.64 5.64 0 0 1-3.43 2.65 5.12 5.12 0 0 1-4.09-.82 4.54 4.54 0 0 1-2.3-4.11q.05-2.59 2.54-6.45l1.22-1.9-.19-.12a2.42 2.42 0 0 0-2.35-.26 5.37 5.37 0 0 0-2.28 2.19 8.54 8.54 0 0 0-.93 2.09 18.47 18.47 0 0 0-.61 2.85l-3.26-2a14.28 14.28 0 0 1 .91-3 21 21 0 0 1 1.71-3.2c1.49-2.32 3.16-3.65 5-4s4.01.3 6.49 1.89zm-2.5 6a8.94 8.94 0 0 0-1.52 3.39 2 2 0 0 0 2.41 2.16 2.27 2.27 0 0 0 1.32-1 3.4 3.4 0 0 0 .5-2.74 3.85 3.85 0 0 0-1.78-2.33l-.4-.26zm-15 8.22l3.37 2.36a10.85 10.85 0 0 0-1.95 1.61 8 8 0 0 0-1.33 1.84 3 3 0 0 0-.41 1.63 1.2 1.2 0 0 0 .69 1q.8.41 2.44-1.39l.83-.89a8.33 8.33 0 0 1 3.45-2.44 4.46 4.46 0 0 1 3.29.49 5 5 0 0 1 2.8 3.77 9.46 9.46 0 0 1-1.24 5.8A19.76 19.76 0 0 1 64 160.2a18.67 18.67 0 0 1-2 2.31l-3.67-2.3a11.68 11.68 0 0 0 2-1.82 10.9 10.9 0 0 0 1.5-2.21 4.16 4.16 0 0 0 .56-1.85 1.11 1.11 0 0 0-.63-1q-.91-.47-2.78 1.49l-.73.76a9.26 9.26 0 0 1-3.4 2.4 3.83 3.83 0 0 1-3-.34 4.74 4.74 0 0 1-2.71-3.73 10.06 10.06 0 0 1 1.36-5.88 15 15 0 0 1 1.35-2.15 18.65 18.65 0 0 1 1.82-2.05zm-15.82 34.57a10.19 10.19 0 0 1 4.52-6 8.42 8.42 0 0 1 7-.34 8.38 8.38 0 0 1 5.34 4.49 12 12 0 0 1-4.56 13.5 8.37 8.37 0 0 1-7 .35 8.41 8.41 0 0 1-5.37-4.52 10.12 10.12 0 0 1 .07-7.48zm3.82 1.29a3.21 3.21 0 0 0 .4 2.94 5.58 5.58 0 0 0 3 2.08 5.52 5.52 0 0 0 3.61.15 3.36 3.36 0 0 0 1.72-5 5.57 5.57 0 0 0-3-2.06 5.64 5.64 0 0 0-3.64-.18 3.2 3.2 0 0 0-2.09 2.07zm-16.49 16.86l1.3-5.62 24 5.54-1.3 5.62zm4.33 15.4a10.18 10.18 0 0 1 3.58-6.61 8.42 8.42 0 0 1 6.88-1.38 8.38 8.38 0 0 1 5.94 3.67 11.95 11.95 0 0 1-2.51 14 8.37 8.37 0 0 1-6.85 1.38 8.42 8.42 0 0 1-6-3.68 10.12 10.12 0 0 1-1.04-7.35zm4 .71a3.21 3.21 0 0 0 .83 2.85 5.58 5.58 0 0 0 3.26 1.62 5.52 5.52 0 0 0 3.59-.39 3.36 3.36 0 0 0 1-5.24 5.57 5.57 0 0 0-3.25-1.6 5.64 5.64 0 0 0-3.63.37 3.21 3.21 0 0 0-1.83 2.42zm-5 13.77l4 .87a10.86 10.86 0 0 0-1.22 2.25 8.05 8.05 0 0 0-.51 2.21 3 3 0 0 0 .25 1.66 1.2 1.2 0 0 0 1 .65q.89.07 1.71-2.23c.17-.48.32-.86.42-1.14a8.34 8.34 0 0 1 2.24-3.56 4.46 4.46 0 0 1 3.22-.82 5 5 0 0 1 4 2.4 9.46 9.46 0 0 1 1.1 5.83 19.78 19.78 0 0 1-.47 3 18.57 18.57 0 0 1-.95 2.9l-4.28-.7a11.69 11.69 0 0 0 1.14-2.45 10.92 10.92 0 0 0 .53-2.62 4.16 4.16 0 0 0-.2-1.93 1.11 1.11 0 0 0-1-.72q-1-.08-2 2.45c-.16.41-.29.74-.38 1a9.25 9.25 0 0 1-2.2 3.53 3.82 3.82 0 0 1-2.86.83 4.73 4.73 0 0 1-3.94-2.39 10.05 10.05 0 0 1-1-6 15.05 15.05 0 0 1 .41-2.5 18.71 18.71 0 0 1 .88-2.49zm419.16 87.32a7.16 7.16 0 0 1-1.69-3.22 6.49 6.49 0 0 1 .21-3.5 5.61 5.61 0 0 1 3.25-3.72 8.46 8.46 0 0 1 5.73.26l9.35 3.13-1.81 5.41-8.22-2.75a5.12 5.12 0 0 0-3-.31 2.28 2.28 0 0 0-1.52 1.61 2.58 2.58 0 0 0 .42 2.49 5.5 5.5 0 0 0 2.77 1.81l7.68 2.58-1.82 5.44-8.22-2.76a5.17 5.17 0 0 0-2.95-.31 2.3 2.3 0 0 0-1.45 1.64 2.62 2.62 0 0 0 .42 2.5 5.44 5.44 0 0 0 2.76 1.81l7.68 2.58-1.86 5.38-16-5.36 1.7-4.91 2.86 1a6.8 6.8 0 0 1-1.63-3.16 6.5 6.5 0 0 1 .22-3.46 6.15 6.15 0 0 1 1.94-2.91 5.7 5.7 0 0 1 3.18-1.23m-18 34.09l2.61-5.15 7.57 3.84a5 5 0 0 0 3 .71 2.48 2.48 0 0 0 1.84-1.47 2.74 2.74 0 0 0-.07-2.8 7.3 7.3 0 0 0-3.09-2.51l-6.43-3.26 2.61-5.15 15 7.62-2.37 4.68-2.82-1.43a6.91 6.91 0 0 1 1.14 3.44 7.08 7.08 0 0 1-.81 3.56 5.88 5.88 0 0 1-3.84 3.36 8.28 8.28 0 0 1-5.68-1.05zm-1.06 1.91l4 3a3.64 3.64 0 0 0-.61.54 6.06 6.06 0 0 0-.61.81 3.73 3.73 0 0 0-.58 3.34 6.22 6.22 0 0 0 2.71 3l6 3.91-3.12 4.75-14.15-9.15 2.8-4.32 2.7 1.74a6.85 6.85 0 0 1-1.16-3.31 5.05 5.05 0 0 1 .87-3 13 13 0 0 1 1-1.27zm-14.9 21.76a10.19 10.19 0 0 1 6.06-4.44 9.55 9.55 0 0 1 10.63 7.58 12 12 0 0 1-8.27 11.6 9.56 9.56 0 0 1-10.61-7.56 10.11 10.11 0 0 1 2.19-7.18zm3.28 2.34a3.21 3.21 0 0 0-.46 2.93 6.47 6.47 0 0 0 5.67 4 3.36 3.36 0 0 0 3.1-4.27 5.57 5.57 0 0 0-2.25-2.84 5.64 5.64 0 0 0-3.44-1.22 3.21 3.21 0 0 0-2.62 1.43zm-21 7.79l3.78-4.36 18.63 16.15-3.78 4.36zm-10.12 21.07l4.17-4 5.88 6.13a5 5 0 0 0 2.55 1.65 2.48 2.48 0 0 0 2.23-.78 2.73 2.73 0 0 0 .87-2.67 7.3 7.3 0 0 0-2.08-3.39l-5-5.21 4.17-4 11.74 12.21-3.78 3.63-2.22-2.28a6.9 6.9 0 0 1-.07 3.62 7.08 7.08 0 0 1-1.95 3.09 5.88 5.88 0 0 1-4.73 1.9 8.28 8.28 0 0 1-5-2.87zm-2.47 2.8l2.3 3.57a7.38 7.38 0 0 0-1.75.5 6.45 6.45 0 0 0-1.45.85 4.37 4.37 0 0 0-.77 6.58 4.42 4.42 0 0 0 3.15 1.83 5.05 5.05 0 0 0 3.62-1.24 6.85 6.85 0 0 0 1.28-1.31 6.51 6.51 0 0 0 .87-1.63l2.84 3.4a13.38 13.38 0 0 1-1.56 2 19.15 19.15 0 0 1-2.16 2 9.21 9.21 0 0 1-6.74 2.19 9.43 9.43 0 0 1-8-10.18 10 10 0 0 1 4.1-6.26 12.25 12.25 0 0 1 1.92-1.23 16.22 16.22 0 0 1 2.35-1.07zm-14.09 18.79a4.42 4.42 0 0 0-2.35-1.66 3 3 0 0 0-2.48.43 3 3 0 0 0-1.41 2.05 4.55 4.55 0 0 0 .52 2.83zm5.39-1.06l.76 1.19-10 6.36a3.42 3.42 0 0 0 2.57 1.38 5.67 5.67 0 0 0 3.32-1.05 11.11 11.11 0 0 0 2.07-1.74 15.8 15.8 0 0 0 1.88-2.45l2.22 3.48a16.61 16.61 0 0 1-2.07 2.22 19.32 19.32 0 0 1-2.55 1.93 10.11 10.11 0 0 1-7.39 1.82 8.81 8.81 0 0 1-5.82-4.31 8.31 8.31 0 0 1-1.29-6.56 8.9 8.9 0 0 1 4.2-5.43 8.24 8.24 0 0 1 6.62-1.39q3.13.82 5.5 4.57zm-18.52 11.27l4 7.88-4.48 2.25-1.3-2.3a6.27 6.27 0 0 1-1.25 3 8.21 8.21 0 0 1-2.82 2.18 5.64 5.64 0 0 1-4.3.53 5.12 5.12 0 0 1-3.11-2.79 4.54 4.54 0 0 1 .11-4.71c.91-1.47 2.74-2.89 5.47-4.26l2-1-.1-.2a2.42 2.42 0 0 0-1.89-1.42 5.36 5.36 0 0 0-3.08.72 8.55 8.55 0 0 0-1.87 1.33 18.46 18.46 0 0 0-2 2.14l-1.8-3.36a14.26 14.26 0 0 1 2.33-2.16 21.09 21.09 0 0 1 3.1-1.88q3.7-1.86 6.35-.88t4.64 4.93zm-5.22 3.91a8.94 8.94 0 0 0-3 2.14 1.85 1.85 0 0 0-.21 2.09 1.83 1.83 0 0 0 1.18 1 2.27 2.27 0 0 0 1.67-.23 3.39 3.39 0 0 0 1.82-2.1 3.85 3.85 0 0 0-.34-2.91l-.22-.43zM334.68 437l.95 4a10.89 10.89 0 0 0-2.53-.09 8 8 0 0 0-2.22.49 3 3 0 0 0-1.39.94 1.21 1.21 0 0 0-.15 1.2q.32.83 2.75.58l1.21-.11a8.33 8.33 0 0 1 4.2.47 4.46 4.46 0 0 1 2.13 2.55 5 5 0 0 1-.42 4.68 9.47 9.47 0 0 1-4.78 3.51 19.86 19.86 0 0 1-2.95.89 18.6 18.6 0 0 1-3 .4l-1.22-4.16a11.72 11.72 0 0 0 2.7 0 10.9 10.9 0 0 0 2.59-.66 4.16 4.16 0 0 0 1.65-1 1.11 1.11 0 0 0 .22-1.19q-.37-1-3.06-.73l-1.05.08a9.24 9.24 0 0 1-4.13-.47 3.82 3.82 0 0 1-2-2.23 4.74 4.74 0 0 1 .45-4.58 10.06 10.06 0 0 1 4.93-3.49 14.93 14.93 0 0 1 2.43-.71 18.65 18.65 0 0 1 2.69-.39zm-21.28 16.14l2.38 8.49-4.82 1.35-.78-2.46a6.26 6.26 0 0 1-1.78 2.7 8.21 8.21 0 0 1-3.19 1.61 5.64 5.64 0 0 1-4.32-.3 5.12 5.12 0 0 1-2.52-3.33 4.54 4.54 0 0 1 1-4.6c1.17-1.27 3.24-2.31 6.19-3.14l2.18-.61-.06-.22a2.42 2.42 0 0 0-1.59-1.76 5.36 5.36 0 0 0-3.16.12 8.57 8.57 0 0 0-2.08.95 18.56 18.56 0 0 0-2.34 1.72l-1.13-3.65a14.28 14.28 0 0 1 2.7-1.67 21.06 21.06 0 0 1 3.4-1.25q4-1.12 6.4.34t3.52 5.71zm-5.87 2.84a9 9 0 0 0-3.39 1.52 2 2 0 0 0 .36 3.22 2.27 2.27 0 0 0 1.68.09 3.4 3.4 0 0 0 2.19-1.72 3.84 3.84 0 0 0 .22-2.92l-.13-.46zm-23.33-11.91l5.68-1 4.52 24.14-5.68 1zm-21.52 10.77l5.73-.7 1 8.43a5.05 5.05 0 0 0 1.06 2.85 2.48 2.48 0 0 0 2.25.71 2.73 2.73 0 0 0 2.29-1.62 7.3 7.3 0 0 0 .36-4l-.87-7.16 5.73-.7 2 16.73-5.2.64-.38-3.14a6.91 6.91 0 0 1-2.23 2.86 7.08 7.08 0 0 1-3.41 1.31 5.88 5.88 0 0 1-4.93-1.31 8.28 8.28 0 0 1-2.29-5.3zm-3.79.4l-.23 4.28a7.41 7.41 0 0 0-1.7-.64 6.44 6.44 0 0 0-1.67-.17 4.37 4.37 0 0 0-4.53 4.83 4.42 4.42 0 0 0 1.45 3.34 5.05 5.05 0 0 0 3.64 1.16 6.89 6.89 0 0 0 1.81-.3 6.53 6.53 0 0 0 1.67-.79l.26 4.42a13.41 13.41 0 0 1-2.42.65 19.11 19.11 0 0 1-2.9.29 9.22 9.22 0 0 1-6.73-2.25 9.43 9.43 0 0 1-.36-12.93 10 10 0 0 1 7-2.6 12.28 12.28 0 0 1 2.27.15 16.35 16.35 0 0 1 2.48.56zm-22.43 6.23a4.43 4.43 0 0 0-.88-2.74 3 3 0 0 0-2.24-1.15 3 3 0 0 0-2.36.8 4.56 4.56 0 0 0-1.29 2.58zm4.95 2.38l-.11 1.41-11.8-.9a3.42 3.42 0 0 0 1.23 2.65 5.66 5.66 0 0 0 3.28 1.15 11 11 0 0 0 2.7-.15 15.73 15.73 0 0 0 3-.83l-.31 4.11a16.7 16.7 0 0 1-3 .54 19.38 19.38 0 0 1-3.2 0 10.11 10.11 0 0 1-7-3 8.81 8.81 0 0 1-2.07-6.94 8.31 8.31 0 0 1 2.86-6.06 8.9 8.9 0 0 1 6.62-1.82 8.24 8.24 0 0 1 6.13 2.86q2.05 2.59 1.72 6.98zm-21.46-2.33l-1.55 8.65-4.93-.91.35-2.6a6.26 6.26 0 0 1-2.82 1.65 8.2 8.2 0 0 1-3.57 0 5.64 5.64 0 0 1-3.75-2.17 5.12 5.12 0 0 1-.8-4.1 4.54 4.54 0 0 1 2.93-3.69c1.61-.62 3.93-.65 6.94-.1l2.23.41v-.22a2.43 2.43 0 0 0-.65-2.28 5.37 5.37 0 0 0-2.93-1.24 8.53 8.53 0 0 0-2.29-.06 18.43 18.43 0 0 0-2.86.52l.59-3.77a14.25 14.25 0 0 1 3.16-.31 21.1 21.1 0 0 1 3.6.37c2.71.5 4.57 1.54 5.59 3.12s1.29 3.81.76 6.73zm-6.52 0a9 9 0 0 0-3.71-.12 2 2 0 0 0-1.09 3.05 2.27 2.27 0 0 0 1.47.83 3.4 3.4 0 0 0 2.72-.58 3.84 3.84 0 0 0 1.48-2.53l.09-.47zm-12.13-11.23l-1.64 3.77a10.88 10.88 0 0 0-2-1.59 8.05 8.05 0 0 0-2.07-.94 3 3 0 0 0-1.68-.08 1.2 1.2 0 0 0-.84.87q-.24.86 1.85 2.11l1 .64a8.34 8.34 0 0 1 3.08 2.9 4.46 4.46 0 0 1 .17 3.32 5 5 0 0 1-3.14 3.49 9.47 9.47 0 0 1-5.93-.07 19.79 19.79 0 0 1-2.89-1.06 18.63 18.63 0 0 1-2.66-1.5l1.52-4.06a11.71 11.71 0 0 0 2.18 1.6 10.87 10.87 0 0 0 2.47 1 4.16 4.16 0 0 0 1.93.18 1.11 1.11 0 0 0 .9-.82q.28-1-2-2.43l-.89-.57a9.25 9.25 0 0 1-3-2.85 3.83 3.83 0 0 1-.25-3 4.74 4.74 0 0 1 3.12-3.39 10.05 10.05 0 0 1 6 .17 15 15 0 0 1 2.37.9 18.64 18.64 0 0 1 2.4 1.41zm-26.13-1l-3.66 9.16-5.33-2.13 3.22-8a5 5 0 0 0 .44-3 2.48 2.48 0 0 0-1.64-1.7 2.84 2.84 0 0 0-2.69.24 5.33 5.33 0 0 0-2.06 2.7l-3 7.53-5.36-2.14 6.31-15.73 4.87 1.95-1.12 2.8a6.92 6.92 0 0 1 3.25-1.45 7 7 0 0 1 3.62.49 5.86 5.86 0 0 1 3.67 3.51 8.36 8.36 0 0 1-.52 5.75zm-19.84-24.93l5.15 2.61-2.08 4.16-5.18-2.61zm-3.5 6.9l5.15 2.61-7.62 15-5.15-2.61zm-9.16-5.36l-3 4a3.64 3.64 0 0 0-.54-.61 6.09 6.09 0 0 0-.81-.61 3.73 3.73 0 0 0-3.34-.58 6.22 6.22 0 0 0-3 2.71l-3.91 6-4.85-3.13 9.18-14.16 4.32 2.8-1.74 2.7a6.86 6.86 0 0 1 3.31-1.16 5.05 5.05 0 0 1 3 .87 13.05 13.05 0 0 1 1.27 1zm-21-14.79a10.19 10.19 0 0 1 4.19 6.24 9.55 9.55 0 0 1-8 10.29 11.95 11.95 0 0 1-11.25-8.74 9.56 9.56 0 0 1 8-10.29 10.11 10.11 0 0 1 7.05 2.48zm-2.48 3.18a3.21 3.21 0 0 0-2.91-.59 5.58 5.58 0 0 0-2.95 2.14 5.52 5.52 0 0 0-1.32 3.36 3.36 3.36 0 0 0 4.2 3.28 5.57 5.57 0 0 0 2.93-2.13 5.64 5.64 0 0 0 1.36-3.38 3.21 3.21 0 0 0-1.31-2.69zm-12.79-6l-6.83 7.13-4.14-4 6-6.26a5.05 5.05 0 0 0 1.54-2.62 2.48 2.48 0 0 0-.88-2.18 2.84 2.84 0 0 0-2.58-.78 5.33 5.33 0 0 0-2.92 1.73l-5.61 5.85-4.17-4 11.66-12.17 3.79 3.62-2.09 2.18a6.93 6.93 0 0 1 3.64-.09 7.06 7.06 0 0 1 3.17 1.81 5.86 5.86 0 0 1 2.09 4.63 8.36 8.36 0 0 1-2.67 5.12zm-16.44-27.85a10.19 10.19 0 0 1 2.87 6.95 9.55 9.55 0 0 1-9.88 8.49 11.95 11.95 0 0 1-9.29-10.81 9.56 9.56 0 0 1 9.88-8.49 10.11 10.11 0 0 1 6.42 3.86zm-3.06 2.63a3.21 3.21 0 0 0-2.73-1.15 5.58 5.58 0 0 0-3.32 1.51 5.52 5.52 0 0 0-2 3 3.36 3.36 0 0 0 3.55 4.09 5.57 5.57 0 0 0 3.29-1.51 5.64 5.64 0 0 0 2-3 3.21 3.21 0 0 0-.79-2.94zm-8.32-30.88l3.1 4.87-8.49 5.41a5.81 5.81 0 0 1 3 .84 7.19 7.19 0 0 1 2.35 2.36 5.85 5.85 0 0 1 .93 5 8.36 8.36 0 0 1-3.81 4.35l-8.32 5.3-3.08-4.84 7.31-4.66a5.06 5.06 0 0 0 2.11-2.18 2.48 2.48 0 0 0-.34-2.33 2.84 2.84 0 0 0-2.32-1.37 5.33 5.33 0 0 0-3.24 1l-6.83 4.36-3.1-4.87zm-8.56-15.59l2.59 5.16-4.21 2.1-2.59-5.16zm-6.92 3.47l2.59 5.16-15.06 7.56-2.59-5.16zm-8.86-20.72l2.09 5.38-7.93 3.07a5 5 0 0 0-2.5 1.73 2.48 2.48 0 0 0-.13 2.36 2.74 2.74 0 0 0 2.13 1.82 7.3 7.3 0 0 0 3.93-.62l6.75-2.57 2.09 5.38-15.71 6.1-1.9-4.89 2.94-1.14a6.91 6.91 0 0 1-3.32-1.45 7.07 7.07 0 0 1-2.11-3 5.88 5.88 0 0 1 .06-5.1 8.28 8.28 0 0 1 4.58-3.52zm-2-3.26l-4.18.76a7.39 7.39 0 0 0 .21-1.81 6.43 6.43 0 0 0-.23-1.66 4.37 4.37 0 0 0-5.78-3.24 4.41 4.41 0 0 0-2.86 2.2 5.05 5.05 0 0 0-.25 3.82 6.86 6.86 0 0 0 .72 1.69 6.52 6.52 0 0 0 1.17 1.43l-4.23 1.32a13.33 13.33 0 0 1-1.22-2.2 19.23 19.23 0 0 1-1-2.74 9.22 9.22 0 0 1 .56-7.07 8.48 8.48 0 0 1 5.48-4.19 8.45 8.45 0 0 1 7 .72 10 10 0 0 1 4.22 6.18 12.31 12.31 0 0 1 .4 2.24 16.23 16.23 0 0 1 .02 2.54z" fill="#af1f24" fill-rule="evenodd"/>
  <circle cx="35.32" cy="273.08" r="7.5" fill="#fff"/>
  <circle cx="35.32" cy="273.08" r="7.5" fill="#af1f24"/>
  <path d="M35.33 280.83a7.74 7.74 0 1 1 7.74-7.75 7.75 7.75 0 0 1-7.74 7.75zm0-15a7.25 7.25 0 1 0 7.25 7.25 7.26 7.26 0 0 0-7.25-7.25z" fill="#fff"/>
  <circle cx="460.4" cy="273.08" r="7.5" fill="#fff"/>
  <circle cx="460.4" cy="273.08" r="7.5" fill="#af1f24"/>
  <path d="M460.4 280.83a7.74 7.74 0 1 1 7.74-7.75 7.75 7.75 0 0 1-7.74 7.75zm0-15a7.25 7.25 0 1 0 7.25 7.25 7.26 7.26 0 0 0-7.25-7.25z" fill="#fff"/>
  <path d="M248.33 66.75c100.26 0 181.57 81.31 181.57 181.57s-81.31 181.57-181.57 181.57S66.76 348.58 66.76 248.32 148.07 66.75 248.33 66.75m0-5.34c103.21 0 186.91 83.7 186.91 186.91s-83.7 186.91-186.91 186.91S61.4 351.52 61.4 248.32 145.12 61.41 248.33 61.41z" fill="#af1116" fill-rule="evenodd"/>
  <path d="M248.33 5.34c134.17 0 243 108.81 243 243s-108.81 243-243 243S5.35 382.52 5.35 248.32s108.81-243 243-243m0-5.34C385.4 0 496.65 111.2 496.65 248.32S385.4 496.64 248.33 496.64 0 385.44 0 248.32 111.21 0 248.33 0z" fill="#af1f24" fill-rule="evenodd"/>
  <path d="M387.09 163.38a5.13 5.13 0 0 0-4.23-2.28 11.17 11.17 0 0 0-9.54 6.79 5.46 5.46 0 0 0 5 7 11.1 11.1 0 0 0 9.54-6.79 5.17 5.17 0 0 0-.76-4.74m-26.8-30.59a5.15 5.15 0 0 0-4.65-1.22 11.17 11.17 0 0 0-7.67 8.85 5.46 5.46 0 0 0 6.52 5.65 11.1 11.1 0 0 0 7.66-8.85 5.16 5.16 0 0 0-1.86-4.41zm-206-12.44l2.34 9.29 5.59-4zm-31.5 25.92a5.15 5.15 0 0 0-1.22 4.65 11.17 11.17 0 0 0 8.82 7.62 5.46 5.46 0 0 0 5.65-6.52 11.1 11.1 0 0 0-8.85-7.66 5.16 5.16 0 0 0-4.4 1.91zm285.79 52.93l1.2 3.54-20.39 6.91-1.2-3.54zm-20.39-2.34l5.08-2.3-1.78-3.94 2.84-1.28 3.28 7.27-10.11 4.57-.21-.21a17.09 17.09 0 0 1-2-2.48 20.21 20.21 0 0 1-1.64-3 11.8 11.8 0 0 1-.79-8.83 11.61 11.61 0 0 1 14.45-6.5 11.81 11.81 0 0 1 6.16 6.43 16.9 16.9 0 0 1 1.46 5.76v.35l-3.3.86v-.57a10.44 10.44 0 0 0-.19-2.52 11.35 11.35 0 0 0-.79-2.45 7.67 7.67 0 0 0-4.3-4.3 7.75 7.75 0 0 0-6.07.41 7.42 7.42 0 0 0-4.19 4.22 7.89 7.89 0 0 0 .47 6.07 9.05 9.05 0 0 0 .79 1.4 8 8 0 0 0 .84 1.04zm1.46-35.32a9.15 9.15 0 0 1 1.7 7.6 13.93 13.93 0 0 1-13.27 9.44 10.07 10.07 0 0 1-8.33-11.72 13.9 13.9 0 0 1 13.27-9.44 9.14 9.14 0 0 1 6.63 4.12zm-26.85-4.16l5.41 6.25-2.47 2.14-7.86-9.07 16.29-14.11 2.45 2.83zm-.45-27a9.11 9.11 0 0 1 3.45 7 13.93 13.93 0 0 1-10.66 12.31 10.07 10.07 0 0 1-10.87-9.41 13.9 13.9 0 0 1 10.66-12.31 9.18 9.18 0 0 1 7.46 2.47zm-20.87-11.84l-3.31 4.66 6.42 4.56-1.84 2.59-6.42-4.56-3.68 5.17 7 5-1.86 2.58-10-7.15 12.49-17.56 9.83 7-1.79 2.51zm-12.88-7.62l-8.34 16.27-3.35-1.65 8.34-16.28-5.15-2.72 1.49-2.9 13.66 7-1.49 2.9zm-27.16-15.23l3.54 1.2-6.91 20.41-3.54-1.2zm-14.17 14.53l1.26-5.43-4.21-1 .7-3 7.77 1.79-2.5 10.81h-.29a17 17 0 0 1-3.21.11 20.29 20.29 0 0 1-3.36-.49 11.8 11.8 0 0 1-7.5-4.73 11.61 11.61 0 0 1 3.59-15.44 11.86 11.86 0 0 1 8.85-1 16.88 16.88 0 0 1 5.47 2.33l.3.19-1.32 3.18-.43-.36a10.46 10.46 0 0 0-2.12-1.37 11.34 11.34 0 0 0-2.42-.85 7.34 7.34 0 0 0-9.38 5.88 7.44 7.44 0 0 0 .81 5.89 7.88 7.88 0 0 0 5.11 3.31 9.12 9.12 0 0 0 1.59.23 8.09 8.09 0 0 0 1.29-.05zm-22.14-4.12l.42-5.56-4.31-.33.24-3.1 8 .61-.84 11.07-.28.08a17 17 0 0 1-3.15.59 20.18 20.18 0 0 1-3.39 0 11.8 11.8 0 0 1-8.12-3.54 11.61 11.61 0 0 1 1.23-15.8 11.82 11.82 0 0 1 8.59-2.31 16.93 16.93 0 0 1 5.76 1.48l.32.15-.83 3.3-.49-.3a10.45 10.45 0 0 0-2.3-1 11.36 11.36 0 0 0-2.52-.48 7.34 7.34 0 0 0-8.39 7.23 7.43 7.43 0 0 0 1.69 5.7 7.89 7.89 0 0 0 5.55 2.5 9.13 9.13 0 0 0 1.61 0 8.09 8.09 0 0 0 1.21-.29zm-22.8-2.82v-.35l-1.19-15.64 3.49-.27 1.6 21.52-4.2.32-10.28-15.41c0 .17 0 .34.06.5l1.18 15.59-3.49.27-1.63-21.49 4.3-.33zm-25.33-13.19l3.68-.66 3.79 21.21-3.68.66zm-9.61 5.35l5 17.59-3.63 1-5-17.59L198.2 98l-.89-3.14 14.76-4.19.89 3.14zm-34.91 19.34l7.61-3.9-4-7.81 3.33-1.7 9.82 19.17-3.33 1.7-4.36-8.52-7.61 3.9 4.36 8.52-3.33 1.7-9.82-19.18 3.33-1.7zm-7.51 12.84l-7.58 5.36 1.45 5.48-3.13 2.23-5.48-22.54 3.34-2.38 19.37 12.67-3.3 2.34zm-17.58 16.08l6.25-5.41 2.14 2.47-9.07 7.86-14.11-16.29 2.83-2.45zm-26.92.51a9.11 9.11 0 0 1 7-3.45 13.93 13.93 0 0 1 12.31 10.66 10.07 10.07 0 0 1-9.41 10.87 13.9 13.9 0 0 1-12.31-10.66 9.18 9.18 0 0 1 2.33-7.42zm-7.94 24.68l-2.32-11.35 2.7-3.8 2.58 13.78 15.4-1.89-2.83 4-12.6 1.45 7.69 5.47-2.17 3-17.59-12.51 2.17-3zm-14 13.76l5.09 2.61 3.59-7 2.82 1.45-3.59 7 5.65 2.89 3.92-7.65 2.88 1.47-5.62 11-19.25-9.88 5.5-10.73 2.74 1.41zm-6.7 8.57l3.08 1.64-.43.4a9 9 0 0 0-1.31 1.51 9.14 9.14 0 0 0-.95 1.81 5 5 0 0 0-.4 2.74 1.77 1.77 0 0 0 1.14 1.38 2.13 2.13 0 0 0 1.58 0 13.42 13.42 0 0 0 2.94-2 16.26 16.26 0 0 1 4.55-2.89 5.2 5.2 0 0 1 3.66.09 5.92 5.92 0 0 1 3.56 3.63 7.7 7.7 0 0 1-.25 5.53 16.67 16.67 0 0 1-1.28 2.59 13.39 13.39 0 0 1-1.61 2.14l-.22.24-3.31-1.73.47-.41a11.75 11.75 0 0 0 1.77-1.87 8.54 8.54 0 0 0 1.1-1.95 4.47 4.47 0 0 0 .3-2.76 2.13 2.13 0 0 0-1.35-1.53c-1.61-.63-4.28 1.39-5.42 2.31l-1 .79a8.35 8.35 0 0 1-3.3 1.64 5.4 5.4 0 0 1-3.24-.18 5 5 0 0 1-3.14-3.4 8.55 8.55 0 0 1 .53-5.46 15.39 15.39 0 0 1 1-2.12 13.31 13.31 0 0 1 1.3-1.85zm303.88 43.08l8.84 2.69-.5-6.59zm-1.08 21.24l6 .45.13-1.73a4.94 4.94 0 0 0-.6-3.08 2.62 2.62 0 0 0-2.12-1.2 2.56 2.56 0 0 0-2.27.77 5.78 5.78 0 0 0-1 3.14zm-1.09 16.43l7.86 4.85 1.19-6.5zm-69.27 99.37l1.43 9.13 5.69-3.33zM281 388.62l-1.34 9.14 6.44-1.49zm-29.3 11.14l.19 6.17 1.71-.05a6.08 6.08 0 0 0 3.42-.93 2.67 2.67 0 0 0 1-2.34 2.63 2.63 0 0 0-1.06-2.22 5.44 5.44 0 0 0-3.2-.69zm-.3-8.51l.17 5.54 1.63-.05a5.32 5.32 0 0 0 3-.86 2.4 2.4 0 0 0 .92-2.1 2.3 2.3 0 0 0-1-2 5 5 0 0 0-2.9-.63zm-16.41.41l-4 8.33 6.59.5zm-72.41-26.79l-7.73 5.06 5.38 3.84zm-28.4-28l-4.5 3.92 1.14 1.31a5 5 0 0 0 2.62 1.74 2.62 2.62 0 0 0 2.34-.67 2.56 2.56 0 0 0 1-2.15 5.78 5.78 0 0 0-1.56-2.9zm-10-12.11l-9.07 1.79 3.55 5.58zM407 229.02l.68 8.91 5.25 1.53.28 3.7-21.32-6.64-.3-3.94 20.1-9.7.3 3.89zm-4.47 21.12a3.19 3.19 0 0 1 .49-.51 7.25 7.25 0 0 1 2.22-1.08l8-2.66-.3 3.87-7 2.21a3.42 3.42 0 0 0-1.68 1 3.79 3.79 0 0 0-.6 2l-.09 1.19 8.81.67-.27 3.57-20.71-1.58.44-5.77a9.11 9.11 0 0 1 1.77-5.25 4.9 4.9 0 0 1 4.29-1.56 5 5 0 0 1 3.32 1.48 5.63 5.63 0 0 1 1.34 2.44zm3.25 19.56l-1.58 8.82 4.69 2.81-.67 3.65-18.94-11.9.71-3.89 21.91-4.26-.7 3.84zm-3.2 22l-5.09-1.75-1.36 3.94-2.84-1 2.5-7.27 10.12 3.49v.28a16.43 16.43 0 0 1-.22 3.09 19.44 19.44 0 0 1-.81 3.17 11.37 11.37 0 0 1-5.29 6.71 11.19 11.19 0 0 1-14.44-5 11.38 11.38 0 0 1-.06-8.58 16.27 16.27 0 0 1 2.79-5l.21-.26 2.88 1.58-.4.38a10.07 10.07 0 0 0-1.53 1.9 11 11 0 0 0-1.07 2.24 7.08 7.08 0 0 0 4.69 9.59 7.18 7.18 0 0 0 5.73-.19 7.61 7.61 0 0 0 3.69-4.57 8.77 8.77 0 0 0 .38-1.5 7.78 7.78 0 0 0 .15-1.27zm-8.48 21.74l-4.8-2.42-1.9 3.7-2.68-1.35 3.47-6.86 9.55 4.82v.28a16.41 16.41 0 0 1-.64 3 19.54 19.54 0 0 1-1.23 3 11.38 11.38 0 0 1-6.15 5.93 11.19 11.19 0 0 1-13.63-6.92 11.41 11.41 0 0 1 1.1-8.51 16.32 16.32 0 0 1 3.44-4.59l.25-.23 2.64 2-.44.33a10.08 10.08 0 0 0-1.77 1.67 11 11 0 0 0-1.36 2.07 7.08 7.08 0 0 0 3.36 10.16 7.17 7.17 0 0 0 5.71.59 7.6 7.6 0 0 0 4.27-4 8.75 8.75 0 0 0 .58-1.44 7.79 7.79 0 0 0 .26-1.24zM381 332.71l-.28-.19-12.32-8.81 2-2.75 16.92 12.07-2.36 3.31-17.73-1.89.41.27 12.25 8.74-2 2.75-16.92-12.07 2.42-3.39zm-26 12.57l4 3.81 5.25-5.48 2.21 2.12-5.26 5.48 4.42 4.23 5.73-6 2.25 2.16-8.2 8.58-15-14.38 8-8.39 2.15 2.06zm-9 9l11.48 13.39-2.76 2.37-11.42-13.43-4.24 3.63-2-2.39 11.23-9.63 2 2.39zm-12.13 25l-7.72 4.5.92 5.39-3.2 1.87-3.3-22.13 3.42-2 17.5 13.85-3.37 2zm-26.32-3.76l3.28-1.49 8.57 18.94-3.28 1.49zm-4.56 3l.71 3.29-.57-.07a8.63 8.63 0 0 0-1.93 0 8.77 8.77 0 0 0-1.92.43 4.83 4.83 0 0 0-2.27 1.42 1.7 1.7 0 0 0-.31 1.7 2 2 0 0 0 1 1.15 12.92 12.92 0 0 0 3.33.9 15.66 15.66 0 0 1 5 1.54 5 5 0 0 1 2.22 2.74 5.71 5.71 0 0 1-.45 4.89 7.41 7.41 0 0 1-4.22 3.27 16.13 16.13 0 0 1-2.71.68 13 13 0 0 1-2.58.15h-.31l-.8-3.51.59.09a11.35 11.35 0 0 0 2.48.13 8.23 8.23 0 0 0 2.12-.41 4.31 4.31 0 0 0 2.21-1.5 2.06 2.06 0 0 0 .29-1.95c-.54-1.58-3.7-2.28-5.09-2.54l-1.21-.24a8 8 0 0 1-3.27-1.4 5.2 5.2 0 0 1-1.89-2.49 4.84 4.84 0 0 1 .53-4.43 8.22 8.22 0 0 1 4.34-3 14.91 14.91 0 0 1 2.2-.57 12.83 12.83 0 0 1 2.17-.2h.33zm-15.12 20.52l-8.7 2-.77 5.4-3.61.83 3.4-22.11 3.85-.89 12.61 18.42-3.8.88zm-29.67-1.13a5.68 5.68 0 0 1 2.25 1.45 5.09 5.09 0 0 1 1.3 3.4 5.3 5.3 0 0 1-1.93 4.5 9.33 9.33 0 0 1-5.62 1.72l-5.78.18-.65-20.77 5.75-.18a8.82 8.82 0 0 1 5.3 1.23 4.76 4.76 0 0 1 2.06 4 4.7 4.7 0 0 1-.94 3.09 5 5 0 0 1-1.74 1.35zm-19.71 5.75l-8.91-.68-2.31 5-3.7-.28 9.83-20.18 3.94.3 6.54 21.34-3.89-.3zm-18-14.77l-4 17.17-3.54-.83 4-17.17-5.44-1.27.71-3.06 14.41 3.36-.71 3.06zm-16.1-7.28l3.48.94-5.47 20.04-3.48-.94zm-16.35 2.44l10.16-4.7 4.17 1.67-12.38 5.5 5.25 14-4.37-1.75-4.2-11.49-3.39 8.44-3.35-1.34 7.74-19.28 3.35 1.34zm-18.15 1.63l6.9 4-1.57 2.72-10-5.79 10.4-18 3.12 1.8zm-10.49-8.78l-7.27-5.19-4.54 3.05-3-2.15 18.81-12.09 3.22 2.3-5.44 21.65-3.18-2.26zm-13.39-31.3l2.6 2.49-14.38 15-2.6-2.5zm-13.56.66a3.19 3.19 0 0 1 0 .71 7.25 7.25 0 0 1-.79 2.34l-3.69 7.53-2.57-2.91 3.33-6.52a3.43 3.43 0 0 0 .45-1.92 3.78 3.78 0 0 0-1-1.81l-.78-.9-6.66 5.8-2.35-2.7 15.67-13.64 3.8 4.36a9.11 9.11 0 0 1 2.5 5 4.91 4.91 0 0 1-1.9 4.15 5 5 0 0 1-3.39 1.32 5.64 5.64 0 0 1-2.67-.8zm-15.73-11.54l-4.8-7.54-5.35 1.13-2-3.13 22-4.16 2.12 3.34-13.16 18-2.13-3.26zm-11-19.14l.31-.15 13.79-6.24 1.39 3.07-18.93 8.57-1.68-3.7 10.54-14.38-.44.22-13.71 6.2-1.39-3.07 18.9-8.58 1.72 3.79zm5.84-26.64l1.16 3.41-19.67 6.71-1.16-3.41zm-19.83-12.42h.32l16.69 2.53 1.09 4.73-20.24 4.74-.79-3.43 15.42-3.57-16.82-2.5-.68-3 14-9.51-15.38 3.61-.74-3.2 20.25-4.67 1.11 4.79-14 9.39zm9.88-26.22l-5.5.42.58 7.57-3.05.23-.58-7.57-6.1.46.63 8.26-3.11.24-.9-11.86 20.72-1.53.88 11.59-3 .23zm2.05-8l-3.3-.64.29-.5a8.64 8.64 0 0 0 .78-1.76 8.84 8.84 0 0 0 .36-1.94 4.83 4.83 0 0 0-.41-2.64 1.7 1.7 0 0 0-1.44-1 2.05 2.05 0 0 0-1.45.47 12.9 12.9 0 0 0-2.14 2.7 15.65 15.65 0 0 1-3.37 4 5 5 0 0 1-3.39 1 5.71 5.71 0 0 1-4.32-2.33 7.42 7.42 0 0 1-1.34-5.17 16 16 0 0 1 .44-2.75 13 13 0 0 1 .88-2.44l.13-.28 3.54.65-.32.51a11.37 11.37 0 0 0-1.09 2.23 8.27 8.27 0 0 0-.46 2.11 4.32 4.32 0 0 0 .51 2.63 2.05 2.05 0 0 0 1.68 1c1.66.13 3.55-2.5 4.34-3.67.23-.34.46-.69.7-1a8 8 0 0 1 2.57-2.46 5.2 5.2 0 0 1 3-.75 4.84 4.84 0 0 1 3.87 2.24 8.24 8.24 0 0 1 1.06 5.18 14.85 14.85 0 0 1-.34 2.25 12.82 12.82 0 0 1-.67 2.07zm192.74 70.22h20v5h-6v21h-7v-21h-7v-5zm-30.74 0h8.46l10 26h-7.5l-1.87-6h-10.17l-2 6h-6.94zm4.09 5.14l-3.4 9.86h6.7zm-45.12-5.14h8.46l10 26h-7.5l-1.87-6h-10.16l-2 6h-6.94zm4.09 5.14l-3.4 9.86h6.7zm-30.42-5.08l-.52 5.43a18.29 18.29 0 0 0-3.09-1 12.76 12.76 0 0 0-2.87-.34 6.81 6.81 0 0 0-3.32.68 2.06 2.06 0 0 0-1.19 1.86 2 2 0 0 0 .61 1.45 4.55 4.55 0 0 0 1.83 1l1.16.37a23.15 23.15 0 0 1 6 2.58 6.66 6.66 0 0 1 2 2.45 7.47 7.47 0 0 1 .65 3.23 8 8 0 0 1-2.89 6.63q-2.88 2.28-8.36 2.29a29 29 0 0 1-7.91-1.11l.59-5.86a21.28 21.28 0 0 0 3.59 1.27 13.7 13.7 0 0 0 3.3.44 6 6 0 0 0 3.27-.78 2.39 2.39 0 0 0 1.2-2.11q0-1.65-3.84-3c-.62-.21-1.09-.37-1.42-.5a13.19 13.19 0 0 1-5.37-3.13 6.57 6.57 0 0 1-1.61-4.57 7.16 7.16 0 0 1 2.83-6.09q2.83-2.13 8.12-2.13a28.65 28.65 0 0 1 3.74.23 22.56 22.56 0 0 1 3.5.71z" fill="#af1f24" fill-rule="evenodd"/>
  <g clip-path="url(#a)" fill="#af1f24" fill-rule="evenodd">
    <path d="M316.39 311.52H180.4m135.99 0H180.4m135.99 0H180.4m135.99 0H180.4m135.99 0v1H180.4v-1m135.99 1H180.4m135.99 0H180.4m135.99 0H180.4m135.99 0H180.4m135.99 0H180.4m135.99 0H180.4m135.99 0H180.4m135.99 0v1H180.4v-1"/>
    <path d="M316.39 312.52v1H180.4v-1m135.99 1H180.4m135.99 0H180.4m135.99 0H180.4m135.99 0H180.4m135.99 0H180.4m135.99 0H180.4m135.99 0v1H180.4v-1"/>
    <path d="M316.39 313.52v1H180.4v-1m135.99 1H180.4m135.99 0H180.4m135.99 0H180.4m135.99 0H180.4m135.99 0H180.4m135.99 0H180.4m135.99 0H180.4m135.99 0v1H180.4v-1m135.99 1H180.4m135.99 0H180.4m135.99 0H180.4m135.99 0H180.4m135.99 0H180.4m135.99 0H180.4m135.99 0H180.4m135.99 0v1H180.4v-1m135.99 1H180.4m135.99 0H180.4m135.99 0H180.4m135.99 0H180.4m135.99 0H180.4m135.99 0H180.4m135.99 0H180.4m135.99 0v1H180.4v-1"/>
    <path d="M316.39 316.52v1H180.4v-1m135.99 1H180.4m135.99 0H180.4m135.99 0H180.4m135.99 0H180.4m135.99 0H180.4m135.99 0H180.4m135.99 0v1H180.4v-1"/>
    <path d="M316.39 317.52v1H180.4v-1m135.99 1H180.4m135.99 0H180.4m135.99 0H180.4m135.99 0H180.4m135.99 0H180.4m135.99 0H180.4m135.99 0H180.4m135.99 0v1H180.4v-1m135.99 1H180.4m135.99 0H180.4m135.99 0H180.4m135.99 0H180.4m135.99 0H180.4m135.99 0H180.4m135.99 0H180.4m135.99 0v1H180.4v-1"/>
    <path d="M316.39 319.52v1H180.4v-1m135.99 1H180.4m135.99 0H180.4m135.99 0H180.4m135.99 0H180.4m135.99 0H180.4m135.99 0H180.4m135.99 0v1H180.4v-1"/>
    <path d="M316.39 320.52v1H180.4v-1m135.99 1H180.4m135.99 0H180.4m135.99 0H180.4m135.99 0H180.4m135.99 0H180.4m135.99 0H180.4m135.99 0H180.4m135.99 0v1H180.4v-1m135.99 1H180.4m135.99 0H180.4m135.99 0H180.4m135.99 0H180.4m135.99 0H180.4m135.99 0H180.4m135.99 0H180.4m135.99 0v1H180.4v-1m135.99 1H180.4m135.99 0H180.4m135.99 0H180.4m135.99 0H180.4m135.99 0H180.4m135.99 0H180.4m135.99 0H180.4m135.99 0v1H180.4v-1"/>
    <path d="M316.39 323.52v1H180.4v-1m135.99 1H180.4m135.99 0H180.4m135.99 0H180.4m135.99 0H180.4m135.99 0H180.4m135.99 0H180.4m135.99 0v1H180.4v-1"/>
    <path d="M316.39 324.52v1H180.4v-1m135.99 1H180.4m135.99 0H180.4m135.99 0H180.4m135.99 0H180.4m135.99 0H180.4m135.99 0H180.4m135.99 0H180.4m135.99 0v1H180.4v-1m135.99 1H180.4m135.99 0H180.4m135.99 0H180.4m135.99 0H180.4m135.99 0H180.4m135.99 0H180.4m135.99 0H180.4m135.99 0v1H180.4v-1m135.99 1H180.4m135.99 0H180.4m135.99 0H180.4m135.99 0H180.4m135.99 0H180.4m135.99 0H180.4m135.99 0H180.4m135.99 0v1H180.4v-1"/>
    <path d="M316.39 327.52v1H180.4v-1m135.99 1H180.4m135.99 0H180.4m135.99 0H180.4m135.99 0H180.4m135.99 0H180.4m135.99 0H180.4m135.99 0H180.4m135.99 0v1H180.4v-1m135.99 1H180.4m135.99 0H180.4m135.99 0H180.4m135.99 0H180.4m135.99 0H180.4m135.99 0H180.4m135.99 0H180.4m135.99 0v1H180.4v-1m135.99 1H180.4m135.99 0H180.4m135.99 0H180.4m135.99 0H180.4m135.99 0H180.4m135.99 0H180.4m135.99 0H180.4m135.99 0v1H180.4v-1"/>
    <path d="M316.39 330.52v1H180.4v-1m135.99 1H180.4m135.99 0H180.4m135.99 0H180.4m135.99 0H180.4m135.99 0H180.4m135.99 0H180.4m135.99 0v1H180.4v-1"/>
    <path d="M316.39 331.52v1H180.4v-1m135.99 1H180.4m135.99 0H180.4m135.99 0H180.4m135.99 0H180.4m135.99 0H180.4m135.99 0H180.4m135.99 0H180.4m135.99 0v1H180.4v-1m135.99 1H180.4m135.99 0H180.4m135.99 0H180.4m135.99 0H180.4m135.99 0H180.4m135.99 0H180.4m135.99 0H180.4m135.99 0v1H180.4v-1m135.99 1H180.4m135.99 0H180.4m135.99 0H180.4m135.99 0H180.4m135.99 0H180.4m135.99 0H180.4m135.99 0H180.4m135.99 0v1H180.4v-1"/>
    <path d="M316.39 334.52v1H180.4v-1m135.99 1H180.4m135.99 0H180.4m135.99 0H180.4m135.99 0H180.4m135.99 0H180.4m135.99 0H180.4m135.99 0v1H180.4v-1"/>
    <path d="M316.39 335.52v1H180.4v-1m135.99 1H180.4m135.99 0H180.4m135.99 0H180.4m135.99 0H180.4m135.99 0H180.4m135.99 0H180.4m135.99 0H180.4m135.99 0v1H180.4v-1m135.99 1H180.4m135.99 0H180.4m135.99 0H180.4m135.99 0H180.4m135.99 0H180.4m135.99 0H180.4m135.99 0H180.4m135.99 0v1H180.4v-1"/>
    <path d="M316.39 337.52v1H180.4v-1m135.99 1H180.4m135.99 0H180.4m135.99 0H180.4m135.99 0H180.4m135.99 0H180.4m135.99 0H180.4m135.99 0v1H180.4v-1"/>
    <path d="M316.39 338.52v1H180.4v-1m135.99 1H180.4"/>
  </g>
  <path d="M170.4 271.52h61.29c4.84 0 8.71 6.68 8.71 15.16v5.84h-1v-2.13c0-8.49-4.19-15.87-9-15.87h-60v-3z" fill="#af1f24" fill-rule="evenodd"/>
  <path d="M167.4 279.52h61.82c4.69 0 8.56 6 8.79 15h-1.69c-1.1-7-4.46-11-8.42-11h-60.5v-4z" fill="#af1f24" fill-rule="evenodd"/>
  <path d="M165.4 287.52h61.36c3.3 0 6.19 3 7.69 8h-3c-1.58-3-3.72-4-6.06-4H165.4v-4zm149-17h-61.64c-4.84 0-8.36 7.42-8.36 15.91v6.09h1v-2.38c0-8.49 3.84-15.62 8.68-15.62h60.32v-4z" fill="#af1f24" fill-rule="evenodd"/>
  <path d="M316.4 279.52h-61.18c-4.69 0-8.56 6-8.79 14h1.69c1.1-6 4.47-11 8.42-11h59.86v-3z" fill="#af1f24" fill-rule="evenodd"/>
  <path d="M319.4 287.52h-61.72c-3.3 0-6.19 3-7.69 8h3c1.58-3 3.72-4 6.06-4h60.35v-4zM153.53 261l170.31-.31 1.43-.12 1.24-.25 1.06-.44 1.01-.48 2.07-.98 1.25-.37.49-.17.98-.1 1-.05.96.08.91.19.88.28.78.39.77.51.68.55.66.65.59.67.53.78.5.77.41.92.69 1.84.41 1.98.11.99.07.98-.02 1.03-.08.98-.15 1.02-.23.92-.62 1.83-1 1.49-1.23 1.4-.64.73-.79.52-1.85.76-1.73.42-1.62.12-1.49-.02-1.42-.05-1.29-.08-1.21.04-1.05.19-.5.19-.47.26-.65.36-.6.18-.52.03-.41-.13-.39-.23-.28-.36-.22-.42-.15-.49-.08-.58.02-.59.26-1.17.21-.53.32-.53.38-.44.46-.42 1.48-.74 1.47-.39 1.45-.15 1.45.06 2.89.1 1.46-.05.52-.03.94-.24.98-.39.81-.48.58-.62.45-.74.34-.72.15-.84.1-.84-.06-.82-.19-1.06-.35-1-.46-.93-.64-.83-.74-.66-.94-.48-1.08-.28-.59-.05-.65.01-1.11.22-1.01.38-1.95.94-1.09.52-4.42-.05-170.75.13.21-4.71m91.07-6.89h.1zm-1.37-.3h.19zm-4.46-1.56l.32.15zm-.39-.18l.31.15zm-36.56-59.25c-4.07 4.05-6.73 8.87-6.62 14.6.34 19 50.5 23.08 42.77 44.45 18.47-14 4.6-26.75-12.11-37.69-9.83-6.44-18.88-14.72-23.53-21.55z" fill="#af1f24" fill-rule="evenodd"/>
  <g clip-path="url(#b)" fill="#af1f24" fill-rule="evenodd">
    <path d="M256.39 192.52H195.4m60.99 0H195.4m60.99 0v1H195.4v-1"/>
    <path d="M256.39 192.52v1H195.4v-1m60.99 1H195.4m60.99 0H195.4m60.99 0v1H195.4v-1m60.99 1H195.4m60.99 0H195.4m60.99 0v1H195.4v-1"/>
    <path d="M256.39 194.52v1H195.4v-1m60.99 1H195.4m60.99 0H195.4m60.99 0v1H195.4v-1"/>
    <path d="M256.39 195.52v1H195.4v-1m60.99 1H195.4m60.99 0H195.4m60.99 0v1H195.4v-1m60.99 1H195.4m60.99 0H195.4m60.99 0H195.4m60.99 0v1H195.4v-1m60.99 1H195.4m60.99 0H195.4m60.99 0v1H195.4v-1"/>
    <path d="M256.39 198.52v1H195.4v-1m60.99 1H195.4m60.99 0H195.4m60.99 0v1H195.4v-1"/>
    <path d="M256.39 199.52v1H195.4v-1m60.99 1H195.4m60.99 0H195.4m60.99 0v1H195.4v-1m60.99 1H195.4m60.99 0H195.4m60.99 0v1H195.4v-1"/>
    <path d="M256.39 201.52v1H195.4v-1m60.99 1H195.4m60.99 0H195.4m60.99 0v1H195.4v-1"/>
    <path d="M256.39 202.52v1H195.4v-1m60.99 1H195.4m60.99 0H195.4m60.99 0v1H195.4v-1m60.99 1H195.4m60.99 0H195.4m60.99 0H195.4m60.99 0v1H195.4v-1m60.99 1H195.4m60.99 0H195.4m60.99 0v1H195.4v-1"/>
    <path d="M256.39 205.52v1H195.4v-1m60.99 1H195.4m60.99 0H195.4m60.99 0v1H195.4v-1"/>
    <path d="M256.39 206.52v1H195.4v-1m60.99 1H195.4m60.99 0H195.4m60.99 0v1H195.4v-1m60.99 1H195.4m60.99 0H195.4m60.99 0v1H195.4v-1"/>
    <path d="M256.39 208.52v1H195.4v-1m60.99 1H195.4m60.99 0H195.4m60.99 0v1H195.4v-1"/>
    <path d="M256.39 209.52v1H195.4v-1m60.99 1H195.4m60.99 0H195.4m60.99 0v1H195.4v-1m60.99 1H195.4m60.99 0H195.4m60.99 0H195.4m60.99 0v1H195.4v-1m60.99 1H195.4m60.99 0H195.4m60.99 0v1H195.4v-1"/>
    <path d="M256.39 212.52v1H195.4v-1m60.99 1H195.4m60.99 0H195.4m60.99 0v1H195.4v-1m60.99 1H195.4m60.99 0H195.4m60.99 0H195.4m60.99 0v1H195.4v-1m60.99 1H195.4m60.99 0H195.4m60.99 0v1H195.4v-1"/>
    <path d="M256.39 215.52v1H195.4v-1m60.99 1H195.4m60.99 0H195.4m60.99 0v1H195.4v-1"/>
    <path d="M256.39 216.52v1H195.4v-1m60.99 1H195.4m60.99 0H195.4m60.99 0v1H195.4v-1m60.99 1H195.4m60.99 0H195.4m60.99 0H195.4m60.99 0v1H195.4v-1m60.99 1H195.4m60.99 0H195.4m60.99 0v1H195.4v-1"/>
    <path d="M256.39 219.52v1H195.4v-1m60.99 1H195.4m60.99 0H195.4m60.99 0v1H195.4v-1m60.99 1H195.4m60.99 0H195.4m60.99 0H195.4m60.99 0v1H195.4v-1m60.99 1H195.4m60.99 0H195.4m60.99 0v1H195.4v-1"/>
    <path d="M256.39 222.52v1H195.4v-1m60.99 1H195.4m60.99 0H195.4m60.99 0v1H195.4v-1"/>
    <path d="M256.39 223.52v1H195.4v-1m60.99 1H195.4m60.99 0H195.4m60.99 0v1H195.4v-1m60.99 1H195.4m60.99 0H195.4m60.99 0v1H195.4v-1"/>
    <path d="M256.39 225.52v1H195.4v-1m60.99 1H195.4m60.99 0H195.4m60.99 0v1H195.4v-1"/>
    <path d="M256.39 226.52v1H195.4v-1m60.99 1H195.4m60.99 0H195.4m60.99 0v1H195.4v-1m60.99 1H195.4m60.99 0H195.4m60.99 0H195.4m60.99 0v1H195.4v-1m60.99 1H195.4m60.99 0H195.4m60.99 0v1H195.4v-1"/>
    <path d="M256.39 229.52v1H195.4v-1m60.99 1H195.4m60.99 0H195.4m60.99 0v1H195.4v-1"/>
    <path d="M256.39 230.52v1H195.4v-1m60.99 1H195.4m60.99 0H195.4m60.99 0v1H195.4v-1m60.99 1H195.4m60.99 0H195.4m60.99 0v1H195.4v-1"/>
    <path d="M256.39 232.52v1H195.4v-1m60.99 1H195.4m60.99 0H195.4m60.99 0v1H195.4v-1"/>
    <path d="M256.39 233.52v1H195.4v-1m60.99 1H195.4m60.99 0H195.4m60.99 0v1H195.4v-1m60.99 1H195.4m60.99 0H195.4m60.99 0H195.4m60.99 0v1H195.4v-1m60.99 1H195.4m60.99 0H195.4m60.99 0v1H195.4v-1"/>
    <path d="M256.39 236.52v1H195.4v-1m60.99 1H195.4m60.99 0H195.4m60.99 0v1H195.4v-1m60.99 1H195.4m60.99 0H195.4m60.99 0H195.4m60.99 0v1H195.4v-1m60.99 1H195.4m60.99 0H195.4m60.99 0v1H195.4v-1"/>
    <path d="M256.39 239.52v1H195.4v-1m60.99 1H195.4m60.99 0H195.4m60.99 0v1H195.4v-1"/>
    <path d="M256.39 240.52v1H195.4v-1m60.99 1H195.4m60.99 0H195.4m60.99 0v1H195.4v-1m60.99 1H195.4m60.99 0H195.4m60.99 0H195.4m60.99 0v1H195.4v-1m60.99 1H195.4m60.99 0H195.4m60.99 0v1H195.4v-1"/>
    <path d="M256.39 243.52v1H195.4v-1m60.99 1H195.4m60.99 0H195.4m60.99 0v1H195.4v-1m60.99 1H195.4m60.99 0H195.4m60.99 0H195.4m60.99 0v1H195.4v-1m60.99 1H195.4m60.99 0H195.4m60.99 0v1H195.4v-1"/>
    <path d="M256.39 246.52v1H195.4v-1m60.99 1H195.4m60.99 0H195.4m60.99 0v1H195.4v-1"/>
    <path d="M256.39 247.52v1H195.4v-1m60.99 1H195.4m60.99 0H195.4m60.99 0v1H195.4v-1m60.99 1H195.4m60.99 0H195.4m60.99 0v1H195.4v-1"/>
    <path d="M256.39 249.52v1H195.4v-1m60.99 1H195.4m60.99 0H195.4m60.99 0v1H195.4v-1"/>
    <path d="M256.39 250.52v1H195.4v-1m60.99 1H195.4m60.99 0H195.4m60.99 0v1H195.4v-1m60.99 1H195.4m60.99 0H195.4m60.99 0H195.4m60.99 0v1H195.4v-1m60.99 1H195.4m60.99 0H195.4m60.99 0v1H195.4v-1"/>
    <path d="M256.39 253.52v1H195.4v-1"/>
  </g>
  <path d="M259.56 140.39c-20.75 4.77-52.85 14.44-57.17 37.32-3.39 17.93 27 31.86 41.35 46.52 8.56 8.76 10.35 18.41-2 27.9 25.7 6.22 61.71-14.65 41.18-44-10.77-15.4-35.8-23.52-39.75-37.08-5.1-17.55 13.14-25 16.4-30.64" fill="#af1f24" fill-rule="evenodd"/>
  <g clip-path="url(#c)" fill="#af1f24" fill-rule="evenodd">
    <path d="M313.96 148.24v-.05l-107.53-15.51-.01.05"/>
    <path d="M313.99 147.94l-.08.74-107.54-15.51.09-.74"/>
    <path d="M313.94 148.43l-.09.74-107.54-15.5.09-.74"/>
    <path d="M313.88 148.93l-.09.74-107.54-15.51.09-.74"/>
    <path d="M313.82 149.42l-.09.74-107.54-15.51.09-.74"/>
    <path d="M313.76 149.91l-.09.74-107.53-15.5.08-.74"/>
    <path d="M313.7 150.41l-.08.74-107.54-15.51.08-.74"/>
    <path d="M313.64 150.9l-.08.74-107.54-15.51.09-.73"/>
    <path d="M313.59 151.39l-.09.74-107.54-15.5.09-.74"/>
    <path d="M313.53 151.89l-.09.74-107.54-15.51.09-.74"/>
    <path d="M313.47 152.38l-.09.74-107.54-15.5.09-.74"/>
    <path d="M313.41 152.87l-.09.74-107.53-15.5.08-.74"/>
    <path d="M313.35 153.37l-.08.74-107.54-15.51.08-.74"/>
    <path d="M313.3 153.86l-.09.74-107.54-15.51.09-.74"/>
    <path d="M313.24 154.35l-.09.74-107.54-15.5.09-.74"/>
    <path d="M313.18 154.85l-.09.74-107.54-15.51.09-.74"/>
    <path d="M313.12 155.34l-.09.74-107.53-15.51.08-.73"/>
    <path d="M313.06 155.83l-.08.74-107.54-15.5.09-.74"/>
    <path d="M313 156.33l-.08.74-107.54-15.51.09-.74"/>
    <path d="M312.95 156.82l-.09.74-107.54-15.5.09-.75"/>
    <path d="M312.89 157.31l-.09.74-107.54-15.5.09-.74"/>
    <path d="M312.83 157.81l-.09.74-107.54-15.51.09-.74"/>
    <path d="M312.77 158.3l-.08.74-107.54-15.51.08-.73"/>
    <path d="M312.71 158.79l-.08.74-107.54-15.5.09-.74"/>
    <path d="M312.66 159.29l-.09.74-107.54-15.51.09-.74"/>
    <path d="M312.6 159.78l-.09.74-107.54-15.5.09-.74"/>
    <path d="M312.54 160.28l-.09.73-107.54-15.5.09-.74"/>
    <path d="M312.48 160.77l-.09.74L204.85 146l.09-.74"/>
    <path d="M312.42 161.26l-.09.74-107.53-15.5.08-.74"/>
    <path d="M312.37 161.75l-.09.75-107.54-15.51.09-.74"/>
    <path d="M312.31 162.25l-.09.74-107.54-15.51.09-.74"/>
    <path d="M312.25 162.74l-.09.74-107.54-15.5.09-.74"/>
    <path d="M312.19 163.24l-.09.73-107.54-15.5.09-.74"/>
    <path d="M312.13 163.73l-.09.74-107.54-15.51.09-.74"/>
    <path d="M312.07 164.22l-.08.74-107.54-15.5.08-.74"/>
    <path d="M312.01 164.72l-.08.74-107.54-15.51.09-.74"/>
    <path d="M311.96 165.21l-.09.74-107.54-15.51.09-.74"/>
    <path d="M311.9 165.7l-.09.74-107.54-15.5.09-.74"/>
    <path d="M311.84 166.19l-.09.75-107.53-15.51.08-.74"/>
    <path d="M311.78 166.69l-.09.74-107.53-15.51.08-.74"/>
    <path d="M311.72 167.18l-.08.74-107.54-15.5.09-.74"/>
    <path d="M311.67 167.68l-.09.74-107.54-15.51.09-.74"/>
    <path d="M311.61 168.17l-.09.74-107.54-15.51.09-.74"/>
    <path d="M311.55 168.66l-.09.74-107.54-15.5.09-.74"/>
    <path d="M311.49 169.16l-.09.74-107.53-15.51.08-.74"/>
    <path d="M311.43 169.65l-.08.74-107.54-15.51.08-.74"/>
    <path d="M311.38 170.14l-.09.74-107.54-15.5.09-.74"/>
    <path d="M311.32 170.64l-.09.74-107.54-15.51.09-.74"/>
    <path d="M311.26 171.13l-.09.74-107.54-15.5.09-.74"/>
    <path d="M311.2 171.62l-.09.74-107.54-15.5.09-.74"/>
    <path d="M311.14 172.12l-.08.74-107.54-15.51.08-.74"/>
    <path d="M311.08 172.61l-.08.74-107.54-15.51.08-.74"/>
    <path d="M311.03 173.1l-.09.74-107.54-15.5.09-.74"/>
    <path d="M310.97 173.6l-.09.74-107.54-15.51.09-.74"/>
    <path d="M310.91 174.09l-.09.74-107.54-15.51.09-.73"/>
    <path d="M310.85 174.58l-.09.74-107.54-15.5.09-.74"/>
    <path d="M310.79 175.08l-.09.74-107.53-15.51.08-.74"/>
    <path d="M310.74 175.57l-.09.74-107.54-15.5.09-.75"/>
    <path d="M310.68 176.06l-.09.74-107.54-15.5.09-.74"/>
    <path d="M310.62 176.56l-.09.74-107.54-15.51.09-.74"/>
    <path d="M310.56 177.05l-.09.74-107.54-15.51.09-.74"/>
    <path d="M310.5 177.54l-.08.74-107.54-15.5.08-.74"/>
    <path d="M310.44 178.04l-.08.74-107.54-15.51.09-.74"/>
    <path d="M310.38 178.53l-.08.74-107.54-15.5.09-.74"/>
    <path d="M310.33 179.02l-.09.74-107.54-15.5.09-.74"/>
    <path d="M310.27 179.52l-.09.74-107.54-15.51.09-.74"/>
    <path d="M310.21 180.01l-.09.74-107.53-15.5.08-.74"/>
    <path d="M310.15 180.5l-.09.74-107.53-15.5.08-.74"/>
    <path d="M310.09 181l-.08.74-107.54-15.51.09-.74"/>
    <path d="M310.04 181.49l-.09.74-107.54-15.5.09-.74"/>
    <path d="M309.98 181.98l-.09.74-107.54-15.5.09-.74"/>
    <path d="M309.92 182.48l-.09.74-107.54-15.51.09-.74"/>
    <path d="M309.86 182.97l-.09.74-107.53-15.5.08-.74"/>
    <path d="M309.8 183.46l-.08.75-107.54-15.51.08-.74"/>
    <path d="M309.75 183.96l-.09.74-107.54-15.51.09-.74"/>
    <path d="M309.69 184.45l-.09.74-107.54-15.5.09-.74"/>
    <path d="M309.63 184.94l-.09.75L202 170.18l.09-.74"/>
    <path d="M309.57 185.44l-.09.74-107.54-15.51.09-.74"/>
    <path d="M309.51 185.93l-.08.74-107.54-15.5.08-.74"/>
    <path d="M309.45 186.43l-.08.73-107.54-15.5.08-.74"/>
    <path d="M309.4 186.92l-.09.74-107.54-15.51.09-.74"/>
    <path d="M309.34 187.41l-.09.74-107.54-15.5.09-.74"/>
    <path d="M309.28 187.91l-.09.74-107.54-15.51.09-.74"/>
    <path d="M309.22 188.4l-.09.74-107.54-15.51.09-.74"/>
    <path d="M309.16 188.89l-.08.74-107.54-15.5.08-.74"/>
    <path d="M309.11 189.38l-.09.75-107.54-15.51.09-.74"/>
    <path d="M309.05 189.88l-.09.74-107.54-15.51.09-.74"/>
    <path d="M308.99 190.37l-.09.74-107.54-15.5.09-.74"/>
    <path d="M308.93 190.87l-.09.73-107.54-15.5.09-.74"/>
    <path d="M308.87 191.36l-.08.74-107.54-15.51.08-.74"/>
    <path d="M308.81 191.85l-.08.74-107.54-15.5.09-.74"/>
    <path d="M308.75 192.34l-.08.75-107.54-15.51.09-.74"/>
    <path d="M308.7 192.84l-.09.74-107.54-15.51.09-.74"/>
    <path d="M308.64 193.33l-.09.74-107.54-15.5.09-.74"/>
    <path d="M308.58 193.83l-.09.74-107.54-15.51.09-.74"/>
    <path d="M308.52 194.32l-.08.74-107.54-15.5.08-.75"/>
    <path d="M308.46 194.81l-.08.74-107.54-15.5.09-.74"/>
    <path d="M308.41 195.31l-.09.74-107.54-15.51.09-.74"/>
    <path d="M308.35 195.8l-.09.74-107.54-15.51.09-.74"/>
    <path d="M308.29 196.29l-.09.74-107.54-15.5.09-.74"/>
    <path d="M308.23 196.79l-.09.74-107.53-15.51.08-.74"/>
    <path d="M308.17 197.28l-.08.74-107.54-15.51.08-.73"/>
    <path d="M308.12 197.77l-.09.74-107.54-15.5.09-.74"/>
    <path d="M308.06 198.27l-.09.74-107.54-15.51.09-.74"/>
    <path d="M308 198.76l-.09.74L200.37 184l.09-.75"/>
    <path d="M307.94 199.25l-.09.74-107.54-15.5.09-.74"/>
    <path d="M307.88 199.75l-.08.74-107.54-15.51.08-.74"/>
    <path d="M307.82 200.24l-.08.74-107.54-15.51.08-.73"/>
    <path d="M307.77 200.73l-.09.74-107.54-15.5.09-.74"/>
    <path d="M307.71 201.23l-.09.74-107.54-15.51.09-.74"/>
    <path d="M307.65 201.72l-.09.74-107.54-15.5.09-.74"/>
    <path d="M307.59 202.21l-.09.74-107.53-15.5.08-.74"/>
    <path d="M307.53 202.71l-.08.74-107.54-15.51.09-.74"/>
    <path d="M307.48 203.2l-.09.74-107.54-15.5.09-.75"/>
    <path d="M307.42 203.69l-.09.74-107.54-15.5.09-.74"/>
    <path d="M307.36 204.19l-.09.74-107.54-15.51.09-.74"/>
    <path d="M307.3 204.68l-.09.74-107.54-15.5.09-.74"/>
    <path d="M307.24 205.18l-.09.73-107.53-15.5.08-.74"/>
    <path d="M307.18 205.67l-.08.74-107.54-15.51.09-.74"/>
    <path d="M307.13 206.16l-.09.74-107.54-15.5.09-.74"/>
    <path d="M307.07 206.66l-.09.74-107.54-15.51.09-.74"/>
    <path d="M307.01 207.15l-.09.74-107.54-15.51.09-.74"/>
    <path d="M306.95 207.64l-.09.74-107.54-15.5.09-.74"/>
    <path d="M306.89 208.13l-.08.75-107.54-15.51.08-.74"/>
    <path d="M306.83 208.63l-.08.74-107.54-15.51.09-.74"/>
    <path d="M306.78 209.12l-.09.74-107.54-15.5.09-.74"/>
    <path d="M306.72 209.62l-.09.73-107.54-15.5.09-.74"/>
    <path d="M306.66 210.11l-.09.74-107.54-15.51.09-.74"/>
    <path d="M306.6 210.6l-.09.74-107.54-15.5.09-.74"/>
    <path d="M306.54 211.09l-.08.75-107.54-15.51.08-.74"/>
    <path d="M306.49 211.59l-.09.74-107.54-15.51.09-.74"/>
    <path d="M306.43 212.08l-.09.74-107.54-15.5.09-.74"/>
    <path d="M306.37 212.58l-.09.74-107.54-15.51.09-.74"/>
    <path d="M306.31 213.07l-.09.74-107.54-15.51.09-.74"/>
    <path d="M306.25 213.56l-.08.74-107.54-15.5.08-.74"/>
    <path d="M306.19 214.06l-.08.74-107.54-15.51.09-.74"/>
    <path d="M306.14 214.55l-.09.74-107.54-15.51.09-.74"/>
    <path d="M306.08 215.04l-.09.74-107.54-15.5.09-.74"/>
    <path d="M306.02 215.54l-.09.74-107.54-15.51.09-.74"/>
    <path d="M305.96 216.03l-.09.74-107.53-15.51.08-.74"/>
    <path d="M305.9 216.52l-.09.74-107.53-15.5.08-.74"/>
    <path d="M305.85 217.02l-.09.74-107.54-15.51.09-.74"/>
    <path d="M305.79 217.51l-.09.74-107.54-15.51.09-.74"/>
    <path d="M305.73 218l-.09.74-107.54-15.5.09-.74"/>
    <path d="M305.67 218.5l-.09.74-107.54-15.51.09-.74"/>
    <path d="M305.61 218.99l-.09.74-107.53-15.51.08-.74"/>
    <path d="M305.55 219.48l-.08.74-107.54-15.5.08-.74"/>
    <path d="M305.5 219.98l-.09.74-107.54-15.51.09-.74"/>
    <path d="M305.44 220.47l-.09.74-107.54-15.51.09-.74"/>
    <path d="M305.38 220.96l-.09.74-107.54-15.5.09-.74"/>
    <path d="M305.32 221.46l-.09.74-107.54-15.51.09-.74"/>
    <path d="M305.26 221.95l-.08.74-107.54-15.5.08-.75"/>
    <path d="M305.2 222.44l-.08.74-107.54-15.5.09-.74"/>
    <path d="M305.15 222.94l-.09.74-107.54-15.51.09-.74"/>
    <path d="M305.09 223.43l-.09.74-107.54-15.51.09-.73"/>
    <path d="M305.03 223.92l-.09.74-107.54-15.5.09-.74"/>
    <path d="M304.97 224.42l-.09.74-107.53-15.51.08-.74"/>
    <path d="M304.91 224.91l-.08.74-107.54-15.5.09-.74"/>
    <path d="M304.86 225.4l-.09.74-107.54-15.5.09-.74"/>
    <path d="M304.8 225.9l-.09.74-107.54-15.51.09-.74"/>
    <path d="M304.74 226.39l-.09.74-107.54-15.5.09-.75"/>
    <path d="M304.68 226.88l-.09.74-107.53-15.5.08-.74"/>
    <path d="M304.62 227.38l-.08.74L197 212.61l.08-.74"/>
    <path d="M304.56 227.87l-.08.74-107.54-15.51.09-.73"/>
    <path d="M304.51 228.36l-.09.74-107.54-15.5.09-.74"/>
    <path d="M304.45 228.86l-.09.74-107.54-15.51.09-.74"/>
    <path d="M304.39 229.35l-.09.74-107.54-15.5.09-.74"/>
    <path d="M304.33 229.84l-.09.75-107.53-15.51.08-.74"/>
    <path d="M304.27 230.34l-.08.74-107.54-15.51.08-.74"/>
    <path d="M304.21 230.83l-.08.74-107.54-15.5.09-.74"/>
    <path d="M304.16 231.32l-.09.74-107.54-15.5.09-.74"/>
    <path d="M304.1 231.82l-.09.74-107.54-15.51.09-.74"/>
    <path d="M304.04 232.31l-.09.74-107.54-15.5.09-.74"/>
    <path d="M303.98 232.81l-.09.73-107.53-15.5.08-.74"/>
    <path d="M303.92 233.3l-.08.74-107.54-15.51.08-.74"/>
    <path d="M303.87 233.79l-.09.74-107.54-15.5.09-.74"/>
    <path d="M303.81 234.28l-.09.75-107.54-15.51.09-.74"/>
    <path d="M303.75 234.78l-.09.74-107.54-15.51.09-.74"/>
    <path d="M303.69 235.27l-.09.74-107.54-15.5.09-.74"/>
    <path d="M303.63 235.76l-.08.74L196.01 221l.08-.74"/>
    <path d="M303.57 236.26l-.08.74-107.54-15.51.09-.74"/>
    <path d="M303.52 236.75l-.09.74-107.54-15.5.09-.74"/>
    <path d="M303.46 237.25l-.09.74-107.54-15.51.09-.74"/>
    <path d="M303.4 237.74l-.09.74-107.54-15.51.09-.74"/>
    <path d="M303.34 238.23l-.09.74-107.53-15.5.08-.74"/>
    <path d="M303.28 238.73l-.08.74-107.54-15.51.09-.74"/>
    <path d="M303.23 239.22l-.09.74-107.54-15.51.09-.74"/>
    <path d="M303.17 239.71l-.09.74-107.54-15.5.09-.74"/>
    <path d="M303.11 240.21l-.09.74-107.54-15.51.09-.74"/>
    <path d="M303.05 240.7l-.09.74-107.53-15.51.08-.74"/>
    <path d="M302.99 241.19l-.08.74-107.54-15.5.08-.74"/>
    <path d="M302.93 241.69l-.08.74-107.54-15.51.09-.74"/>
    <path d="M302.88 242.18l-.09.74-107.54-15.51.09-.74"/>
    <path d="M302.82 242.67l-.09.74-107.54-15.5.09-.74"/>
    <path d="M302.76 243.17l-.09.74-107.54-15.51.09-.74"/>
    <path d="M302.7 243.66l-.09.74-107.54-15.51.09-.74"/>
    <path d="M302.64 244.15l-.08.74-107.54-15.5.08-.74"/>
    <path d="M302.58 244.65l-.08.74-107.54-15.51.09-.74"/>
    <path d="M302.53 245.14l-.09.74-107.54-15.51.09-.74"/>
    <path d="M302.47 245.63l-.09.74-107.54-15.5.09-.74"/>
    <path d="M302.41 246.13l-.09.74-107.54-15.51.09-.74"/>
    <path d="M302.35 246.62l-.09.74-107.53-15.51.08-.73"/>
    <path d="M302.29 247.11l-.08.74-107.54-15.5.08-.74"/>
    <path d="M302.24 247.61l-.09.74-107.54-15.51.09-.74"/>
    <path d="M302.18 248.1l-.09.74-107.54-15.5.09-.75"/>
    <path d="M302.12 248.59l-.09.74-107.54-15.5.09-.74"/>
    <path d="M302.06 249.09l-.09.74-107.53-15.51.08-.74"/>
    <path d="M302 249.58l-.08.74-107.54-15.51.08-.74"/>
    <path d="M301.94 250.07l-.08.74-107.54-15.5.09-.74"/>
    <path d="M301.89 250.57l-.09.74-107.54-15.51.09-.74"/>
    <path d="M301.83 251.06l-.09.74-107.54-15.51.09-.73"/>
    <path d="M301.77 251.55l-.09.74-107.54-15.5.09-.74"/>
    <path d="M301.71 252.05l-.09.74-107.53-15.51.08-.74"/>
    <path d="M301.65 252.54l-.08.74-107.54-15.5.09-.75"/>
    <path d="M301.6 253.03l-.09.74-107.54-15.5.09-.74"/>
    <path d="M301.54 253.53l-.09.74-107.54-15.51.09-.74"/>
    <path d="M301.48 254.02l-.09.74-107.54-15.5.09-.74"/>
    <path d="M301.42 254.51l-.09.74-107.54-15.5.09-.74"/>
    <path d="M301.36 255.01l-.09.74-107.53-15.51.08-.74"/>
    <path d="M301.31 255.5l-.09.74-107.54-15.5.09-.74"/>
    <path d="M301.25 256l-.09.74-107.54-15.51.09-.74"/>
    <path d="M301.19 256.49l-.09.74-107.54-15.51.09-.74"/>
    <path d="M301.13 256.98l-.09.74-107.54-15.5.09-.74"/>
    <path d="M301.07 257.48l-.09.73-107.54-15.5.09-.74"/>
    <path d="M301.01 257.97l-.08.74-107.54-15.51.08-.74"/>
    <path d="M300.95 258.46l-.08.74-107.54-15.5.09-.74"/>
    <path d="M300.9 258.95l-.09.74-107.54-15.5.09-.74"/>
    <path d="M300.84 259.45l-.09.74-107.54-15.51.09-.74"/>
    <path d="M300.78 259.94l-.09.74-107.54-15.5.09-.74"/>
    <path d="M300.72 260.44l-.09.74-107.53-15.51.08-.74"/>
    <path d="M300.66 260.93l-.08.74-107.54-15.51.09-.74"/>
    <path d="M300.61 261.42l-.09.74-107.54-15.5.09-.74"/>
    <path d="M300.55 261.92l-.09.74-107.54-15.51.09-.74"/>
    <path d="M300.49 262.41l-.09.74-107.54-15.51.09-.74"/>
    <path d="M300.43 262.9l-.02.21-107.54-15.5.02-.21"/>
  </g>
</svg>
