<svg xmlns="http://www.w3.org/2000/svg" width="190" height="207.09" viewBox="0 0 190 207.09">
  <defs>
    <clipPath id="a" transform="translate(0 7.96)">
      <path fill="#af1f24" d="M143.08 172.13h20v5h-6v21h-7v-21h-7v-5zm-30.74 0h8.46l10 26h-7.5l-1.87-6h-10.17l-2 6h-6.94zm4.09 5.14l-3.4 9.86h6.7zm-45.11-5.14h8.46l10 26h-7.5l-1.87-6H70.23l-2 6h-6.9zm4.09 5.14L72 187.13h6.7zM45 172.19l-.52 5.43a18.29 18.29 0 0 0-3.09-1 12.76 12.76 0 0 0-2.87-.34 6.81 6.81 0 0 0-3.32.68 2.06 2.06 0 0 0-1.2 1.82 2 2 0 0 0 .61 1.45 4.55 4.55 0 0 0 1.83 1l1.16.37a23.15 23.15 0 0 1 6 2.58 6.66 6.66 0 0 1 2 2.45 7.47 7.47 0 0 1 .65 3.23 8 8 0 0 1-2.89 6.63Q40.5 198.8 35 198.8a29 29 0 0 1-7.91-1.11l.59-5.86a21.28 21.28 0 0 0 3.59 1.27 13.7 13.7 0 0 0 3.3.44 6 6 0 0 0 3.27-.78 2.39 2.39 0 0 0 1.2-2.11q0-1.65-3.84-3c-.62-.21-1.09-.37-1.42-.5a13.19 13.19 0 0 1-5.35-3.15 6.57 6.57 0 0 1-1.61-4.57 7.16 7.16 0 0 1 2.83-6.09q2.83-2.13 8.12-2.13a28.65 28.65 0 0 1 3.74.23 22.56 22.56 0 0 1 3.49.75z" clip-rule="evenodd"/>
    </clipPath>
    <clipPath id="b" transform="translate(0 7.96)">
      <path fill="#af1f24" d="M91.27 113.72h.1zm-1.37-.3h.19zm-4.46-1.56l.33.14zm-.39-.18l.31.15zM48.49 52.43c-4.07 4.05-6.73 8.87-6.62 14.6.34 19 50.5 23.08 42.77 44.45 18.47-14 4.6-26.75-12.11-37.69C62.69 67.35 53.65 59.06 49 52.23z" clip-rule="evenodd"/>
    </clipPath>
    <clipPath id="c" transform="translate(0 7.96)">
      <path fill="#af1f24" d="M106.23 0C85.48 4.77 53.38 14.44 49.06 37.32c-3.39 17.93 27 31.86 41.35 46.52 8.56 8.76 10.35 18.41-2 27.9 25.7 6.22 61.71-14.65 41.18-44-10.77-15.4-35.8-23.52-39.75-37.08C84.73 13.09 103 5.63 106.23 0" clip-rule="evenodd"/>
    </clipPath>
  </defs>
  <path fill="#af1f24" fill-rule="evenodd" d="M143.08 180.09h20v5h-6v21h-7v-21h-7v-5zm-30.74 0h8.46l10 26h-7.5l-1.87-6h-10.17l-2 6h-6.94zm4.09 5.14l-3.4 9.86h6.7zm-45.11-5.14h8.46l10 26h-7.5l-1.87-6H70.23l-2 6h-6.9zm4.09 5.14L72 195.09h6.7zM45 180.15l-.52 5.43a18.29 18.29 0 0 0-3.09-1 12.76 12.76 0 0 0-2.87-.34 6.81 6.81 0 0 0-3.32.68 2.06 2.06 0 0 0-1.2 1.82 2 2 0 0 0 .61 1.45 4.55 4.55 0 0 0 1.83 1l1.16.37a23.15 23.15 0 0 1 6 2.58 6.66 6.66 0 0 1 2 2.45 7.47 7.47 0 0 1 .65 3.23 8 8 0 0 1-2.89 6.63q-2.86 2.31-8.36 2.31a29 29 0 0 1-7.91-1.11l.59-5.86a21.28 21.28 0 0 0 3.59 1.27 13.7 13.7 0 0 0 3.3.44 6 6 0 0 0 3.27-.78 2.39 2.39 0 0 0 1.2-2.11q0-1.65-3.84-3c-.62-.21-1.09-.37-1.42-.5a13.19 13.19 0 0 1-5.35-3.15 6.57 6.57 0 0 1-1.61-4.57 7.16 7.16 0 0 1 2.83-6.09q2.83-2.13 8.12-2.13a28.65 28.65 0 0 1 3.74.23 22.56 22.56 0 0 1 3.49.75z"/>
  <g fill="#af1f24" fill-rule="evenodd" clip-path="url(#a)">
    <path d="M163.07 179.09h-136m136 0h-136m136 0h-136m136 0h-136m136 0v1h-136v-1m136 1h-136m136 0h-136m136 0h-136m136 0h-136m136 0h-136m136 0h-136m136 0h-136m136 0v1h-136v-1"/>
    <path d="M163.07 180.09v1h-136v-1m136 1h-136m136 0h-136m136 0h-136m136 0h-136m136 0h-136m136 0h-136m136 0v1h-136v-1"/>
    <path d="M163.07 181.09v1h-136v-1m136 1h-136m136 0h-136m136 0h-136m136 0h-136m136 0h-136m136 0h-136m136 0h-136m136 0v1h-136v-1m136 1h-136m136 0h-136m136 0h-136m136 0h-136m136 0h-136m136 0h-136m136 0h-136m136 0v1h-136v-1m136 1h-136m136 0h-136m136 0h-136m136 0h-136m136 0h-136m136 0h-136m136 0h-136m136 0v1h-136v-1"/>
    <path d="M163.07 184.09v1h-136v-1m136 1h-136m136 0h-136m136 0h-136m136 0h-136m136 0h-136m136 0h-136m136 0v1h-136v-1"/>
    <path d="M163.07 185.09v1h-136v-1m136 1h-136m136 0h-136m136 0h-136m136 0h-136m136 0h-136m136 0h-136m136 0h-136m136 0v1h-136v-1m136 1h-136m136 0h-136m136 0h-136m136 0h-136m136 0h-136m136 0h-136m136 0h-136m136 0v1h-136v-1"/>
    <path d="M163.07 187.09v1h-136v-1m136 1h-136m136 0h-136m136 0h-136m136 0h-136m136 0h-136m136 0h-136m136 0v1h-136v-1"/>
    <path d="M163.07 188.09v1h-136v-1m136 1h-136m136 0h-136m136 0h-136m136 0h-136m136 0h-136m136 0h-136m136 0h-136m136 0v1h-136v-1m136 1h-136m136 0h-136m136 0h-136m136 0h-136m136 0h-136m136 0h-136m136 0h-136m136 0v1h-136v-1m136 1h-136m136 0h-136m136 0h-136m136 0h-136m136 0h-136m136 0h-136m136 0h-136m136 0v1h-136v-1"/>
    <path d="M163.07 191.09v1h-136v-1m136 1h-136m136 0h-136m136 0h-136m136 0h-136m136 0h-136m136 0h-136m136 0v1h-136v-1"/>
    <path d="M163.07 192.09v1h-136v-1m136 1h-136m136 0h-136m136 0h-136m136 0h-136m136 0h-136m136 0h-136m136 0h-136m136 0v1h-136v-1m136 1h-136m136 0h-136m136 0h-136m136 0h-136m136 0h-136m136 0h-136m136 0h-136m136 0v1h-136v-1m136 1h-136m136 0h-136m136 0h-136m136 0h-136m136 0h-136m136 0h-136m136 0h-136m136 0v1h-136v-1"/>
    <path d="M163.07 195.09v1h-136v-1m136 1h-136m136 0h-136m136 0h-136m136 0h-136m136 0h-136m136 0h-136m136 0h-136m136 0v1h-136v-1m136 1h-136m136 0h-136m136 0h-136m136 0h-136m136 0h-136m136 0h-136m136 0h-136m136 0v1h-136v-1m136 1h-136m136 0h-136m136 0h-136m136 0h-136m136 0h-136m136 0h-136m136 0h-136m136 0v1h-136v-1"/>
    <path d="M163.07 198.09v1h-136v-1m136 1h-136m136 0h-136m136 0h-136m136 0h-136m136 0h-136m136 0h-136m136 0v1h-136v-1"/>
    <path d="M163.07 199.09v1h-136v-1m136 1h-136m136 0h-136m136 0h-136m136 0h-136m136 0h-136m136 0h-136m136 0h-136m136 0v1h-136v-1m136 1h-136m136 0h-136m136 0h-136m136 0h-136m136 0h-136m136 0h-136m136 0h-136m136 0v1h-136v-1m136 1h-136m136 0h-136m136 0h-136m136 0h-136m136 0h-136m136 0h-136m136 0h-136m136 0v1h-136v-1"/>
    <path d="M163.07 202.09v1h-136v-1m136 1h-136m136 0h-136m136 0h-136m136 0h-136m136 0h-136m136 0h-136m136 0v1h-136v-1"/>
    <path d="M163.07 203.09v1h-136v-1m136 1h-136m136 0h-136m136 0h-136m136 0h-136m136 0h-136m136 0h-136m136 0h-136m136 0v1h-136v-1m136 1h-136m136 0h-136m136 0h-136m136 0h-136m136 0h-136m136 0h-136m136 0h-136m136 0v1h-136v-1"/>
    <path d="M163.07 205.09v1h-136v-1m136 1h-136m136 0h-136m136 0h-136m136 0h-136m136 0h-136m136 0h-136m136 0v1h-136v-1"/>
    <path d="M163.07 206.09v1h-136v-1m136 1h-136"/>
  </g>
  <path fill="#af1f24" fill-rule="evenodd" d="M17.08 139.09h61.28c4.84 0 8.71 6.68 8.71 15.16v5.84h-1v-2.13c0-8.49-4.19-15.87-9-15.87h-60v-3z"/>
  <path fill="#af1f24" fill-rule="evenodd" d="M14.08 147.09H75.9c4.69 0 8.56 6 8.79 15H83c-1.1-7-4.46-11-8.42-11h-60.5v-4z"/>
  <path fill="#af1f24" fill-rule="evenodd" d="M12.08 155.09h61.36c3.3 0 6.19 3 7.69 8h-3c-1.58-3-3.72-4-6.06-4h-60v-4zm149-17H99.43c-4.84 0-8.36 7.42-8.36 15.91v6.09h1v-2.38c0-8.49 3.84-15.62 8.68-15.62h60.32v-4z"/>
  <path fill="#af1f24" fill-rule="evenodd" d="M163.08 147.09h-61.19c-4.69 0-8.56 6-8.79 14h1.69c1.1-6 4.47-11 8.42-11h59.86v-3z"/>
  <path fill="#af1f24" fill-rule="evenodd" d="M166.08 155.09h-61.72c-3.3 0-6.19 3-7.69 8h3c1.58-3 3.72-4 6.06-4h60.4v-4zM.21 128.56l170.31-.31 1.43-.12 1.24-.24 1.06-.44 1.01-.48 2.07-.99 1.25-.36.49-.17.97-.11 1.01-.04.96.07.91.19.88.29.78.38.77.51.68.56.66.65.59.67.53.78.5.77.41.92.69 1.84.41 1.98.11.99.07.98-.02 1.03-.08.98-.15 1.01-.23.92-.62 1.84-1 1.48-1.23 1.41-.64.72-.79.52-1.85.77-1.73.42-1.62.11-1.49-.01-1.42-.06-1.29-.07-1.21.04-1.05.19-.5.19-.48.26-.64.36-.6.17-.52.04-.41-.14-.39-.23-.28-.36-.22-.41-.15-.49-.08-.58.03-.59.25-1.18.21-.52.32-.54.38-.43.46-.42 1.48-.74 1.47-.4 1.45-.15 1.45.07 2.89.1 1.46-.05.52-.04.94-.24.98-.39.81-.48.59-.62.44-.73.34-.72.16-.85.09-.83-.06-.82-.19-1.07-.35-.99-.46-.93-.64-.83-.74-.66-.94-.48-1.08-.29-.59-.04-.65.01-1.11.22-1.01.38-1.95.94-1.09.52-4.42-.06L0 133.27l.21-4.71m91.06-6.88h.1zm-1.37-.3h.19zm-4.46-1.56l.33.14zm-.39-.18l.31.15zM48.49 60.39c-4.07 4.05-6.73 8.87-6.62 14.6.34 19 50.5 23.08 42.77 44.45 18.47-14 4.6-26.75-12.11-37.69C62.69 75.31 53.65 67.02 49 60.19z"/>
  <g fill="#af1f24" fill-rule="evenodd" clip-path="url(#b)">
    <path d="M103.08 60.09h-61m61 0h-61m61 0v1h-61v-1"/>
    <path d="M103.08 60.09v1h-61v-1m61 1h-61m61 0h-61m61 0v1h-61v-1m61 1h-61m61 0h-61m61 0v1h-61v-1"/>
    <path d="M103.08 62.09v1h-61v-1m61 1h-61m61 0h-61m61 0v1h-61v-1"/>
    <path d="M103.08 63.09v1h-61v-1m61 1h-61m61 0h-61m61 0v1h-61v-1m61 1h-61m61 0h-61m61 0h-61m61 0v1h-61v-1m61 1h-61m61 0h-61m61 0v1h-61v-1"/>
    <path d="M103.08 66.09v1h-61v-1m61 1h-61m61 0h-61m61 0v1h-61v-1"/>
    <path d="M103.08 67.09v1h-61v-1m61 1h-61m61 0h-61m61 0v1h-61v-1m61 1h-61m61 0h-61m61 0v1h-61v-1"/>
    <path d="M103.08 69.09v1h-61v-1m61 1h-61m61 0h-61m61 0v1h-61v-1"/>
    <path d="M103.08 70.09v1h-61v-1m61 1h-61m61 0h-61m61 0v1h-61v-1m61 1h-61m61 0h-61m61 0h-61m61 0v1h-61v-1m61 1h-61m61 0h-61m61 0v1h-61v-1"/>
    <path d="M103.08 73.09v1h-61v-1m61 1h-61m61 0h-61m61 0v1h-61v-1"/>
    <path d="M103.08 74.09v1h-61v-1m61 1h-61m61 0h-61m61 0v1h-61v-1m61 1h-61m61 0h-61m61 0v1h-61v-1"/>
    <path d="M103.08 76.09v1h-61v-1m61 1h-61m61 0h-61m61 0v1h-61v-1"/>
    <path d="M103.08 77.09v1h-61v-1m61 1h-61m61 0h-61m61 0v1h-61v-1m61 1h-61m61 0h-61m61 0h-61m61 0v1h-61v-1m61 1h-61m61 0h-61m61 0v1h-61v-1"/>
    <path d="M103.08 80.09v1h-61v-1m61 1h-61m61 0h-61m61 0v1h-61v-1m61 1h-61m61 0h-61m61 0h-61m61 0v1h-61v-1m61 1h-61m61 0h-61m61 0v1h-61v-1"/>
    <path d="M103.08 83.09v1h-61v-1m61 1h-61m61 0h-61m61 0v1h-61v-1"/>
    <path d="M103.08 84.09v1h-61v-1m61 1h-61m61 0h-61m61 0v1h-61v-1m61 1h-61m61 0h-61m61 0h-61m61 0v1h-61v-1m61 1h-61m61 0h-61m61 0v1h-61v-1"/>
    <path d="M103.08 87.09v1h-61v-1m61 1h-61m61 0h-61m61 0v1h-61v-1m61 1h-61m61 0h-61m61 0h-61m61 0v1h-61v-1m61 1h-61m61 0h-61m61 0v1h-61v-1"/>
    <path d="M103.08 90.09v1h-61v-1m61 1h-61m61 0h-61m61 0v1h-61v-1"/>
    <path d="M103.08 91.09v1h-61v-1m61 1h-61m61 0h-61m61 0v1h-61v-1m61 1h-61m61 0h-61m61 0v1h-61v-1"/>
    <path d="M103.08 93.09v1h-61v-1m61 1h-61m61 0h-61m61 0v1h-61v-1"/>
    <path d="M103.08 94.09v1h-61v-1m61 1h-61m61 0h-61m61 0v1h-61v-1m61 1h-61m61 0h-61m61 0h-61m61 0v1h-61v-1m61 1h-61m61 0h-61m61 0v1h-61v-1"/>
    <path d="M103.08 97.09v1h-61v-1m61 1h-61m61 0h-61m61 0v1h-61v-1"/>
    <path d="M103.08 98.09v1h-61v-1m61 1h-61m61 0h-61m61 0v1h-61v-1m61 1h-61m61 0h-61m61 0v1h-61v-1"/>
    <path d="M103.08 100.09v1h-61v-1m61 1h-61m61 0h-61m61 0v1h-61v-1"/>
    <path d="M103.08 101.09v1h-61v-1m61 1h-61m61 0h-61m61 0v1h-61v-1m61 1h-61m61 0h-61m61 0h-61m61 0v1h-61v-1m61 1h-61m61 0h-61m61 0v1h-61v-1"/>
    <path d="M103.08 104.09v1h-61v-1m61 1h-61m61 0h-61m61 0v1h-61v-1m61 1h-61m61 0h-61m61 0h-61m61 0v1h-61v-1m61 1h-61m61 0h-61m61 0v1h-61v-1"/>
    <path d="M103.08 107.09v1h-61v-1m61 1h-61m61 0h-61m61 0v1h-61v-1"/>
    <path d="M103.08 108.09v1h-61v-1m61 1h-61m61 0h-61m61 0v1h-61v-1m61 1h-61m61 0h-61m61 0h-61m61 0v1h-61v-1m61 1h-61m61 0h-61m61 0v1h-61v-1"/>
    <path d="M103.08 111.09v1h-61v-1m61 1h-61m61 0h-61m61 0v1h-61v-1m61 1h-61m61 0h-61m61 0h-61m61 0v1h-61v-1m61 1h-61m61 0h-61m61 0v1h-61v-1"/>
    <path d="M103.08 114.09v1h-61v-1m61 1h-61m61 0h-61m61 0v1h-61v-1"/>
    <path d="M103.08 115.09v1h-61v-1m61 1h-61m61 0h-61m61 0v1h-61v-1m61 1h-61m61 0h-61m61 0v1h-61v-1"/>
    <path d="M103.08 117.09v1h-61v-1m61 1h-61m61 0h-61m61 0v1h-61v-1"/>
    <path d="M103.08 118.09v1h-61v-1m61 1h-61m61 0h-61m61 0v1h-61v-1m61 1h-61m61 0h-61m61 0h-61m61 0v1h-61v-1m61 1h-61m61 0h-61m61 0v1h-61v-1"/>
    <path d="M103.08 121.09v1h-61v-1"/>
  </g>
  <path fill="#af1f24" fill-rule="evenodd" d="M106.23 7.96C85.48 12.73 53.38 22.4 49.06 45.28c-3.39 17.93 27 31.86 41.35 46.52 8.56 8.76 10.35 18.41-2 27.9 25.7 6.22 61.71-14.65 41.18-44-10.77-15.4-35.8-23.52-39.75-37.08C84.73 21.05 103 13.59 106.23 7.96"/>
  <g fill="#af1f24" fill-rule="evenodd" clip-path="url(#c)">
    <path d="M160.64 15.8l.01-.05L53.11.25 53.1.3"/>
    <path d="M160.67 15.51l-.08.74L53.05.74l.09-.74"/>
    <path d="M160.62 16l-.09.74L52.99 1.23l.09-.74"/>
    <path d="M160.56 16.49l-.09.74L52.93 1.73l.09-.74"/>
    <path d="M160.5 16.99l-.09.74L52.87 2.22l.09-.74"/>
    <path d="M160.44 17.48l-.09.74L52.81 2.71l.09-.74"/>
    <path d="M160.38 17.97l-.08.74L52.76 3.21l.08-.74"/>
    <path d="M160.32 18.47l-.08.74L52.7 3.7l.09-.74"/>
    <path d="M160.27 18.96l-.09.74L52.64 4.19l.09-.74"/>
    <path d="M160.21 19.45l-.09.74L52.58 4.69l.09-.74"/>
    <path d="M160.15 19.95l-.09.74L52.52 5.18l.09-.74"/>
    <path d="M160.09 20.44l-.09.74L52.47 5.67l.08-.74"/>
    <path d="M160.03 20.93l-.08.74L52.41 6.17l.08-.74"/>
    <path d="M159.98 21.43l-.09.74L52.35 6.66l.09-.74"/>
    <path d="M159.92 21.92l-.09.74L52.29 7.15l.09-.74"/>
    <path d="M159.86 22.41l-.09.74L52.23 7.65l.09-.74"/>
    <path d="M159.8 22.91l-.09.74L52.17 8.14l.09-.74"/>
    <path d="M159.74 23.4l-.08.74L52.12 8.63l.08-.74"/>
    <path d="M159.69 23.89l-.09.74L52.06 9.13l.09-.74"/>
    <path d="M159.63 24.39l-.09.74L52 9.62l.09-.74"/>
    <path d="M159.57 24.88l-.09.74-107.54-15.5.09-.74"/>
    <path d="M159.51 25.37l-.09.74-107.54-15.5.09-.74"/>
    <path d="M159.45 25.87l-.09.74L51.83 11.1l.08-.74"/>
    <path d="M159.39 26.36l-.08.74L51.77 11.6l.08-.74"/>
    <path d="M159.34 26.85l-.09.74-107.54-15.5.09-.74"/>
    <path d="M159.28 27.35l-.09.74L51.65 12.58l.09-.74"/>
    <path d="M159.22 27.84l-.09.74L51.59 13.07l.09-.73"/>
    <path d="M159.16 28.33l-.09.74-107.54-15.5.09-.74"/>
    <path d="M159.1 28.83l-.09.74L51.48 14.06l.08-.74"/>
    <path d="M159.04 29.32l-.08.74L51.42 14.55l.09-.74"/>
    <path d="M158.99 29.81l-.09.74-107.54-15.5.09-.74"/>
    <path d="M158.93 30.31l-.09.74L51.3 15.54l.09-.74"/>
    <path d="M158.87 30.8l-.09.74-107.54-15.5.09-.75"/>
    <path d="M158.81 31.29l-.09.74-107.53-15.5.08-.74"/>
    <path d="M158.75 31.79l-.08.74L51.13 17.02l.09-.74"/>
    <path d="M158.69 32.28l-.08.74-107.54-15.5.09-.74"/>
    <path d="M158.64 32.77l-.09.75L51.01 18.01l.09-.74"/>
    <path d="M158.58 33.27l-.09.74L50.95 18.5l.09-.74"/>
    <path d="M158.52 33.76l-.09.74L50.9 19l.08-.74"/>
    <path d="M158.46 34.26l-.08.73-107.54-15.5.08-.74"/>
    <path d="M158.4 34.75l-.08.74L50.78 19.98l.09-.74"/>
    <path d="M158.35 35.24l-.09.74-107.54-15.5.09-.74"/>
    <path d="M158.29 35.73l-.09.75L50.66 20.97l.09-.74"/>
    <path d="M158.23 36.23l-.09.74L50.6 21.46l.09-.74"/>
    <path d="M158.17 36.72l-.09.74-107.53-15.5.08-.74"/>
    <path d="M158.11 37.22l-.08.73-107.54-15.5.08-.74"/>
    <path d="M158.06 37.71l-.09.74L50.43 22.94l.09-.74"/>
    <path d="M158 38.2l-.09.74-107.54-15.5.09-.74"/>
    <path d="M157.94 38.7l-.09.74L50.31 23.93l.09-.74"/>
    <path d="M157.88 39.19l-.09.74L50.25 24.42l.09-.74"/>
    <path d="M157.82 39.68l-.08.74L50.2 24.92l.08-.74"/>
    <path d="M157.76 40.17l-.08.75L50.14 25.41l.09-.74"/>
    <path d="M157.71 40.67l-.09.74L50.08 25.9l.09-.74"/>
    <path d="M157.65 41.16l-.09.74L50.02 26.4l.09-.74"/>
    <path d="M157.59 41.66l-.09.74L49.96 26.89l.09-.74"/>
    <path d="M157.53 42.15l-.09.74L49.91 27.38l.08-.74"/>
    <path d="M157.47 42.64l-.09.74-107.53-15.5.08-.74"/>
    <path d="M157.41 43.14l-.08.74L49.79 28.37l.09-.74"/>
    <path d="M157.36 43.63l-.09.74L49.73 28.86l.09-.73"/>
    <path d="M157.3 44.12l-.09.74-107.54-15.5.09-.74"/>
    <path d="M157.24 44.62l-.09.74L49.61 29.85l.09-.74"/>
    <path d="M157.18 45.11l-.09.74L49.56 30.34l.08-.73"/>
    <path d="M157.12 45.6l-.08.74L49.5 30.84l.09-.74"/>
    <path d="M157.06 46.1l-.08.74L49.44 31.33l.09-.74"/>
    <path d="M157.01 46.59l-.09.74L49.38 31.82l.09-.73"/>
    <path d="M156.95 47.08l-.09.74-107.54-15.5.09-.74"/>
    <path d="M156.89 47.58l-.09.74L49.27 32.81l.08-.74"/>
    <path d="M156.83 48.07l-.08.74L49.21 33.3l.08-.74"/>
    <path d="M156.77 48.56l-.08.74L49.15 33.8l.08-.74"/>
    <path d="M156.72 49.06l-.09.74L49.09 34.29l.09-.74"/>
    <path d="M156.66 49.55l-.09.74L49.03 34.78l.09-.73"/>
    <path d="M156.6 50.04l-.09.74-107.54-15.5.09-.74"/>
    <path d="M156.54 50.54l-.09.74L48.92 35.77l.08-.74"/>
    <path d="M156.48 51.03l-.08.74-107.54-15.5.08-.75"/>
    <path d="M156.43 51.52l-.09.74L48.8 36.76l.09-.74"/>
    <path d="M156.37 52.02l-.09.74L48.74 37.25l.09-.74"/>
    <path d="M156.31 52.51l-.09.74-107.54-15.5.09-.74"/>
    <path d="M156.25 53l-.09.74-107.54-15.5.09-.74"/>
    <path d="M156.19 53.5l-.09.74L48.57 38.73l.08-.74"/>
    <path d="M156.13 53.99l-.08.74-107.54-15.5.08-.74"/>
    <path d="M156.07 54.48l-.08.74-107.54-15.5.09-.74"/>
    <path d="M156.02 54.98l-.09.74L48.39 40.21l.09-.74"/>
    <path d="M155.96 55.47l-.09.74-107.54-15.5.09-.74"/>
    <path d="M155.9 55.96l-.09.74L48.27 41.2l.09-.74"/>
    <path d="M155.84 56.46l-.08.74L48.22 41.69l.08-.74"/>
    <path d="M155.78 56.95l-.08.74-107.54-15.5.09-.74"/>
    <path d="M155.73 57.45l-.09.73L48.1 42.68l.09-.74"/>
    <path d="M155.67 57.94l-.09.74L48.04 43.17l.09-.74"/>
    <path d="M155.61 58.43l-.09.74-107.54-15.5.09-.74"/>
    <path d="M155.55 58.92l-.08.74-107.54-15.5.08-.74"/>
    <path d="M155.49 59.42l-.08.74L47.87 44.65l.08-.74"/>
    <path d="M155.44 59.91l-.09.74-107.54-15.5.09-.74"/>
    <path d="M155.38 60.41l-.09.74L47.75 45.64l.09-.74"/>
    <path d="M155.32 60.9l-.09.74L47.69 46.13l.09-.74"/>
    <path d="M155.26 61.39l-.09.74-107.54-15.5.09-.74"/>
    <path d="M155.2 61.88l-.08.75L47.58 47.12l.08-.74"/>
    <path d="M155.14 62.38l-.08.74L47.52 47.61l.09-.74"/>
    <path d="M155.09 62.87l-.09.74-107.54-15.5.09-.74"/>
    <path d="M155.03 63.37l-.09.74L47.4 48.6l.09-.74"/>
    <path d="M154.97 63.86l-.09.74L47.34 49.09l.09-.74"/>
    <path d="M154.91 64.35l-.09.74-107.54-15.5.09-.74"/>
    <path d="M154.85 64.85l-.08.74L47.23 50.08l.08-.74"/>
    <path d="M154.79 65.34l-.08.74L47.17 50.57l.09-.74"/>
    <path d="M154.74 65.83l-.09.74-107.54-15.5.09-.74"/>
    <path d="M154.68 66.33l-.09.74L47.05 51.56l.09-.74"/>
    <path d="M154.62 66.82l-.09.74L46.99 52.05l.09-.74"/>
    <path d="M154.56 67.31l-.09.74-107.53-15.5.08-.74"/>
    <path d="M154.5 67.81l-.08.74L46.88 53.04l.09-.74"/>
    <path d="M154.45 68.3l-.09.74L46.82 53.53l.09-.73"/>
    <path d="M154.39 68.79l-.09.74-107.54-15.5.09-.74"/>
    <path d="M154.33 69.29l-.09.74L46.7 54.52l.09-.74"/>
    <path d="M154.27 69.78l-.09.74-107.53-15.5.08-.75"/>
    <path d="M154.21 70.27l-.08.74-107.54-15.5.08-.74"/>
    <path d="M154.16 70.77l-.09.74L46.53 56l.09-.74"/>
    <path d="M154.1 71.26l-.09.74L46.47 56.49l.09-.73"/>
    <path d="M154.04 71.75l-.09.74-107.54-15.5.09-.74"/>
    <path d="M153.98 72.25l-.09.74L46.35 57.48l.09-.74"/>
    <path d="M153.92 72.74l-.09.74L46.3 57.98l.08-.75"/>
    <path d="M153.86 73.23l-.08.74-107.54-15.5.09-.74"/>
    <path d="M153.81 73.73l-.09.74L46.18 58.96l.09-.74"/>
    <path d="M153.75 74.22l-.09.74L46.12 59.45l.09-.73"/>
    <path d="M153.69 74.71l-.09.74-107.54-15.5.09-.74"/>
    <path d="M153.63 75.21l-.09.74L46.01 60.44l.08-.74"/>
    <path d="M153.57 75.7l-.08.74-107.54-15.5.08-.74"/>
    <path d="M153.51 76.19l-.08.74-107.54-15.5.09-.74"/>
    <path d="M153.46 76.69l-.09.74L45.83 61.92l.09-.74"/>
    <path d="M153.4 77.18l-.09.74-107.54-15.5.09-.74"/>
    <path d="M153.34 77.67l-.09.75L45.71 62.91l.09-.74"/>
    <path d="M153.28 78.17l-.09.74L45.66 63.4l.08-.74"/>
    <path d="M153.22 78.66l-.08.74L45.6 63.9l.09-.74"/>
    <path d="M153.16 79.16l-.08.73-107.54-15.5.09-.74"/>
    <path d="M153.11 79.65l-.09.74L45.48 64.88l.09-.74"/>
    <path d="M153.05 80.14l-.09.74-107.54-15.5.09-.74"/>
    <path d="M152.99 80.64l-.09.74L45.36 65.87l.09-.74"/>
    <path d="M152.93 81.13l-.09.74L45.31 66.36l.08-.74"/>
    <path d="M152.87 81.62l-.08.74-107.54-15.5.09-.74"/>
    <path d="M152.82 82.11l-.09.75L45.19 67.35l.09-.74"/>
    <path d="M152.76 82.61l-.09.74L45.13 67.84l.09-.74"/>
    <path d="M152.7 83.1l-.09.74-107.54-15.5.09-.74"/>
    <path d="M152.64 83.59l-.09.74-107.53-15.5.08-.74"/>
    <path d="M152.58 84.09l-.08.74L44.96 69.32l.08-.74"/>
    <path d="M152.53 84.58l-.09.74L44.9 69.82l.09-.74"/>
    <path d="M152.47 85.08l-.09.74L44.84 70.31l.09-.74"/>
    <path d="M152.41 85.57l-.09.74L44.78 70.8l.09-.74"/>
    <path d="M152.35 86.06l-.09.74L44.72 71.3l.09-.74"/>
    <path d="M152.29 86.56l-.08.74L44.67 71.79l.08-.74"/>
    <path d="M152.23 87.05l-.08.74L44.61 72.28l.09-.74"/>
    <path d="M152.18 87.54l-.09.74-107.54-15.5.09-.74"/>
    <path d="M152.12 88.04l-.09.74L44.49 73.27l.09-.74"/>
    <path d="M152.06 88.53l-.09.74L44.43 73.76l.09-.74"/>
    <path d="M152 89.02l-.09.74-107.53-15.5.08-.74"/>
    <path d="M151.94 89.52l-.09.74L44.32 74.75l.08-.74"/>
    <path d="M151.88 90.01l-.08.74L44.26 75.24l.09-.74"/>
    <path d="M151.83 90.5l-.09.74L44.2 75.74l.09-.74"/>
    <path d="M151.77 91l-.09.74L44.14 76.23l.09-.74"/>
    <path d="M151.71 91.49l-.09.74L44.08 76.72l.09-.74"/>
    <path d="M151.65 91.98l-.09.74-107.53-15.5.08-.74"/>
    <path d="M151.59 92.48l-.08.74L43.97 77.71l.08-.74"/>
    <path d="M151.53 92.97l-.08.74L43.91 78.2l.09-.74"/>
    <path d="M151.48 93.46l-.09.74L43.85 78.7l.09-.74"/>
    <path d="M151.42 93.96l-.09.74L43.79 79.19l.09-.74"/>
    <path d="M151.36 94.45l-.09.74-107.54-15.5.09-.75"/>
    <path d="M151.3 94.94l-.08.74-107.54-15.5.08-.74"/>
    <path d="M151.24 95.44l-.08.74L43.62 80.67l.08-.74"/>
    <path d="M151.19 95.93l-.09.74-107.54-15.5.09-.75"/>
    <path d="M151.13 96.42l-.09.74L43.5 81.66l.09-.74"/>
    <path d="M151.07 96.92l-.09.74L43.44 82.15l.09-.74"/>
    <path d="M151.01 97.41l-.09.74L43.38 82.64l.09-.73"/>
    <path d="M150.95 97.9l-.08.74-107.54-15.5.08-.74"/>
    <path d="M150.9 98.4l-.09.74L43.27 83.63l.09-.74"/>
    <path d="M150.84 98.89l-.09.74-107.54-15.5.09-.74"/>
    <path d="M150.78 99.38l-.09.74-107.54-15.5.09-.74"/>
    <path d="M150.72 99.88l-.09.74L43.09 85.11l.09-.74"/>
    <path d="M150.66 100.37l-.09.74-107.53-15.5.08-.75"/>
    <path d="M150.6 100.86l-.08.74L42.98 86.1l.08-.74"/>
    <path d="M150.54 101.36l-.08.74L42.92 86.59l.09-.74"/>
    <path d="M150.49 101.85l-.09.74-107.54-15.5.09-.75"/>
    <path d="M150.43 102.34l-.09.74L42.8 87.58l.09-.74"/>
    <path d="M150.37 102.84l-.09.74L42.74 88.07l.09-.74"/>
    <path d="M150.31 103.33l-.08.74-107.54-15.5.08-.74"/>
    <path d="M150.25 103.83l-.08.73-107.54-15.5.09-.74"/>
    <path d="M150.2 104.32l-.09.74L42.57 89.55l.09-.74"/>
    <path d="M150.14 104.81l-.09.74-107.54-15.5.09-.74"/>
    <path d="M150.08 105.31l-.09.74L42.45 90.54l.09-.74"/>
    <path d="M150.02 105.8l-.09.74L42.4 91.03l.08-.74"/>
    <path d="M149.96 106.29l-.08.74-107.54-15.5.08-.74"/>
    <path d="M149.91 106.78l-.09.75L42.28 92.02l.09-.74"/>
    <path d="M149.85 107.28l-.09.74L42.22 92.51l.09-.74"/>
    <path d="M149.79 107.77l-.09.74-107.54-15.5.09-.74"/>
    <path d="M149.73 108.27l-.09.73L42.1 93.5l.09-.74"/>
    <path d="M149.67 108.76l-.08.74L42.05 93.99l.08-.74"/>
    <path d="M149.61 109.25l-.08.74-107.54-15.5.09-.74"/>
    <path d="M149.56 109.75l-.09.74L41.93 94.98l.09-.74"/>
    <path d="M149.5 110.24l-.09.74L41.87 95.47l.09-.74"/>
    <path d="M149.44 110.73l-.09.74-107.54-15.5.09-.74"/>
    <path d="M149.38 111.23l-.09.74L41.76 96.46l.08-.74"/>
    <path d="M149.32 111.72l-.08.74L41.7 96.95l.08-.74"/>
    <path d="M149.26 112.21l-.08.74-107.54-15.5.09-.74"/>
    <path d="M149.21 112.71l-.09.74L41.58 97.94l.09-.74"/>
    <path d="M149.15 113.2l-.09.74L41.52 98.43l.09-.74"/>
    <path d="M149.09 113.69l-.09.74-107.54-15.5.09-.74"/>
    <path d="M149.03 114.19l-.09.74L41.41 99.42l.08-.74"/>
    <path d="M148.97 114.68l-.08.74L41.35 99.91l.09-.74"/>
    <path d="M148.92 115.17l-.09.74-107.54-15.5.09-.74"/>
    <path d="M148.86 115.67l-.09.74L41.23 100.9l.09-.74"/>
    <path d="M148.8 116.16l-.09.74-107.54-15.51.09-.74"/>
    <path d="M148.74 116.65l-.09.74-107.53-15.5.08-.74"/>
    <path d="M148.68 117.15l-.09.74-107.53-15.51.08-.74"/>
    <path d="M148.63 117.64l-.09.74L41 102.88l.09-.75"/>
    <path d="M148.57 118.13l-.09.74-107.54-15.5.09-.74"/>
    <path d="M148.51 118.63l-.09.74-107.54-15.51.09-.74"/>
    <path d="M148.45 119.12l-.09.74-107.54-15.5.09-.75"/>
    <path d="M148.39 119.61l-.09.74-107.53-15.5.08-.74"/>
    <path d="M148.33 120.11l-.08.74-107.54-15.51.09-.74"/>
    <path d="M148.28 120.6l-.09.74-107.54-15.51.09-.74"/>
    <path d="M148.22 121.09l-.09.74-107.54-15.5.09-.74"/>
    <path d="M148.16 121.59l-.09.74-107.54-15.51.09-.74"/>
    <path d="M148.1 122.08l-.09.74-107.53-15.51.08-.73"/>
    <path d="M148.04 122.57l-.08.74-107.54-15.5.08-.74"/>
    <path d="M147.98 123.07l-.08.74L40.36 108.3l.09-.74"/>
    <path d="M147.93 123.56l-.09.74L40.3 108.8l.09-.74"/>
    <path d="M147.87 124.05l-.09.74-107.54-15.5.09-.74"/>
    <path d="M147.81 124.55l-.09.74-107.54-15.51.09-.74"/>
    <path d="M147.75 125.04l-.09.74-107.53-15.5.08-.75"/>
    <path d="M147.69 125.53l-.08.74-107.54-15.5.09-.74"/>
    <path d="M147.63 126.03l-.08.74-107.54-15.51.09-.74"/>
    <path d="M147.58 126.52l-.09.74-107.54-15.5.09-.74"/>
    <path d="M147.52 127.01l-.09.74-107.54-15.5.09-.74"/>
    <path d="M147.46 127.51l-.09.74-107.54-15.51.09-.74"/>
    <path d="M147.4 128l-.09.74-107.53-15.5.08-.74"/>
    <path d="M147.34 128.5l-.08.74-107.54-15.51.09-.74"/>
    <path d="M147.29 128.99l-.09.74-107.54-15.51.09-.74"/>
    <path d="M147.23 129.48l-.09.74-107.54-15.5.09-.74"/>
    <path d="M147.17 129.97l-.09.75-107.54-15.51.09-.74"/>
    <path d="M147.11 130.47l-.02.21-107.54-15.51.02-.21"/>
  </g>
</svg>
