<svg xmlns="http://www.w3.org/2000/svg" width="201.39" height="42.79" viewBox="0 0 201.39 42.79"><title>logo-footer</title><rect x="59.94" y=".45" width="3.6" height="3.6" rx=".25" ry=".25" fill="#fff"/><path fill="#fff" d="M55.296 20.958l.314-3.586 3.586.313-.314 3.587zM80.93 14.81v-1.74h-3.6v3.6h1.85a9.91 9.91 0 0 1 1.75-1.86zm.43.26a9.93 9.93 0 0 0-1.75 1.86h1.75v-1.86zM64.22 26.05l.73 3.53.28-.06c0-1.2-.39-2.48-.17-3.64zm4.48-.12H66c-.44 1.09-.29 2.44-.57 3.6h3.27v-3.6zM63.69 4.68l-3.59-.31-.24 2.7a29.61 29.61 0 0 0 3.64-.24z"/><path d="M59.71 7.87l.12.87 3.57-.48-.2-1.43a29.62 29.62 0 0 1-3.49 1.04zm.007 22.008l.315-3.587 3.586.318-.314 3.586zm.353-12.058h3.6v3.6h-3.6z" fill="#fff"/><rect x="46.27" y="17.69" width="3.6" height="3.6" rx=".25" ry=".25" fill="#fff"/><rect x="72.82" y="12.92" width="3.6" height="3.6" rx=".25" ry=".25" fill="#fff"/><rect x="59.92" y="8.67" width="3.6" height="3.6" rx=".25" ry=".25" fill="#fff"/><rect x="64.35" y="21.57" width="3.6" height="3.6" rx=".25" ry=".25" fill="#fff"/><path fill="#fff" d="M64.82 39.19h3.6v3.6h-3.6z"/><rect x="46.32" y="13.04" width="3.6" height="3.6" rx=".25" ry=".25" fill="#fff"/><path d="M63.53 34.65h-3.6v3.6h2.64c.34-.27.61-.61 1-.87v-2.73zm.39 2.59c-.17.4-.22.84-.37 1.24l.82-.5zm.5-19.87h3.6v3.6h-3.6z" fill="#fff"/><rect x="64.44" y="4.37" width="3.6" height="3.6" rx=".25" ry=".25" fill="#fff"/><rect x="55.08" y="13.02" width="3.6" height="3.6" rx=".25" ry=".25" fill="#fff"/><rect x="69.05" y="17.82" width="3.6" height="3.6" rx=".25" ry=".25" fill="#fff"/><rect x="59.67" y="30.48" width="3.6" height="3.6" rx=".25" ry=".25" fill="#fff"/><path fill="#fff" d="M64.44 0h3.6v3.6h-3.6zM50.444 17.93l3.595-.188.186 3.595-3.595.19z"/><rect x="64.5" y="30.6" width="3.6" height="3.6" rx=".25" ry=".25" fill="#fff"/><rect x="68.47" y="13.32" width="3.6" height="3.6" rx=".25" ry=".25" fill="#fff"/><path d="M54.39 13.39l-3.57-.46-.12 1a20.83 20.83 0 0 1 3.67-.27zm-3.83 1.07v2.63h3.6v-3.37a20.81 20.81 0 0 0-3.6.74z" fill="#fff"/><rect x="73.4" y="17.42" width="3.6" height="3.6" rx=".25" ry=".25" fill="#fff"/><rect x="59.78" y="39.01" width="3.6" height="3.6" rx=".25" ry=".25" fill="#fff"/><rect x="59.77" y="21.88" width="3.6" height="3.6" rx=".25" ry=".25" fill="#fff"/><path fill="#fff" d="M64.662 8.72l3.595-.19.19 3.596-3.596.188zm-.692 4.3h3.6v3.6h-3.6zm13.73 4.81h3.6v3.6h-3.6z"/><rect x="64.7" y="34.65" width="3.6" height="3.6" rx=".25" ry=".25" transform="rotate(-5.48 66.423 36.478)" fill="#fff"/><path fill="#fff" d="M59.47 13.17h3.6v3.6h-3.6zm-4.61 4.07l.41.82-.72 1.84.31-2.66M85.9 37.52a.36.36 0 0 1 .27.12.33.33 0 0 1 .11.21 2.21 2.21 0 0 1-.82 1.15 7 7 0 0 1-2.15 1.34 7.18 7.18 0 0 1-2.81.56 8 8 0 0 1-4.15-1 6.91 6.91 0 0 1-2.7-2.9 8.44 8.44 0 0 1-.94-3.86 8 8 0 0 1 .92-3.75 6.66 6.66 0 0 1 2.61-2.73 7.7 7.7 0 0 1 3.93-1 8.92 8.92 0 0 1 2.64.37 6.17 6.17 0 0 1 1.91.9 1.48 1.48 0 0 1 .7.81v1.2a1.51 1.51 0 0 0 .07.37 1.7 1.7 0 0 1 .07.46.34.34 0 0 1-.42.34.39.39 0 0 1-.29-.11 2.6 2.6 0 0 1-.39-.69 5.05 5.05 0 0 0-1.16-1.74 4.5 4.5 0 0 0-3.05-1 4.66 4.66 0 0 0-3.93 1.83 7.57 7.57 0 0 0-1.4 4.73 7.58 7.58 0 0 0 1.52 5A5 5 0 0 0 80.53 40a7.94 7.94 0 0 0 2.09-.45 7.51 7.51 0 0 0 2.81-1.73.88.88 0 0 1 .47-.3zm4.18 1.69a.77.77 0 0 0 .15.48 1 1 0 0 0 .67.27 1.2 1.2 0 0 1 .63.2.45.45 0 0 1 .11.31q0 .33-.58.33a9.08 9.08 0 0 1-.91-.07 9.09 9.09 0 0 0-.91-.07 7.64 7.64 0 0 0-.84.07 7.63 7.63 0 0 1-.84.07q-.72 0-.72-.37a.4.4 0 0 1 .1-.28 1.28 1.28 0 0 1 .65-.15.85.85 0 0 0 .7-.37 1.45 1.45 0 0 0 .17-.71v-11a.69.69 0 0 0-.17-.46 1.58 1.58 0 0 0-.68-.38 2.15 2.15 0 0 1-.61-.29.27.27 0 0 1-.1-.2q0-.36.6-.36h1.06a2.1 2.1 0 0 0 .52-.09 2.08 2.08 0 0 1 .5-.09.5.5 0 0 1 .36.13 1.06 1.06 0 0 1 .14.68v12.35zm5.11-.15a1.24 1.24 0 0 0 .16.64.84.84 0 0 0 .65.3 1.13 1.13 0 0 1 .6.18.41.41 0 0 1 .1.28.27.27 0 0 1-.15.29 2.14 2.14 0 0 1-.59.05q-.27 0-.81-.05t-.8-.05q-.29 0-.85.06t-.85.06q-.65 0-.65-.44a.34.34 0 0 1 .1-.25 1.32 1.32 0 0 1 .64-.13.89.89 0 0 0 .68-.31 1.07 1.07 0 0 0 .17-.6v-3.14a1 1 0 0 0-.28-.74 1.11 1.11 0 0 0-.79-.26 2 2 0 0 0-1.16.49 1.23 1.23 0 0 1-.61.31.31.31 0 0 1-.21-.11.33.33 0 0 1-.11-.23 1.71 1.71 0 0 1 1.06-1.15 3.68 3.68 0 0 1 1.7-.63 2.17 2.17 0 0 1 1.19.37 1.81 1.81 0 0 1 .76.91 7.22 7.22 0 0 1 .1 1.68q0 .61 0 1.47t-.05.99zm5.32-3.38v.29a4.93 4.93 0 0 0 .48-1 4.49 4.49 0 0 1 .85-1.38 1.25 1.25 0 0 1 .87-.41.93.93 0 0 1 .53.12.34.34 0 0 1 .18.28.68.68 0 0 1-.12.43 2.45 2.45 0 0 1-.43.4 5.68 5.68 0 0 0-1.87 2.42 6.47 6.47 0 0 0-.58 2.34 1.06 1.06 0 0 0 .12.59 1 1 0 0 0 .57.26 1.41 1.41 0 0 1 .58.23.39.39 0 0 1 .13.29.29.29 0 0 1-.36.3 4.74 4.74 0 0 1-.79-.09 6.11 6.11 0 0 0-1.09-.09 3.5 3.5 0 0 0-.79.09 3.12 3.12 0 0 1-.51.09.86.86 0 0 1-.46-.11.32.32 0 0 1-.17-.27.31.31 0 0 1 .1-.22 1.71 1.71 0 0 1 .57-.24 1.13 1.13 0 0 0 .55-.3 2.43 2.43 0 0 0 .1-1v-3.06a1 1 0 0 0-.14-.53.92.92 0 0 0-.55-.36 1.23 1.23 0 0 1-.49-.22.32.32 0 0 1-.08-.21q0-.34.48-.34a3.19 3.19 0 0 1 .45.05l.44.05h.33a3.22 3.22 0 0 1 .55 0q.55 0 .55 1.17v.5zm6.87 3.32a.85.85 0 0 0 .18.65 1 1 0 0 0 .49.2 1.16 1.16 0 0 1 .43.13.38.38 0 0 1 .13.34q0 .34-.59.34a7.07 7.07 0 0 1-.77-.06 7.07 7.07 0 0 0-.76-.06 4.51 4.51 0 0 0-.72.08 4.54 4.54 0 0 1-.71.08.63.63 0 0 1-.4-.13.43.43 0 0 1-.17-.35.33.33 0 0 1 .11-.22.92.92 0 0 1 .47-.16.82.82 0 0 0 .53-.24 1.65 1.65 0 0 0 .15-.89v-3.43a.71.71 0 0 0-.18-.58 1.3 1.3 0 0 0-.54-.21.78.78 0 0 1-.44-.18.45.45 0 0 1-.09-.28.37.37 0 0 1 .15-.3.55.55 0 0 1 .35-.13 2.32 2.32 0 0 1 .5.08 2.31 2.31 0 0 0 .48.08 3.81 3.81 0 0 0 .53-.06 3.8 3.8 0 0 1 .53-.06q.38 0 .38.63V39zm-.83-8.85a1.16 1.16 0 0 1 1.15 1.15.9.9 0 0 1-.34.71 1.17 1.17 0 0 1-.79.29 1.09 1.09 0 0 1-.79-.32 1 1 0 0 1-.33-.77 1 1 0 0 1 .33-.74 1.08 1.08 0 0 1 .77-.3zm5.09 4.71a.73.73 0 0 0 .22.48 6.62 6.62 0 0 0 1.4.87 4.44 4.44 0 0 1 1.59 1.22 2.19 2.19 0 0 1 .41 1.26 1.92 1.92 0 0 1-.86 1.64 3.76 3.76 0 0 1-2.23.61 3.69 3.69 0 0 1-1.5-.33 1 1 0 0 1-.75-.67v-1.33a.43.43 0 0 1 .46-.5.35.35 0 0 1 .25.11 2.87 2.87 0 0 1 .36.75 1.78 1.78 0 0 0 .59.87 1.37 1.37 0 0 0 .79.23 1.27 1.27 0 0 0 .91-.36 1.21 1.21 0 0 0 .38-.92 1.09 1.09 0 0 0-.25-.69 4.52 4.52 0 0 0-1.39-.86 3.66 3.66 0 0 1-1.47-1.05 2 2 0 0 1-.34-1.12 1.6 1.6 0 0 1 .74-1.33 2.84 2.84 0 0 1 1.72-.54 4.6 4.6 0 0 1 1.59.28 1 1 0 0 1 .78.6 3.48 3.48 0 0 0 0 .48 3.47 3.47 0 0 1 0 .46.66.66 0 0 1-.11.38.32.32 0 0 1-.27.16.42.42 0 0 1-.34-.12 1.16 1.16 0 0 1-.18-.42 1 1 0 0 0-.26-.47 1.83 1.83 0 0 0-.49-.32 1.56 1.56 0 0 0-.68-.14 1.22 1.22 0 0 0-.71.24.66.66 0 0 0-.36.53zm7.76 3.5a4.46 4.46 0 0 0 .08 1.1.3.3 0 0 0 .29.24 1.47 1.47 0 0 0 .82-.37 1.57 1.57 0 0 1 .65-.37.31.31 0 0 1 .24.12.45.45 0 0 1 .1.3 1.88 1.88 0 0 1-.8.94 2.38 2.38 0 0 1-1.41.65q-1.61 0-1.61-2.36V34.7a.23.23 0 0 0-.05-.21h-.57a.91.91 0 0 1-.55-.12.42.42 0 0 1-.14-.35.33.33 0 0 1 .11-.28 1.34 1.34 0 0 1 .42-.17 1.6 1.6 0 0 0 .48-.2 2.74 2.74 0 0 0 .47-.49 2.35 2.35 0 0 0 .43-1 11.12 11.12 0 0 0 .13-1.94q0-.6.33-.6a.49.49 0 0 1 .46.17 1.25 1.25 0 0 1 .09.57v3.41c0 .14.09.2.27.2h1.45a.36.36 0 0 1 .44.38q0 .44-.63.44h-1.3a.21.21 0 0 0-.17 0 .51.51 0 0 0 0 .23v3.63zm6.49.64a.85.85 0 0 0 .18.65 1 1 0 0 0 .49.2 1.17 1.17 0 0 1 .44.15.38.38 0 0 1 .13.34q0 .34-.59.34a7.07 7.07 0 0 1-.77-.06 7.05 7.05 0 0 0-.76-.06 4.51 4.51 0 0 0-.72.08 4.54 4.54 0 0 1-.71.08.63.63 0 0 1-.4-.13.43.43 0 0 1-.17-.35.33.33 0 0 1 .09-.23.92.92 0 0 1 .47-.16.82.82 0 0 0 .53-.24 1.65 1.65 0 0 0 .15-.89v-3.44a.71.71 0 0 0-.18-.58 1.3 1.3 0 0 0-.54-.21.78.78 0 0 1-.44-.18.45.45 0 0 1-.09-.31.37.37 0 0 1 .15-.3.55.55 0 0 1 .35-.12 2.33 2.33 0 0 1 .5.08 2.3 2.3 0 0 0 .48.08 3.82 3.82 0 0 0 .53-.06 3.81 3.81 0 0 1 .53-.06q.38 0 .38.63V39zm-.83-8.85a1.16 1.16 0 0 1 1.15 1.15.9.9 0 0 1-.34.71 1.17 1.17 0 0 1-.79.29 1.09 1.09 0 0 1-.79-.32 1 1 0 0 1-.33-.77 1 1 0 0 1 .33-.74 1.08 1.08 0 0 1 .77-.3zm10.69 8.73a1.1 1.1 0 0 0 1 1 1.09 1.09 0 0 1 .36.17.43.43 0 0 1 .12.35.28.28 0 0 1-.16.23.64.64 0 0 1-.34.1 2.1 2.1 0 0 1-.53-.09 2.11 2.11 0 0 0-.54-.09 2.47 2.47 0 0 0-.59.09 2.43 2.43 0 0 1-.48.09.47.47 0 0 1-.28-.1.27.27 0 0 1-.14-.2c0-.11 0-.16-.1-.16a.37.37 0 0 0-.18.07 4.64 4.64 0 0 1-2.49.71 3.71 3.71 0 0 1-1.41-.33 2.8 2.8 0 0 1-1.25-1 2.88 2.88 0 0 1-.47-1.68 2.38 2.38 0 0 1 1-1.88 4 4 0 0 1 2.61-.82 2.84 2.84 0 0 1 1.19.3.88.88 0 0 1 .65.62.28.28 0 0 1-.13.24.56.56 0 0 1-.33.09 1.61 1.61 0 0 1-.52-.18 1.84 1.84 0 0 0-.8-.18 2 2 0 0 0-1.39.49 1.68 1.68 0 0 0-.55 1.32 1.78 1.78 0 0 0 .63 1.47 2.25 2.25 0 0 0 1.46.51 2.18 2.18 0 0 0 1.37-.49 1.57 1.57 0 0 0 .63-1.31v-2.74a1.32 1.32 0 0 0-.41-1 1.55 1.55 0 0 0-1.1-.39 3 3 0 0 0-1.72.56 1 1 0 0 1-.39.19.68.68 0 0 1-.42-.13.39.39 0 0 1-.17-.33 1.1 1.1 0 0 1 .91-.85 5.58 5.58 0 0 1 2-.35 3.28 3.28 0 0 1 2.15.67 2 2 0 0 1 .82 1.6v3.42zm3.85-3.59a.91.91 0 0 0-.15-.57 1 1 0 0 0-.62-.27.45.45 0 0 1-.47-.42.39.39 0 0 1 .16-.28.64.64 0 0 1 .43-.14 1.93 1.93 0 0 1 .39.07 2 2 0 0 0 .47.07l.52-.06.51-.06a.29.29 0 0 1 .29.17 1.91 1.91 0 0 1 .09.68v1.81l-.06 2.91a.45.45 0 0 0 .29.57 1.56 1.56 0 0 0 .48.17.64.64 0 0 1 .38.17.41.41 0 0 1 .08.25q0 .34-.53.34a4.5 4.5 0 0 1-.76-.07 4.56 4.56 0 0 0-.77-.07 7.2 7.2 0 0 0-.79.06 6.94 6.94 0 0 1-.72.06q-.52 0-.52-.38a.39.39 0 0 1 .09-.27.6.6 0 0 1 .4-.12.76.76 0 0 0 .43-.1 1.24 1.24 0 0 0 .3-.43 2.91 2.91 0 0 0 .06-.75v-3.34zm6.25 3.92a.8.8 0 0 0 .15.58 1.18 1.18 0 0 0 .53.22.38.38 0 0 1 .38.33.31.31 0 0 1-.38.32h-1.52a5.88 5.88 0 0 0-1 .08 4 4 0 0 1-.54.08.55.55 0 0 1-.34-.12.37.37 0 0 1-.16-.3.34.34 0 0 1 .13-.25.45.45 0 0 1 .31-.12 1 1 0 0 0 .58-.19.66.66 0 0 0 .26-.57v-3.66a.67.67 0 0 0-.73-.79 1.69 1.69 0 0 0-.9.48 1.75 1.75 0 0 1-.83.48.28.28 0 0 1-.18-.1.31.31 0 0 1-.1-.22 2.07 2.07 0 0 1 .94-1.1 3 3 0 0 1 1.83-.73 1.56 1.56 0 0 1 .92.27 1.28 1.28 0 0 1 .51.68 4.06 4.06 0 0 1 .13 1.15v3.6zM160 25.88a.71.71 0 0 1 .49.11 1 1 0 0 1 .14.45q.05.34.11.65a3 3 0 0 1 .06.5.5.5 0 0 1-.5.61.32.32 0 0 1-.23-.11 1.88 1.88 0 0 1-.28-.58 1.5 1.5 0 0 0-.34-.61.57.57 0 0 0-.37-.14h-2.8a1.55 1.55 0 0 0-1 .2.75.75 0 0 0-.22.6v2.14a1.79 1.79 0 0 0 .19 1 1.12 1.12 0 0 0 .94.28h2.72a.56.56 0 0 0 .5-.27 1.14 1.14 0 0 0 .17-.63.35.35 0 0 1 .11-.28.41.41 0 0 1 .57 0 .48.48 0 0 1 .12.35v1.28a6.88 6.88 0 0 0 .05.81q.05.43.05.52a.54.54 0 0 1-.12.36.37.37 0 0 1-.29.14.37.37 0 0 1-.31-.18.82.82 0 0 1-.13-.48.72.72 0 0 0-.88-.73H156a1.09 1.09 0 0 0-.69.15.57.57 0 0 0-.17.45v6.07a1.24 1.24 0 0 0 .2.7 1.42 1.42 0 0 0 .82.48 1.8 1.8 0 0 1 .74.33.52.52 0 0 1 .13.35.34.34 0 0 1-.42.35 3.67 3.67 0 0 1-.78-.16 4.23 4.23 0 0 0-1.13-.16 6.22 6.22 0 0 0-1.59.17 4.16 4.16 0 0 1-.8.17.52.52 0 0 1-.63-.53.32.32 0 0 1 .11-.24 1.76 1.76 0 0 1 .65-.23 1.25 1.25 0 0 0 .72-.36.88.88 0 0 0 .18-.55v-9.32a18.78 18.78 0 0 0-.07-1.95.94.94 0 0 0-.27-.67 1.43 1.43 0 0 0-.74-.14 1 1 0 0 1-.57-.13.38.38 0 0 1-.2-.33.4.4 0 0 1 .17-.32.7.7 0 0 1 .44-.13h7.9zm5.58 7.37a4.21 4.21 0 0 1 3 1.16 3.64 3.64 0 0 1 .06 5.46 4.67 4.67 0 0 1-3.22 1.07 4.27 4.27 0 0 1-2.86-1.09 3.44 3.44 0 0 1-1.27-2.71 3.81 3.81 0 0 1 1.12-2.72 4.26 4.26 0 0 1 3.17-1.17zm0 6.79a2.3 2.3 0 0 0 1.87-.85 3.25 3.25 0 0 0 .7-2.14 3 3 0 0 0-.75-2.09 2.47 2.47 0 0 0-1.9-.82 2.24 2.24 0 0 0-1.84.8A3.16 3.16 0 0 0 163 37a3.21 3.21 0 0 0 .72 2.21 2.36 2.36 0 0 0 1.87.79zm8.08-4.36v.29a4.93 4.93 0 0 0 .48-1 4.49 4.49 0 0 1 .85-1.38 1.25 1.25 0 0 1 .87-.41.93.93 0 0 1 .53.12.34.34 0 0 1 .18.28.68.68 0 0 1-.12.43 2.43 2.43 0 0 1-.43.4 5.68 5.68 0 0 0-1.88 2.39 6.47 6.47 0 0 0-.58 2.34 1.06 1.06 0 0 0 .12.59 1 1 0 0 0 .57.26 1.41 1.41 0 0 1 .58.23.39.39 0 0 1 .13.29.29.29 0 0 1-.36.3 4.74 4.74 0 0 1-.79-.09 6.11 6.11 0 0 0-1.09-.09 3.5 3.5 0 0 0-.79.09 3.12 3.12 0 0 1-.51.09.86.86 0 0 1-.46-.11.32.32 0 0 1-.17-.27.31.31 0 0 1 .1-.22 1.71 1.71 0 0 1 .55-.25 1.13 1.13 0 0 0 .55-.3 2.43 2.43 0 0 0 .1-1v-3.02a1 1 0 0 0-.14-.53.92.92 0 0 0-.55-.36 1.23 1.23 0 0 1-.49-.22.32.32 0 0 1-.08-.21q0-.34.48-.34a3.18 3.18 0 0 1 .45.05l.44.05h.33a3.22 3.22 0 0 1 .55 0q.55 0 .55 1.17v.5zm6.71 3.21a1 1 0 0 0 .38.83 1.34 1.34 0 0 0 .91.33 1.57 1.57 0 0 0 .76-.26 1.52 1.52 0 0 1 .64-.26.2.2 0 0 1 .2.25 1.26 1.26 0 0 1-.76.73 3.37 3.37 0 0 1-1.72.44 2 2 0 0 1-1.3-.46 1.66 1.66 0 0 1-.64-1q-.09-.56-.09-4.2a1 1 0 0 0-1-.71.43.43 0 0 1-.44-.34.3.3 0 0 1 .14-.26.6.6 0 0 1 .34-.09l.6.08a6.16 6.16 0 0 0 .91.08 1.54 1.54 0 0 0 .39-.08l.32-.08q.34 0 .34 1.39v3.63zm3.36-3.48a.8.8 0 0 0-.8-.85 1.36 1.36 0 0 1-.6-.18.35.35 0 0 1-.12-.27q0-.38.58-.38a3.52 3.52 0 0 1 .62.11 4.45 4.45 0 0 0 1 .11 2 2 0 0 0 .36 0h.27q.28 0 .28.62 0 4.69.08 5a1 1 0 0 0 .83.48 1.41 1.41 0 0 1 .48.19.26.26 0 0 1 .09.2.31.31 0 0 1-.17.25.76.76 0 0 1-.43.11l-.55-.07a4.52 4.52 0 0 0-.62-.07 1.93 1.93 0 0 0-.47.07 1.91 1.91 0 0 1-.37.07.34.34 0 0 1-.31-.12 1.48 1.48 0 0 1-.11-.6v-4.67zm5.56-.12a.74.74 0 0 0-.22-.57.64.64 0 0 0-.42-.2q-.61 0-.61-.38a.39.39 0 0 1 .44-.44 3 3 0 0 1 .48.07 3 3 0 0 0 .54.07 2.22 2.22 0 0 0 .51-.06 1.92 1.92 0 0 1 .35-.06.42.42 0 0 1 .37.14 3.66 3.66 0 0 1 .13 1.12v4.04a1.79 1.79 0 0 0 .06.59.6.6 0 0 0 .24.23 1.11 1.11 0 0 0 .44.14 1 1 0 0 1 .37.1.3.3 0 0 1 .12.28q0 .36-.52.36a4 4 0 0 1-.77-.08 4 4 0 0 0-.77-.08 4.56 4.56 0 0 0-.75.08 4.33 4.33 0 0 1-.67.08q-.57 0-.57-.33a.39.39 0 0 1 .11-.33.91.91 0 0 1 .39-.11 1 1 0 0 0 .46-.16.54.54 0 0 0 .22-.33 4.73 4.73 0 0 0 0-.84v-3.33zm4.64 0a.47.47 0 0 0-.2-.38.68.68 0 0 0-.43-.16 2 2 0 0 0-1.2.57 1.19 1.19 0 0 1-.59.35.22.22 0 0 1-.26-.23 1.83 1.83 0 0 1 1-1.21 3 3 0 0 1 1.72-.69 1.61 1.61 0 0 1 1.14.46 1.46 1.46 0 0 1 .49 1.1v4.12a.72.72 0 0 0 .72.73.42.42 0 0 1 .52.41q0 .36-.54.36l-.61-.07a7.85 7.85 0 0 0-.92-.07 5.88 5.88 0 0 0-1 .08 4 4 0 0 1-.54.08.48.48 0 0 1-.32-.12.39.39 0 0 1-.14-.31.29.29 0 0 1 .23-.31 1 1 0 0 0 .61-.21.73.73 0 0 0 .29-.63v-3.89zm4.66 0a.47.47 0 0 0-.2-.38.68.68 0 0 0-.43-.16 1.78 1.78 0 0 0-1 .46 2 2 0 0 1-.79.46.34.34 0 0 1-.22-.08.22.22 0 0 1-.1-.18 1.87 1.87 0 0 1 .9-1.16 3 3 0 0 1 1.83-.7 1.47 1.47 0 0 1 1.48.91 14.75 14.75 0 0 1 .14 3v1.73a.64.64 0 0 0 .17.49 1.07 1.07 0 0 0 .53.23.81.81 0 0 1 .43.17.37.37 0 0 1 .08.23q0 .38-.5.38l-.61-.07a7.78 7.78 0 0 0-.92-.07 4.88 4.88 0 0 0-.82.08 4.52 4.52 0 0 1-.74.08.48.48 0 0 1-.32-.12.38.38 0 0 1-.14-.31.41.41 0 0 1 .47-.37.87.87 0 0 0 .63-.25.82.82 0 0 0 .15-.51v-3.88zM13 35a1.26 1.26 0 0 1 .49.07.29.29 0 0 1 .14.29.7.7 0 0 1-.25.47.94.94 0 0 0-.25.7v.84a.71.71 0 0 0 .2.53.53.53 0 0 1 .2.35 1.73 1.73 0 0 1-.89 1.06 8.41 8.41 0 0 1-2.25 1.1 8.22 8.22 0 0 1-2.61.45 7.8 7.8 0 0 1-5.47-2.11A7.25 7.25 0 0 1 0 33.19a8 8 0 0 1 .93-3.79 6.86 6.86 0 0 1 2.6-2.74 7.19 7.19 0 0 1 3.73-1 9.41 9.41 0 0 1 3.74.74q1.7.73 1.7 1.6v.82a2 2 0 0 0 .05.37 2.33 2.33 0 0 1 .05.46.63.63 0 0 1-.1.35.3.3 0 0 1-.26.15.48.48 0 0 1-.32-.15 2.93 2.93 0 0 1-.45-.76 5.12 5.12 0 0 0-1.17-1.68 4.48 4.48 0 0 0-3-.91 4.77 4.77 0 0 0-3.88 1.76 7 7 0 0 0-1.45 4.63 7.32 7.32 0 0 0 1.57 5 5.18 5.18 0 0 0 4.06 1.77 5.61 5.61 0 0 0 2.39-.51 1.62 1.62 0 0 0 1.1-1.5v-1.3q0-.5-.94-.5h-.97a1 1 0 0 1-.6-.15.47.47 0 0 1-.21-.4q0-.44.59-.44H13zm4.58 4.21a.77.77 0 0 0 .14.47 1 1 0 0 0 .63.28 1.14 1.14 0 0 1 .6.21.46.46 0 0 1 .11.31q0 .33-.5.33a7.9 7.9 0 0 1-.91-.08 7.89 7.89 0 0 0-.91-.08 6.63 6.63 0 0 0-.84.08 6.64 6.64 0 0 1-.84.08 1 1 0 0 1-.53-.09.31.31 0 0 1-.12-.26.41.41 0 0 1 .1-.28 1.19 1.19 0 0 1 .62-.18.9.9 0 0 0 .67-.34A1.14 1.14 0 0 0 16 39V28a1.19 1.19 0 0 0-.16-.63 1 1 0 0 0-.72-.37 1.27 1.27 0 0 1-.61-.25.44.44 0 0 1-.1-.28.28.28 0 0 1 .17-.25.72.72 0 0 1 .35-.09 2.86 2.86 0 0 1 .49.06 2.84 2.84 0 0 0 .48.06 3.31 3.31 0 0 0 .52-.06 3.31 3.31 0 0 1 .52-.06.61.61 0 0 1 .48.17 1 1 0 0 1 .15.62v12.29zm7.06-5.96a4.21 4.21 0 0 1 3 1.16 3.64 3.64 0 0 1 .06 5.46 4.67 4.67 0 0 1-3.22 1.07 4.27 4.27 0 0 1-2.86-1.09 3.44 3.44 0 0 1-1.27-2.71 3.81 3.81 0 0 1 1.12-2.72 4.26 4.26 0 0 1 3.17-1.17zm0 6.79a2.3 2.3 0 0 0 1.87-.85 3.25 3.25 0 0 0 .7-2.14 3 3 0 0 0-.73-2.05 2.47 2.47 0 0 0-1.9-.82 2.24 2.24 0 0 0-1.84.8 3.16 3.16 0 0 0-.66 2.02 3.21 3.21 0 0 0 .72 2.21 2.36 2.36 0 0 0 1.85.79zm8.15.24a.66.66 0 0 0-.12.21.55.55 0 0 1-.15.22.51.51 0 0 1-.31.07 2.71 2.71 0 0 1-.55-.09 2.76 2.76 0 0 0-.59-.09 2.89 2.89 0 0 0-.6.09 2.87 2.87 0 0 1-.58.09.71.71 0 0 1-.41-.12.37.37 0 0 1-.17-.33.3.3 0 0 1 .1-.23 2.05 2.05 0 0 1 .71-.22 1.2 1.2 0 0 0 .82-.47 1.52 1.52 0 0 0 .22-.82V28.13a1.49 1.49 0 0 0-.4-1.18 1.4 1.4 0 0 0-.72-.26 1.11 1.11 0 0 1-.59-.19.42.42 0 0 1-.1-.28.32.32 0 0 1 .2-.27.8.8 0 0 1 .38-.11 3.11 3.11 0 0 1 .6.09 3.09 3.09 0 0 0 .59.09 2.88 2.88 0 0 0 .52-.07 2.87 2.87 0 0 1 .5-.07.56.56 0 0 1 .45.17 1 1 0 0 1 .14.63V38.6a1.38 1.38 0 0 0 .78 1.13 2.77 2.77 0 0 0 1.47.49 2.82 2.82 0 0 0 1.68-.67 2.63 2.63 0 0 0 .89-2.23 3.18 3.18 0 0 0-.7-2.08 2.24 2.24 0 0 0-1.85-.87 1.91 1.91 0 0 0-.88.23 1.8 1.8 0 0 1-.6.23.39.39 0 0 1-.25-.11.29.29 0 0 1-.13-.21 1 1 0 0 1 .86-.79 3.5 3.5 0 0 1 1.38-.35 3.65 3.65 0 0 1 2.79 1.2 4.13 4.13 0 0 1 1.12 2.92 3.32 3.32 0 0 1-1.17 2.61 4.12 4.12 0 0 1-2.82 1 4.86 4.86 0 0 1-2.12-.67zm14.76-1.4a1.1 1.1 0 0 0 1 1 1.09 1.09 0 0 1 .36.17.43.43 0 0 1 .12.35.28.28 0 0 1-.16.23.64.64 0 0 1-.34.1 2.1 2.1 0 0 1-.53-.07 2.11 2.11 0 0 0-.54-.09 2.47 2.47 0 0 0-.59.09 2.43 2.43 0 0 1-.48.09.47.47 0 0 1-.28-.1.27.27 0 0 1-.14-.2c0-.11 0-.16-.1-.16a.38.38 0 0 0-.18.07 4.64 4.64 0 0 1-2.49.71 3.71 3.71 0 0 1-1.41-.33 2.8 2.8 0 0 1-1.25-1 2.88 2.88 0 0 1-.47-1.68 2.38 2.38 0 0 1 1-1.88 4 4 0 0 1 2.61-.82 2.84 2.84 0 0 1 1.19.3.88.88 0 0 1 .65.62.28.28 0 0 1-.13.24.56.56 0 0 1-.33.09 1.61 1.61 0 0 1-.52-.18 1.84 1.84 0 0 0-.8-.18 2 2 0 0 0-1.39.49 1.68 1.68 0 0 0-.55 1.32 1.78 1.78 0 0 0 .63 1.47 2.25 2.25 0 0 0 1.46.51 2.18 2.18 0 0 0 1.37-.49 1.57 1.57 0 0 0 .63-1.31v-2.76a1.32 1.32 0 0 0-.41-1 1.55 1.55 0 0 0-1.1-.39 3 3 0 0 0-1.72.56 1 1 0 0 1-.39.19.68.68 0 0 1-.42-.13.39.39 0 0 1-.17-.33 1.1 1.1 0 0 1 .91-.85 5.58 5.58 0 0 1 2-.35 3.28 3.28 0 0 1 2.15.67 2 2 0 0 1 .82 1.6v3.42zm5.45.33a.77.77 0 0 0 .14.47 1 1 0 0 0 .63.28 1.14 1.14 0 0 1 .6.21.46.46 0 0 1 .11.31q0 .33-.5.33a7.9 7.9 0 0 1-.91-.08 7.89 7.89 0 0 0-.91-.08 6.63 6.63 0 0 0-.84.08 6.64 6.64 0 0 1-.84.08 1 1 0 0 1-.53-.09.31.31 0 0 1-.12-.26.41.41 0 0 1 .1-.28 1.19 1.19 0 0 1 .6-.18.9.9 0 0 0 .67-.34 1.14 1.14 0 0 0 .16-.66V28a1.19 1.19 0 0 0-.16-.63 1 1 0 0 0-.67-.37 1.27 1.27 0 0 1-.61-.25.44.44 0 0 1-.1-.28.28.28 0 0 1 .18-.23.72.72 0 0 1 .35-.09 2.85 2.85 0 0 1 .49.06 2.84 2.84 0 0 0 .48.06 3.31 3.31 0 0 0 .52-.06 3.31 3.31 0 0 1 .52-.06.61.61 0 0 1 .48.17 1 1 0 0 1 .15.62v12.27z"/></svg>