<svg xmlns="http://www.w3.org/2000/svg" xmlns:xlink="http://www.w3.org/1999/xlink" width="171.55" height="36.53" viewBox="0 0 171.55 36.53"><defs><clipPath id="a" transform="translate(0 1.53)"><path d="M155.07,7.07h16.48v4.33h-5.36V28.7h-5.76V11.41h-5.36V7.07Zm-25.32,0h7l8.18,21.62h-6.16l-1.54-4.58h-8.32l-1.61,4.58h-5.7Zm3.36,4.82L130.32,20h5.51ZM96,7.07h7l8.18,21.62H105l-1.54-4.58H95.15L93.54,28.7h-5.7Zm3.36,4.82L96.59,20h5.51Zm-25-4.57L74,11.78a15,15,0,0,0-2.54-.85,10.49,10.49,0,0,0-2.36-.28,5.6,5.6,0,0,0-2.73.56,1.69,1.69,0,0,0-1,1.53,1.65,1.65,0,0,0,.5,1.19,3.74,3.74,0,0,0,1.51.85l1,0.3a19,19,0,0,1,4.93,2.12,5.47,5.47,0,0,1,1.67,2,6.14,6.14,0,0,1,.53,2.65,6.53,6.53,0,0,1-2.37,5.45q-2.37,1.88-6.87,1.88A23.86,23.86,0,0,1,62.94,29a23.61,23.61,0,0,1-3.25-.69l0.49-4.82a17.56,17.56,0,0,0,3,1,11.26,11.26,0,0,0,2.72.36,4.92,4.92,0,0,0,2.69-.64,2,2,0,0,0,1-1.73q0-1.36-3.16-2.45l-1.17-.41a10.84,10.84,0,0,1-4.41-2.58,5.4,5.4,0,0,1-1.32-3.75,5.89,5.89,0,0,1,2.33-5q2.33-1.75,6.68-1.75a23.49,23.49,0,0,1,3.07.19A18.52,18.52,0,0,1,74.39,7.32Z" fill="#9e0000" clip-rule="evenodd"/></clipPath><clipPath id="b" transform="translate(0 1.53)"><path d="M20.13,24.75h0Zm-0.3-.06h0Zm-1-.34,0.07,0Zm-0.08,0,0.07,0Zm-7.9-12.8a4.3,4.3,0,0,0-1.43,3.15c0.07,4.1,10.91,5,9.24,9.6,4-3,1-5.78-2.62-8.14A19.38,19.38,0,0,1,11,11.47Z" fill="#9e0000" clip-rule="evenodd"/></clipPath><clipPath id="c" transform="translate(0 1.53)"><path d="M23.36,0.19C18.88,1.22,11.94,3.31,11,8.25c-0.73,3.87,5.84,6.88,8.93,10.05,1.85,1.89,2.24,4-.43,6,5.55,1.34,13.33-3.17,8.9-9.51-2.33-3.33-7.74-5.08-8.59-8C18.72,3,22.66,1.4,23.36.19" fill="#9e0000" clip-rule="evenodd"/></clipPath></defs><title>mark-2</title><path d="M155.07,7.07h16.48v4.33h-5.36V28.7h-5.76V11.41h-5.36V7.07Zm-25.32,0h7l8.18,21.62h-6.16l-1.54-4.58h-8.32l-1.61,4.58h-5.7Zm3.36,4.82L130.32,20h5.51ZM96,7.07h7l8.18,21.62H105l-1.54-4.58H95.15L93.54,28.7h-5.7Zm3.36,4.82L96.59,20h5.51Zm-25-4.57L74,11.78a15,15,0,0,0-2.54-.85,10.49,10.49,0,0,0-2.36-.28,5.6,5.6,0,0,0-2.73.56,1.69,1.69,0,0,0-1,1.53,1.65,1.65,0,0,0,.5,1.19,3.74,3.74,0,0,0,1.51.85l1,0.3a19,19,0,0,1,4.93,2.12,5.47,5.47,0,0,1,1.67,2,6.14,6.14,0,0,1,.53,2.65,6.53,6.53,0,0,1-2.37,5.45q-2.37,1.88-6.87,1.88A23.86,23.86,0,0,1,62.94,29a23.61,23.61,0,0,1-3.25-.69l0.49-4.82a17.56,17.56,0,0,0,3,1,11.26,11.26,0,0,0,2.72.36,4.92,4.92,0,0,0,2.69-.64,2,2,0,0,0,1-1.73q0-1.36-3.16-2.45l-1.17-.41a10.84,10.84,0,0,1-4.41-2.58,5.4,5.4,0,0,1-1.32-3.75,5.89,5.89,0,0,1,2.33-5q2.33-1.75,6.68-1.75a23.49,23.49,0,0,1,3.07.19A18.52,18.52,0,0,1,74.39,7.32Z" transform="translate(0 1.53)" fill="#9e0000" fill-rule="evenodd"/><g clip-path="url(#a)"><polyline points="171.55 8.08 171.55 8.07 59.46 8.07 59.46 8.08" fill="#9e0000" fill-rule="evenodd"/><polyline points="171.55 8.02 171.55 8.17 59.46 8.17 59.46 8.02" fill="#9e0000" fill-rule="evenodd"/><polyline points="171.55 8.12 171.55 8.27 59.46 8.27 59.46 8.12" fill="#9e0000" fill-rule="evenodd"/><polyline points="171.55 8.22 171.55 8.37 59.46 8.37 59.46 8.22" fill="#9e0000" fill-rule="evenodd"/><polyline points="171.55 8.32 171.55 8.46 59.46 8.46 59.46 8.32" fill="#9e0000" fill-rule="evenodd"/><polyline points="171.55 8.41 171.55 8.56 59.46 8.56 59.46 8.41" fill="#9e0000" fill-rule="evenodd"/><polyline points="171.55 8.52 171.55 8.66 59.46 8.66 59.46 8.52" fill="#9e0000" fill-rule="evenodd"/><polyline points="171.55 8.61 171.55 8.76 59.46 8.76 59.46 8.61" fill="#9e0000" fill-rule="evenodd"/><polyline points="171.55 8.71 171.55 8.86 59.46 8.86 59.46 8.71" fill="#9e0000" fill-rule="evenodd"/><polyline points="171.55 8.81 171.55 8.96 59.46 8.96 59.46 8.81" fill="#9e0000" fill-rule="evenodd"/><polyline points="171.55 8.91 171.55 9.06 59.46 9.06 59.46 8.91" fill="#9e0000" fill-rule="evenodd"/><polyline points="171.55 9.01 171.55 9.16 59.46 9.16 59.46 9.01" fill="#9e0000" fill-rule="evenodd"/><polyline points="171.55 9.11 171.55 9.26 59.46 9.26 59.46 9.11" fill="#9e0000" fill-rule="evenodd"/><polyline points="171.55 9.21 171.55 9.36 59.46 9.36 59.46 9.21" fill="#9e0000" fill-rule="evenodd"/><polyline points="171.55 9.31 171.55 9.46 59.46 9.46 59.46 9.31" fill="#9e0000" fill-rule="evenodd"/><polyline points="171.55 9.41 171.55 9.56 59.46 9.56 59.46 9.41" fill="#9e0000" fill-rule="evenodd"/><polyline points="171.55 9.51 171.55 9.66 59.46 9.66 59.46 9.51" fill="#9e0000" fill-rule="evenodd"/><polyline points="171.55 9.61 171.55 9.76 59.46 9.76 59.46 9.61" fill="#9e0000" fill-rule="evenodd"/><polyline points="171.55 9.71 171.55 9.86 59.46 9.86 59.46 9.71" fill="#9e0000" fill-rule="evenodd"/><polyline points="171.55 9.8 171.55 9.95 59.46 9.95 59.46 9.8" fill="#9e0000" fill-rule="evenodd"/><polyline points="171.55 9.9 171.55 10.05 59.46 10.05 59.46 9.9" fill="#9e0000" fill-rule="evenodd"/><polyline points="171.55 10 171.55 10.15 59.46 10.15 59.46 10" fill="#9e0000" fill-rule="evenodd"/><polyline points="171.55 10.1 171.55 10.25 59.46 10.25 59.46 10.1" fill="#9e0000" fill-rule="evenodd"/><polyline points="171.55 10.2 171.55 10.35 59.46 10.35 59.46 10.2" fill="#9e0000" fill-rule="evenodd"/><polyline points="171.55 10.3 171.55 10.45 59.46 10.45 59.46 10.3" fill="#9e0000" fill-rule="evenodd"/><polyline points="171.55 10.4 171.55 10.55 59.46 10.55 59.46 10.4" fill="#9e0000" fill-rule="evenodd"/><polyline points="171.55 10.5 171.55 10.65 59.46 10.65 59.46 10.5" fill="#9e0000" fill-rule="evenodd"/><polyline points="171.55 10.6 171.55 10.75 59.46 10.75 59.46 10.6" fill="#9e0000" fill-rule="evenodd"/><polyline points="171.55 10.7 171.55 10.85 59.46 10.85 59.46 10.7" fill="#9e0000" fill-rule="evenodd"/><polyline points="171.55 10.8 171.55 10.95 59.46 10.95 59.46 10.8" fill="#9e0000" fill-rule="evenodd"/><polyline points="171.55 10.9 171.55 11.05 59.46 11.05 59.46 10.9" fill="#9e0000" fill-rule="evenodd"/><polyline points="171.55 11 171.55 11.15 59.46 11.15 59.46 11" fill="#9e0000" fill-rule="evenodd"/><polyline points="171.55 11.1 171.55 11.24 59.46 11.24 59.46 11.1" fill="#9e0000" fill-rule="evenodd"/><polyline points="171.55 11.2 171.55 11.34 59.46 11.34 59.46 11.2" fill="#9e0000" fill-rule="evenodd"/><polyline points="171.55 11.29 171.55 11.44 59.46 11.44 59.46 11.29" fill="#9e0000" fill-rule="evenodd"/><polyline points="171.55 11.39 171.55 11.54 59.46 11.54 59.46 11.39" fill="#9e0000" fill-rule="evenodd"/><polyline points="171.55 11.49 171.55 11.64 59.46 11.64 59.46 11.49" fill="#9e0000" fill-rule="evenodd"/><polyline points="171.55 11.59 171.55 11.74 59.46 11.74 59.46 11.59" fill="#9e0000" fill-rule="evenodd"/><polyline points="171.55 11.69 171.55 11.84 59.46 11.84 59.46 11.69" fill="#9e0000" fill-rule="evenodd"/><polyline points="171.55 11.79 171.55 11.94 59.46 11.94 59.46 11.79" fill="#9e0000" fill-rule="evenodd"/><polyline points="171.55 11.89 171.55 12.04 59.46 12.04 59.46 11.89" fill="#9e0000" fill-rule="evenodd"/><polyline points="171.55 11.99 171.55 12.14 59.46 12.14 59.46 11.99" fill="#9e0000" fill-rule="evenodd"/><polyline points="171.55 12.09 171.55 12.24 59.46 12.24 59.46 12.09" fill="#9e0000" fill-rule="evenodd"/><polyline points="171.55 12.19 171.55 12.34 59.46 12.34 59.46 12.19" fill="#9e0000" fill-rule="evenodd"/><polyline points="171.55 12.29 171.55 12.44 59.46 12.44 59.46 12.29" fill="#9e0000" fill-rule="evenodd"/><polyline points="171.55 12.39 171.55 12.54 59.46 12.54 59.46 12.39" fill="#9e0000" fill-rule="evenodd"/><polyline points="171.55 12.49 171.55 12.63 59.46 12.63 59.46 12.49" fill="#9e0000" fill-rule="evenodd"/><polyline points="171.55 12.59 171.55 12.73 59.46 12.73 59.46 12.59" fill="#9e0000" fill-rule="evenodd"/><polyline points="171.55 12.69 171.55 12.83 59.46 12.83 59.46 12.69" fill="#9e0000" fill-rule="evenodd"/><polyline points="171.55 12.78 171.55 12.93 59.46 12.93 59.46 12.78" fill="#9e0000" fill-rule="evenodd"/><polyline points="171.55 12.88 171.55 13.03 59.46 13.03 59.46 12.88" fill="#9e0000" fill-rule="evenodd"/><polyline points="171.55 12.98 171.55 13.13 59.46 13.13 59.46 12.98" fill="#9e0000" fill-rule="evenodd"/><polyline points="171.55 13.08 171.55 13.23 59.46 13.23 59.46 13.08" fill="#9e0000" fill-rule="evenodd"/><polyline points="171.55 13.18 171.55 13.33 59.46 13.33 59.46 13.18" fill="#9e0000" fill-rule="evenodd"/><polyline points="171.55 13.28 171.55 13.43 59.46 13.43 59.46 13.28" fill="#9e0000" fill-rule="evenodd"/><polyline points="171.55 13.38 171.55 13.53 59.46 13.53 59.46 13.38" fill="#9e0000" fill-rule="evenodd"/><polyline points="171.55 13.48 171.55 13.63 59.46 13.63 59.46 13.48" fill="#9e0000" fill-rule="evenodd"/><polyline points="171.55 13.58 171.55 13.73 59.46 13.73 59.46 13.58" fill="#9e0000" fill-rule="evenodd"/><polyline points="171.55 13.68 171.55 13.83 59.46 13.83 59.46 13.68" fill="#9e0000" fill-rule="evenodd"/><polyline points="171.55 13.78 171.55 13.93 59.46 13.93 59.46 13.78" fill="#9e0000" fill-rule="evenodd"/><polyline points="171.55 13.88 171.55 14.03 59.46 14.03 59.46 13.88" fill="#9e0000" fill-rule="evenodd"/><polyline points="171.55 13.97 171.55 14.12 59.46 14.12 59.46 13.97" fill="#9e0000" fill-rule="evenodd"/><polyline points="171.55 14.07 171.55 14.22 59.46 14.22 59.46 14.07" fill="#9e0000" fill-rule="evenodd"/><polyline points="171.55 14.17 171.55 14.32 59.46 14.32 59.46 14.17" fill="#9e0000" fill-rule="evenodd"/><polyline points="171.55 14.27 171.55 14.42 59.46 14.42 59.46 14.27" fill="#9e0000" fill-rule="evenodd"/><polyline points="171.55 14.37 171.55 14.52 59.46 14.52 59.46 14.37" fill="#9e0000" fill-rule="evenodd"/><polyline points="171.55 14.47 171.55 14.62 59.46 14.62 59.46 14.47" fill="#9e0000" fill-rule="evenodd"/><polyline points="171.55 14.57 171.55 14.72 59.46 14.72 59.46 14.57" fill="#9e0000" fill-rule="evenodd"/><polyline points="171.55 14.67 171.55 14.82 59.46 14.82 59.46 14.67" fill="#9e0000" fill-rule="evenodd"/><polyline points="171.55 14.77 171.55 14.92 59.46 14.92 59.46 14.77" fill="#9e0000" fill-rule="evenodd"/><polyline points="171.55 14.87 171.55 15.02 59.46 15.02 59.46 14.87" fill="#9e0000" fill-rule="evenodd"/><polyline points="171.55 14.97 171.55 15.12 59.46 15.12 59.46 14.97" fill="#9e0000" fill-rule="evenodd"/><polyline points="171.55 15.07 171.55 15.22 59.46 15.22 59.46 15.07" fill="#9e0000" fill-rule="evenodd"/><polyline points="171.55 15.17 171.55 15.32 59.46 15.32 59.46 15.17" fill="#9e0000" fill-rule="evenodd"/><polyline points="171.55 15.27 171.55 15.41 59.46 15.41 59.46 15.27" fill="#9e0000" fill-rule="evenodd"/><polyline points="171.55 15.37 171.55 15.51 59.46 15.51 59.46 15.37" fill="#9e0000" fill-rule="evenodd"/><polyline points="171.55 15.46 171.55 15.61 59.46 15.61 59.46 15.46" fill="#9e0000" fill-rule="evenodd"/><polyline points="171.55 15.56 171.55 15.71 59.46 15.71 59.46 15.56" fill="#9e0000" fill-rule="evenodd"/><polyline points="171.55 15.66 171.55 15.81 59.46 15.81 59.46 15.66" fill="#9e0000" fill-rule="evenodd"/><polyline points="171.55 15.76 171.55 15.91 59.46 15.91 59.46 15.76" fill="#9e0000" fill-rule="evenodd"/><polyline points="171.55 15.86 171.55 16.01 59.46 16.01 59.46 15.86" fill="#9e0000" fill-rule="evenodd"/><polyline points="171.55 15.96 171.55 16.11 59.46 16.11 59.46 15.96" fill="#9e0000" fill-rule="evenodd"/><polyline points="171.55 16.06 171.55 16.21 59.46 16.21 59.46 16.06" fill="#9e0000" fill-rule="evenodd"/><polyline points="171.55 16.16 171.55 16.31 59.46 16.31 59.46 16.16" fill="#9e0000" fill-rule="evenodd"/><polyline points="171.55 16.26 171.55 16.41 59.46 16.41 59.46 16.26" fill="#9e0000" fill-rule="evenodd"/><polyline points="171.55 16.36 171.55 16.51 59.46 16.51 59.46 16.36" fill="#9e0000" fill-rule="evenodd"/><polyline points="171.55 16.46 171.55 16.61 59.46 16.61 59.46 16.46" fill="#9e0000" fill-rule="evenodd"/><polyline points="171.55 16.56 171.55 16.7 59.46 16.7 59.46 16.56" fill="#9e0000" fill-rule="evenodd"/><polyline points="171.55 16.66 171.55 16.8 59.46 16.8 59.46 16.66" fill="#9e0000" fill-rule="evenodd"/><polyline points="171.55 16.75 171.55 16.9 59.46 16.9 59.46 16.75" fill="#9e0000" fill-rule="evenodd"/><polyline points="171.55 16.85 171.55 17 59.46 17 59.46 16.85" fill="#9e0000" fill-rule="evenodd"/><polyline points="171.55 16.95 171.55 17.1 59.46 17.1 59.46 16.95" fill="#9e0000" fill-rule="evenodd"/><polyline points="171.55 17.05 171.55 17.2 59.46 17.2 59.46 17.05" fill="#9e0000" fill-rule="evenodd"/><polyline points="171.55 17.15 171.55 17.3 59.46 17.3 59.46 17.15" fill="#9e0000" fill-rule="evenodd"/><polyline points="171.55 17.25 171.55 17.4 59.46 17.4 59.46 17.25" fill="#9e0000" fill-rule="evenodd"/><polyline points="171.55 17.35 171.55 17.5 59.46 17.5 59.46 17.35" fill="#9e0000" fill-rule="evenodd"/><polyline points="171.55 17.45 171.55 17.6 59.46 17.6 59.46 17.45" fill="#9e0000" fill-rule="evenodd"/><polyline points="171.55 17.55 171.55 17.7 59.46 17.7 59.46 17.55" fill="#9e0000" fill-rule="evenodd"/><polyline points="171.55 17.65 171.55 17.8 59.46 17.8 59.46 17.65" fill="#9e0000" fill-rule="evenodd"/><polyline points="171.55 17.75 171.55 17.9 59.46 17.9 59.46 17.75" fill="#9e0000" fill-rule="evenodd"/><polyline points="171.55 17.85 171.55 18 59.46 18 59.46 17.85" fill="#9e0000" fill-rule="evenodd"/><polyline points="171.55 17.95 171.55 18.09 59.46 18.09 59.46 17.95" fill="#9e0000" fill-rule="evenodd"/><polyline points="171.55 18.05 171.55 18.2 59.46 18.2 59.46 18.05" fill="#9e0000" fill-rule="evenodd"/><polyline points="171.55 18.14 171.55 18.29 59.46 18.29 59.46 18.14" fill="#9e0000" fill-rule="evenodd"/><polyline points="171.55 18.24 171.55 18.39 59.46 18.39 59.46 18.24" fill="#9e0000" fill-rule="evenodd"/><polyline points="171.55 18.34 171.55 18.49 59.46 18.49 59.46 18.34" fill="#9e0000" fill-rule="evenodd"/><polyline points="171.55 18.44 171.55 18.59 59.46 18.59 59.46 18.44" fill="#9e0000" fill-rule="evenodd"/><polyline points="171.55 18.54 171.55 18.69 59.46 18.69 59.46 18.54" fill="#9e0000" fill-rule="evenodd"/><polyline points="171.55 18.64 171.55 18.79 59.46 18.79 59.46 18.64" fill="#9e0000" fill-rule="evenodd"/><polyline points="171.55 18.74 171.55 18.89 59.46 18.89 59.46 18.74" fill="#9e0000" fill-rule="evenodd"/><polyline points="171.55 18.84 171.55 18.99 59.46 18.99 59.46 18.84" fill="#9e0000" fill-rule="evenodd"/><polyline points="171.55 18.94 171.55 19.09 59.46 19.09 59.46 18.94" fill="#9e0000" fill-rule="evenodd"/><polyline points="171.55 19.04 171.55 19.19 59.46 19.19 59.46 19.04" fill="#9e0000" fill-rule="evenodd"/><polyline points="171.55 19.14 171.55 19.29 59.46 19.29 59.46 19.14" fill="#9e0000" fill-rule="evenodd"/><polyline points="171.55 19.24 171.55 19.39 59.46 19.39 59.46 19.24" fill="#9e0000" fill-rule="evenodd"/><polyline points="171.55 19.34 171.55 19.48 59.46 19.48 59.46 19.34" fill="#9e0000" fill-rule="evenodd"/><polyline points="171.55 19.44 171.55 19.59 59.46 19.59 59.46 19.44" fill="#9e0000" fill-rule="evenodd"/><polyline points="171.55 19.54 171.55 19.68 59.46 19.68 59.46 19.54" fill="#9e0000" fill-rule="evenodd"/><polyline points="171.55 19.63 171.55 19.78 59.46 19.78 59.46 19.63" fill="#9e0000" fill-rule="evenodd"/><polyline points="171.55 19.73 171.55 19.88 59.46 19.88 59.46 19.73" fill="#9e0000" fill-rule="evenodd"/><polyline points="171.55 19.83 171.55 19.98 59.46 19.98 59.46 19.83" fill="#9e0000" fill-rule="evenodd"/><polyline points="171.55 19.93 171.55 20.08 59.46 20.08 59.46 19.93" fill="#9e0000" fill-rule="evenodd"/><polyline points="171.55 20.03 171.55 20.18 59.46 20.18 59.46 20.03" fill="#9e0000" fill-rule="evenodd"/><polyline points="171.55 20.13 171.55 20.28 59.46 20.28 59.46 20.13" fill="#9e0000" fill-rule="evenodd"/><polyline points="171.55 20.23 171.55 20.38 59.46 20.38 59.46 20.23" fill="#9e0000" fill-rule="evenodd"/><polyline points="171.55 20.33 171.55 20.48 59.46 20.48 59.46 20.33" fill="#9e0000" fill-rule="evenodd"/><polyline points="171.55 20.43 171.55 20.58 59.46 20.58 59.46 20.43" fill="#9e0000" fill-rule="evenodd"/><polyline points="171.55 20.53 171.55 20.68 59.46 20.68 59.46 20.53" fill="#9e0000" fill-rule="evenodd"/><polyline points="171.55 20.63 171.55 20.78 59.46 20.78 59.46 20.63" fill="#9e0000" fill-rule="evenodd"/><polyline points="171.55 20.73 171.55 20.88 59.46 20.88 59.46 20.73" fill="#9e0000" fill-rule="evenodd"/><polyline points="171.55 20.83 171.55 20.98 59.46 20.98 59.46 20.83" fill="#9e0000" fill-rule="evenodd"/><polyline points="171.55 20.93 171.55 21.07 59.46 21.07 59.46 20.93" fill="#9e0000" fill-rule="evenodd"/><polyline points="171.55 21.02 171.55 21.17 59.46 21.17 59.46 21.02" fill="#9e0000" fill-rule="evenodd"/><polyline points="171.55 21.12 171.55 21.27 59.46 21.27 59.46 21.12" fill="#9e0000" fill-rule="evenodd"/><polyline points="171.55 21.22 171.55 21.37 59.46 21.37 59.46 21.22" fill="#9e0000" fill-rule="evenodd"/><polyline points="171.55 21.32 171.55 21.47 59.46 21.47 59.46 21.32" fill="#9e0000" fill-rule="evenodd"/><polyline points="171.55 21.42 171.55 21.57 59.46 21.57 59.46 21.42" fill="#9e0000" fill-rule="evenodd"/><polyline points="171.55 21.52 171.55 21.67 59.46 21.67 59.46 21.52" fill="#9e0000" fill-rule="evenodd"/><polyline points="171.55 21.62 171.55 21.77 59.46 21.77 59.46 21.62" fill="#9e0000" fill-rule="evenodd"/><polyline points="171.55 21.72 171.55 21.87 59.46 21.87 59.46 21.72" fill="#9e0000" fill-rule="evenodd"/><polyline points="171.55 21.82 171.55 21.97 59.46 21.97 59.46 21.82" fill="#9e0000" fill-rule="evenodd"/><polyline points="171.55 21.92 171.55 22.07 59.46 22.07 59.46 21.92" fill="#9e0000" fill-rule="evenodd"/><polyline points="171.55 22.02 171.55 22.17 59.46 22.17 59.46 22.02" fill="#9e0000" fill-rule="evenodd"/><polyline points="171.55 22.12 171.55 22.27 59.46 22.27 59.46 22.12" fill="#9e0000" fill-rule="evenodd"/><polyline points="171.55 22.22 171.55 22.36 59.46 22.36 59.46 22.22" fill="#9e0000" fill-rule="evenodd"/><polyline points="171.55 22.32 171.55 22.46 59.46 22.46 59.46 22.32" fill="#9e0000" fill-rule="evenodd"/><polyline points="171.55 22.41 171.55 22.56 59.46 22.56 59.46 22.41" fill="#9e0000" fill-rule="evenodd"/><polyline points="171.55 22.51 171.55 22.66 59.46 22.66 59.46 22.51" fill="#9e0000" fill-rule="evenodd"/><polyline points="171.55 22.61 171.55 22.76 59.46 22.76 59.46 22.61" fill="#9e0000" fill-rule="evenodd"/><polyline points="171.55 22.71 171.55 22.86 59.46 22.86 59.46 22.71" fill="#9e0000" fill-rule="evenodd"/><polyline points="171.55 22.81 171.55 22.96 59.46 22.96 59.46 22.81" fill="#9e0000" fill-rule="evenodd"/><polyline points="171.55 22.91 171.55 23.06 59.46 23.06 59.46 22.91" fill="#9e0000" fill-rule="evenodd"/><polyline points="171.55 23.01 171.55 23.16 59.46 23.16 59.46 23.01" fill="#9e0000" fill-rule="evenodd"/><polyline points="171.55 23.11 171.55 23.26 59.46 23.26 59.46 23.11" fill="#9e0000" fill-rule="evenodd"/><polyline points="171.55 23.21 171.55 23.36 59.46 23.36 59.46 23.21" fill="#9e0000" fill-rule="evenodd"/><polyline points="171.55 23.31 171.55 23.46 59.46 23.46 59.46 23.31" fill="#9e0000" fill-rule="evenodd"/><polyline points="171.55 23.41 171.55 23.56 59.46 23.56 59.46 23.41" fill="#9e0000" fill-rule="evenodd"/><polyline points="171.55 23.51 171.55 23.66 59.46 23.66 59.46 23.51" fill="#9e0000" fill-rule="evenodd"/><polyline points="171.55 23.61 171.55 23.75 59.46 23.75 59.46 23.61" fill="#9e0000" fill-rule="evenodd"/><polyline points="171.55 23.7 171.55 23.85 59.46 23.85 59.46 23.7" fill="#9e0000" fill-rule="evenodd"/><polyline points="171.55 23.8 171.55 23.95 59.46 23.95 59.46 23.8" fill="#9e0000" fill-rule="evenodd"/><polyline points="171.55 23.9 171.55 24.05 59.46 24.05 59.46 23.9" fill="#9e0000" fill-rule="evenodd"/><polyline points="171.55 24 171.55 24.15 59.46 24.15 59.46 24" fill="#9e0000" fill-rule="evenodd"/><polyline points="171.55 24.1 171.55 24.25 59.46 24.25 59.46 24.1" fill="#9e0000" fill-rule="evenodd"/><polyline points="171.55 24.2 171.55 24.35 59.46 24.35 59.46 24.2" fill="#9e0000" fill-rule="evenodd"/><polyline points="171.55 24.3 171.55 24.45 59.46 24.45 59.46 24.3" fill="#9e0000" fill-rule="evenodd"/><polyline points="171.55 24.4 171.55 24.55 59.46 24.55 59.46 24.4" fill="#9e0000" fill-rule="evenodd"/><polyline points="171.55 24.5 171.55 24.65 59.46 24.65 59.46 24.5" fill="#9e0000" fill-rule="evenodd"/><polyline points="171.55 24.6 171.55 24.75 59.46 24.75 59.46 24.6" fill="#9e0000" fill-rule="evenodd"/><polyline points="171.55 24.7 171.55 24.85 59.46 24.85 59.46 24.7" fill="#9e0000" fill-rule="evenodd"/><polyline points="171.55 24.8 171.55 24.95 59.46 24.95 59.46 24.8" fill="#9e0000" fill-rule="evenodd"/><polyline points="171.55 24.9 171.55 25.05 59.46 25.05 59.46 24.9" fill="#9e0000" fill-rule="evenodd"/><polyline points="171.55 25 171.55 25.14 59.46 25.14 59.46 25" fill="#9e0000" fill-rule="evenodd"/><polyline points="171.55 25.09 171.55 25.24 59.46 25.24 59.46 25.09" fill="#9e0000" fill-rule="evenodd"/><polyline points="171.55 25.19 171.55 25.34 59.46 25.34 59.46 25.19" fill="#9e0000" fill-rule="evenodd"/><polyline points="171.55 25.29 171.55 25.44 59.46 25.44 59.46 25.29" fill="#9e0000" fill-rule="evenodd"/><polyline points="171.55 25.39 171.55 25.54 59.46 25.54 59.46 25.39" fill="#9e0000" fill-rule="evenodd"/><polyline points="171.55 25.49 171.55 25.64 59.46 25.64 59.46 25.49" fill="#9e0000" fill-rule="evenodd"/><polyline points="171.55 25.59 171.55 25.74 59.46 25.74 59.46 25.59" fill="#9e0000" fill-rule="evenodd"/><polyline points="171.55 25.69 171.55 25.84 59.46 25.84 59.46 25.69" fill="#9e0000" fill-rule="evenodd"/><polyline points="171.55 25.79 171.55 25.94 59.46 25.94 59.46 25.79" fill="#9e0000" fill-rule="evenodd"/><polyline points="171.55 25.89 171.55 26.04 59.46 26.04 59.46 25.89" fill="#9e0000" fill-rule="evenodd"/><polyline points="171.55 25.99 171.55 26.14 59.46 26.14 59.46 25.99" fill="#9e0000" fill-rule="evenodd"/><polyline points="171.55 26.09 171.55 26.24 59.46 26.24 59.46 26.09" fill="#9e0000" fill-rule="evenodd"/><polyline points="171.55 26.19 171.55 26.34 59.46 26.34 59.46 26.19" fill="#9e0000" fill-rule="evenodd"/><polyline points="171.55 26.29 171.55 26.43 59.46 26.43 59.46 26.29" fill="#9e0000" fill-rule="evenodd"/><polyline points="171.55 26.39 171.55 26.53 59.46 26.53 59.46 26.39" fill="#9e0000" fill-rule="evenodd"/><polyline points="171.55 26.48 171.55 26.63 59.46 26.63 59.46 26.48" fill="#9e0000" fill-rule="evenodd"/><polyline points="171.55 26.58 171.55 26.73 59.46 26.73 59.46 26.58" fill="#9e0000" fill-rule="evenodd"/><polyline points="171.55 26.68 171.55 26.83 59.46 26.83 59.46 26.68" fill="#9e0000" fill-rule="evenodd"/><polyline points="171.55 26.78 171.55 26.93 59.46 26.93 59.46 26.78" fill="#9e0000" fill-rule="evenodd"/><polyline points="171.55 26.88 171.55 27.03 59.46 27.03 59.46 26.88" fill="#9e0000" fill-rule="evenodd"/><polyline points="171.55 26.98 171.55 27.13 59.46 27.13 59.46 26.98" fill="#9e0000" fill-rule="evenodd"/><polyline points="171.55 27.08 171.55 27.23 59.46 27.23 59.46 27.08" fill="#9e0000" fill-rule="evenodd"/><polyline points="171.55 27.18 171.55 27.33 59.46 27.33 59.46 27.18" fill="#9e0000" fill-rule="evenodd"/><polyline points="171.55 27.28 171.55 27.43 59.46 27.43 59.46 27.28" fill="#9e0000" fill-rule="evenodd"/><polyline points="171.55 27.38 171.55 27.53 59.46 27.53 59.46 27.38" fill="#9e0000" fill-rule="evenodd"/><polyline points="171.55 27.48 171.55 27.63 59.46 27.63 59.46 27.48" fill="#9e0000" fill-rule="evenodd"/><polyline points="171.55 27.58 171.55 27.73 59.46 27.73 59.46 27.58" fill="#9e0000" fill-rule="evenodd"/><polyline points="171.55 27.68 171.55 27.82 59.46 27.82 59.46 27.68" fill="#9e0000" fill-rule="evenodd"/><polyline points="171.55 27.77 171.55 27.92 59.46 27.92 59.46 27.77" fill="#9e0000" fill-rule="evenodd"/><polyline points="171.55 27.88 171.55 28.02 59.46 28.02 59.46 27.88" fill="#9e0000" fill-rule="evenodd"/><polyline points="171.55 27.97 171.55 28.12 59.46 28.12 59.46 27.97" fill="#9e0000" fill-rule="evenodd"/><polyline points="171.55 28.07 171.55 28.22 59.46 28.22 59.46 28.07" fill="#9e0000" fill-rule="evenodd"/><polyline points="171.55 28.17 171.55 28.32 59.46 28.32 59.46 28.17" fill="#9e0000" fill-rule="evenodd"/><polyline points="171.55 28.27 171.55 28.42 59.46 28.42 59.46 28.27" fill="#9e0000" fill-rule="evenodd"/><polyline points="171.55 28.37 171.55 28.52 59.46 28.52 59.46 28.37" fill="#9e0000" fill-rule="evenodd"/><polyline points="171.55 28.47 171.55 28.62 59.46 28.62 59.46 28.47" fill="#9e0000" fill-rule="evenodd"/><polyline points="171.55 28.57 171.55 28.72 59.46 28.72 59.46 28.57" fill="#9e0000" fill-rule="evenodd"/><polyline points="171.55 28.67 171.55 28.82 59.46 28.82 59.46 28.67" fill="#9e0000" fill-rule="evenodd"/><polyline points="171.55 28.77 171.55 28.92 59.46 28.92 59.46 28.77" fill="#9e0000" fill-rule="evenodd"/><polyline points="171.55 28.87 171.55 29.02 59.46 29.02 59.46 28.87" fill="#9e0000" fill-rule="evenodd"/><polyline points="171.55 28.97 171.55 29.12 59.46 29.12 59.46 28.97" fill="#9e0000" fill-rule="evenodd"/><polyline points="171.55 29.07 171.55 29.21 59.46 29.21 59.46 29.07" fill="#9e0000" fill-rule="evenodd"/><polyline points="171.55 29.16 171.55 29.31 59.46 29.31 59.46 29.16" fill="#9e0000" fill-rule="evenodd"/><polyline points="171.55 29.27 171.55 29.41 59.46 29.41 59.46 29.27" fill="#9e0000" fill-rule="evenodd"/><polyline points="171.55 29.36 171.55 29.51 59.46 29.51 59.46 29.36" fill="#9e0000" fill-rule="evenodd"/><polyline points="171.55 29.46 171.55 29.61 59.46 29.61 59.46 29.46" fill="#9e0000" fill-rule="evenodd"/><polyline points="171.55 29.56 171.55 29.71 59.46 29.71 59.46 29.56" fill="#9e0000" fill-rule="evenodd"/><polyline points="171.55 29.66 171.55 29.81 59.46 29.81 59.46 29.66" fill="#9e0000" fill-rule="evenodd"/><polyline points="171.55 29.76 171.55 29.91 59.46 29.91 59.46 29.76" fill="#9e0000" fill-rule="evenodd"/><polyline points="171.55 29.86 171.55 30.01 59.46 30.01 59.46 29.86" fill="#9e0000" fill-rule="evenodd"/><polyline points="171.55 29.96 171.55 30.11 59.46 30.11 59.46 29.96" fill="#9e0000" fill-rule="evenodd"/><polyline points="171.55 30.06 171.55 30.21 59.46 30.21 59.46 30.06" fill="#9e0000" fill-rule="evenodd"/><polyline points="171.55 30.16 171.55 30.31 59.46 30.31 59.46 30.16" fill="#9e0000" fill-rule="evenodd"/><polyline points="171.55 30.26 171.55 30.41 59.46 30.41 59.46 30.26" fill="#9e0000" fill-rule="evenodd"/><polyline points="171.55 30.36 171.55 30.51 59.46 30.51 59.46 30.36" fill="#9e0000" fill-rule="evenodd"/><polyline points="171.55 30.46 171.55 30.61 59.46 30.61 59.46 30.46" fill="#9e0000" fill-rule="evenodd"/><polyline points="171.55 30.55 171.55 30.7 59.46 30.7 59.46 30.55" fill="#9e0000" fill-rule="evenodd"/><polyline points="171.55 30.66 171.55 30.73 59.46 30.73 59.46 30.66" fill="#9e0000" fill-rule="evenodd"/></g><path d="M20.13,24.75h0Zm-0.3-.06h0Zm-1-.34,0.07,0Zm-0.08,0,0.07,0Zm-7.9-12.8a4.3,4.3,0,0,0-1.43,3.15c0.07,4.1,10.91,5,9.24,9.6,4-3,1-5.78-2.62-8.14A19.38,19.38,0,0,1,11,11.47Z" transform="translate(0 1.53)" fill="#9e0000" fill-rule="evenodd"/><g clip-path="url(#b)"><polyline points="22.68 13.53 22.68 13.53 9.5 13.53 9.5 13.53" fill="#9e0000" fill-rule="evenodd"/><polyline points="22.68 13.53 22.68 13.53 9.5 13.53 9.5 13.53" fill="#9e0000" fill-rule="evenodd"/><polyline points="22.17 13.53 22.17 13.53 9.55 13.53 9.55 13.53" fill="#9e0000" fill-rule="evenodd"/><polyline points="22.17 13.53 22.17 13.53 9.55 13.53 9.55 13.53" fill="#9e0000" fill-rule="evenodd"/><polyline points="22.68 13.53 22.68 13.53 9.5 13.53 9.5 13.53" fill="#9e0000" fill-rule="evenodd"/><polyline points="22.68 13.53 22.68 13.53 9.5 13.53 9.5 13.53" fill="#9e0000" fill-rule="evenodd"/><polyline points="22.17 13.53 22.17 13.53 9.55 13.53 9.55 13.53" fill="#9e0000" fill-rule="evenodd"/><polyline points="22.68 13.53 22.68 13.53 9.5 13.53 9.5 13.53" fill="#9e0000" fill-rule="evenodd"/><polyline points="22.68 13.53 22.68 13.53 9.5 13.53 9.5 13.53" fill="#9e0000" fill-rule="evenodd"/><polyline points="22 13.53 22 14.53 10 14.53 10 13.53" fill="#9e0000" fill-rule="evenodd"/><polyline points="22 13.53 22 14.53 10 14.53 10 13.53" fill="#9e0000" fill-rule="evenodd"/><polyline points="22.68 14.53 22.68 14.53 9.5 14.53 9.5 14.53" fill="#9e0000" fill-rule="evenodd"/><polyline points="22.68 14.53 22.68 14.53 9.5 14.53 9.5 14.53" fill="#9e0000" fill-rule="evenodd"/><polyline points="22.17 14.53 22.17 14.53 9.55 14.53 9.55 14.53" fill="#9e0000" fill-rule="evenodd"/><polyline points="22.17 14.53 22.17 14.53 9.55 14.53 9.55 14.53" fill="#9e0000" fill-rule="evenodd"/><polyline points="22.68 14.53 22.68 14.53 9.5 14.53 9.5 14.53" fill="#9e0000" fill-rule="evenodd"/><polyline points="22.68 14.53 22.68 14.53 9.5 14.53 9.5 14.53" fill="#9e0000" fill-rule="evenodd"/><polyline points="22.17 14.53 22.17 14.53 9.55 14.53 9.55 14.53" fill="#9e0000" fill-rule="evenodd"/><polyline points="22.68 14.53 22.68 14.53 9.5 14.53 9.5 14.53" fill="#9e0000" fill-rule="evenodd"/><polyline points="22.68 14.53 22.68 14.53 9.5 14.53 9.5 14.53" fill="#9e0000" fill-rule="evenodd"/><polyline points="22.68 14.53 22.68 14.53 9.5 14.53 9.5 14.53" fill="#9e0000" fill-rule="evenodd"/><polyline points="22.17 14.53 22.17 14.53 9.55 14.53 9.55 14.53" fill="#9e0000" fill-rule="evenodd"/><polyline points="22.68 14.53 22.68 14.53 9.5 14.53 9.5 14.53" fill="#9e0000" fill-rule="evenodd"/><polyline points="22.68 14.53 22.68 14.53 9.5 14.53 9.5 14.53" fill="#9e0000" fill-rule="evenodd"/><polyline points="22.17 14.53 22.17 14.53 9.55 14.53 9.55 14.53" fill="#9e0000" fill-rule="evenodd"/><polyline points="22.17 14.53 22.17 14.53 9.55 14.53 9.55 14.53" fill="#9e0000" fill-rule="evenodd"/><polyline points="22.68 14.53 22.68 14.53 9.5 14.53 9.5 14.53" fill="#9e0000" fill-rule="evenodd"/><polyline points="22.68 14.53 22.68 14.53 9.5 14.53 9.5 14.53" fill="#9e0000" fill-rule="evenodd"/><polyline points="22 14.53 22 15.53 10 15.53 10 14.53" fill="#9e0000" fill-rule="evenodd"/><polyline points="22 14.53 22 15.53 10 15.53 10 14.53" fill="#9e0000" fill-rule="evenodd"/><polyline points="22.68 15.53 22.68 15.53 9.5 15.53 9.5 15.53" fill="#9e0000" fill-rule="evenodd"/><polyline points="22.68 15.53 22.68 15.53 9.5 15.53 9.5 15.53" fill="#9e0000" fill-rule="evenodd"/><polyline points="22.17 15.53 22.17 15.53 9.55 15.53 9.55 15.53" fill="#9e0000" fill-rule="evenodd"/><polyline points="22.68 15.53 22.68 15.53 9.5 15.53 9.5 15.53" fill="#9e0000" fill-rule="evenodd"/><polyline points="22.68 15.53 22.68 15.53 9.5 15.53 9.5 15.53" fill="#9e0000" fill-rule="evenodd"/><polyline points="22.17 15.53 22.17 15.53 9.55 15.53 9.55 15.53" fill="#9e0000" fill-rule="evenodd"/><polyline points="22.17 15.53 22.17 15.53 9.55 15.53 9.55 15.53" fill="#9e0000" fill-rule="evenodd"/><polyline points="22.68 15.53 22.68 15.53 9.5 15.53 9.5 15.53" fill="#9e0000" fill-rule="evenodd"/><polyline points="22.68 15.53 22.68 15.53 9.5 15.53 9.5 15.53" fill="#9e0000" fill-rule="evenodd"/><polyline points="22.17 15.53 22.17 15.53 9.55 15.53 9.55 15.53" fill="#9e0000" fill-rule="evenodd"/><polyline points="22.17 15.53 22.17 15.53 9.55 15.53 9.55 15.53" fill="#9e0000" fill-rule="evenodd"/><polyline points="22.68 15.53 22.68 15.53 9.5 15.53 9.5 15.53" fill="#9e0000" fill-rule="evenodd"/><polyline points="22.68 15.53 22.68 15.53 9.5 15.53 9.5 15.53" fill="#9e0000" fill-rule="evenodd"/><polyline points="22.17 15.53 22.17 15.53 9.55 15.53 9.55 15.53" fill="#9e0000" fill-rule="evenodd"/><polyline points="22.68 15.53 22.68 15.53 9.5 15.53 9.5 15.53" fill="#9e0000" fill-rule="evenodd"/><polyline points="22.68 15.53 22.68 15.53 9.5 15.53 9.5 15.53" fill="#9e0000" fill-rule="evenodd"/><polyline points="22.68 15.53 22.68 15.53 9.5 15.53 9.5 15.53" fill="#9e0000" fill-rule="evenodd"/><polyline points="22.17 15.53 22.17 15.53 9.55 15.53 9.55 15.53" fill="#9e0000" fill-rule="evenodd"/><polyline points="22.68 15.53 22.68 15.53 9.5 15.53 9.5 15.53" fill="#9e0000" fill-rule="evenodd"/><polyline points="22.68 15.53 22.68 15.53 9.5 15.53 9.5 15.53" fill="#9e0000" fill-rule="evenodd"/><polyline points="22 15.53 22 16.53 10 16.53 10 15.53" fill="#9e0000" fill-rule="evenodd"/><polyline points="22 15.53 22 16.53 10 16.53 10 15.53" fill="#9e0000" fill-rule="evenodd"/><polyline points="22.68 16.53 22.68 16.53 9.5 16.53 9.5 16.53" fill="#9e0000" fill-rule="evenodd"/><polyline points="22.68 16.53 22.68 16.53 9.5 16.53 9.5 16.53" fill="#9e0000" fill-rule="evenodd"/><polyline points="22.17 16.53 22.17 16.53 9.55 16.53 9.55 16.53" fill="#9e0000" fill-rule="evenodd"/><polyline points="22.17 16.53 22.17 16.53 9.55 16.53 9.55 16.53" fill="#9e0000" fill-rule="evenodd"/><polyline points="22.68 16.53 22.68 16.53 9.5 16.53 9.5 16.53" fill="#9e0000" fill-rule="evenodd"/><polyline points="22.68 16.53 22.68 16.53 9.5 16.53 9.5 16.53" fill="#9e0000" fill-rule="evenodd"/><polyline points="22.17 16.53 22.17 16.53 9.55 16.53 9.55 16.53" fill="#9e0000" fill-rule="evenodd"/><polyline points="22.68 16.53 22.68 16.53 9.5 16.53 9.5 16.53" fill="#9e0000" fill-rule="evenodd"/><polyline points="22.68 16.53 22.68 16.53 9.5 16.53 9.5 16.53" fill="#9e0000" fill-rule="evenodd"/><polyline points="22.17 16.53 22.17 16.53 9.55 16.53 9.55 16.53" fill="#9e0000" fill-rule="evenodd"/><polyline points="22.17 16.53 22.17 16.53 9.55 16.53 9.55 16.53" fill="#9e0000" fill-rule="evenodd"/><polyline points="22.68 16.53 22.68 16.53 9.5 16.53 9.5 16.53" fill="#9e0000" fill-rule="evenodd"/><polyline points="22.68 16.53 22.68 16.53 9.5 16.53 9.5 16.53" fill="#9e0000" fill-rule="evenodd"/><polyline points="22.17 16.53 22.17 16.53 9.55 16.53 9.55 16.53" fill="#9e0000" fill-rule="evenodd"/><polyline points="22.17 16.53 22.17 16.53 9.55 16.53 9.55 16.53" fill="#9e0000" fill-rule="evenodd"/><polyline points="22.68 16.53 22.68 16.53 9.5 16.53 9.5 16.53" fill="#9e0000" fill-rule="evenodd"/><polyline points="22.68 16.53 22.68 16.53 9.5 16.53 9.5 16.53" fill="#9e0000" fill-rule="evenodd"/><polyline points="22 16.53 22 18.53 10 18.53 10 16.53" fill="#9e0000" fill-rule="evenodd"/><polyline points="22.68 18.53 22.68 18.53 9.5 18.53 9.5 18.53" fill="#9e0000" fill-rule="evenodd"/><polyline points="22.68 18.53 22.68 18.53 9.5 18.53 9.5 18.53" fill="#9e0000" fill-rule="evenodd"/><polyline points="22.68 18.53 22.68 18.53 9.5 18.53 9.5 18.53" fill="#9e0000" fill-rule="evenodd"/><polyline points="22.17 18.53 22.17 18.53 9.55 18.53 9.55 18.53" fill="#9e0000" fill-rule="evenodd"/><polyline points="22.68 18.53 22.68 18.53 9.5 18.53 9.5 18.53" fill="#9e0000" fill-rule="evenodd"/><polyline points="22.68 18.53 22.68 18.53 9.5 18.53 9.5 18.53" fill="#9e0000" fill-rule="evenodd"/><polyline points="22.17 18.53 22.17 18.53 9.55 18.53 9.55 18.53" fill="#9e0000" fill-rule="evenodd"/><polyline points="22.17 18.53 22.17 18.53 9.55 18.53 9.55 18.53" fill="#9e0000" fill-rule="evenodd"/><polyline points="22.68 18.53 22.68 18.53 9.5 18.53 9.5 18.53" fill="#9e0000" fill-rule="evenodd"/><polyline points="22.68 18.53 22.68 18.53 9.5 18.53 9.5 18.53" fill="#9e0000" fill-rule="evenodd"/><polyline points="22.17 18.53 22.17 18.53 9.55 18.53 9.55 18.53" fill="#9e0000" fill-rule="evenodd"/><polyline points="22.68 18.53 22.68 18.53 9.5 18.53 9.5 18.53" fill="#9e0000" fill-rule="evenodd"/><polyline points="22.68 18.53 22.68 18.53 9.5 18.53 9.5 18.53" fill="#9e0000" fill-rule="evenodd"/><polyline points="22.68 18.53 22.68 18.53 9.5 18.53 9.5 18.53" fill="#9e0000" fill-rule="evenodd"/><polyline points="22.17 18.53 22.17 18.53 9.55 18.53 9.55 18.53" fill="#9e0000" fill-rule="evenodd"/><polyline points="22.68 18.53 22.68 18.53 9.5 18.53 9.5 18.53" fill="#9e0000" fill-rule="evenodd"/><polyline points="22.68 18.53 22.68 18.53 9.5 18.53 9.5 18.53" fill="#9e0000" fill-rule="evenodd"/><polyline points="22 18.53 22 19.53 10 19.53 10 18.53" fill="#9e0000" fill-rule="evenodd"/><polyline points="22 18.53 22 19.53 10 19.53 10 18.53" fill="#9e0000" fill-rule="evenodd"/><polyline points="22.68 19.53 22.68 19.53 9.5 19.53 9.5 19.53" fill="#9e0000" fill-rule="evenodd"/><polyline points="22.68 19.53 22.68 19.53 9.5 19.53 9.5 19.53" fill="#9e0000" fill-rule="evenodd"/><polyline points="22.17 19.53 22.17 19.53 9.55 19.53 9.55 19.53" fill="#9e0000" fill-rule="evenodd"/><polyline points="22.17 19.53 22.17 19.53 9.55 19.53 9.55 19.53" fill="#9e0000" fill-rule="evenodd"/><polyline points="22.68 19.53 22.68 19.53 9.5 19.53 9.5 19.53" fill="#9e0000" fill-rule="evenodd"/><polyline points="22.68 19.53 22.68 19.53 9.5 19.53 9.5 19.53" fill="#9e0000" fill-rule="evenodd"/><polyline points="22.17 19.53 22.17 19.53 9.55 19.53 9.55 19.53" fill="#9e0000" fill-rule="evenodd"/><polyline points="22.68 19.53 22.68 19.53 9.5 19.53 9.5 19.53" fill="#9e0000" fill-rule="evenodd"/><polyline points="22.68 19.53 22.68 19.53 9.5 19.53 9.5 19.53" fill="#9e0000" fill-rule="evenodd"/><polyline points="22.68 19.53 22.68 19.53 9.5 19.53 9.5 19.53" fill="#9e0000" fill-rule="evenodd"/><polyline points="22.17 19.53 22.17 19.53 9.55 19.53 9.55 19.53" fill="#9e0000" fill-rule="evenodd"/><polyline points="22.68 19.53 22.68 19.53 9.5 19.53 9.5 19.53" fill="#9e0000" fill-rule="evenodd"/><polyline points="22.68 19.53 22.68 19.53 9.5 19.53 9.5 19.53" fill="#9e0000" fill-rule="evenodd"/><polyline points="22.17 19.53 22.17 19.53 9.55 19.53 9.55 19.53" fill="#9e0000" fill-rule="evenodd"/><polyline points="22.17 19.53 22.17 19.53 9.55 19.53 9.55 19.53" fill="#9e0000" fill-rule="evenodd"/><polyline points="22.68 19.53 22.68 19.53 9.5 19.53 9.5 19.53" fill="#9e0000" fill-rule="evenodd"/><polyline points="22.68 19.53 22.68 19.53 9.5 19.53 9.5 19.53" fill="#9e0000" fill-rule="evenodd"/><polyline points="22.17 19.53 22.17 19.53 9.55 19.53 9.55 19.53" fill="#9e0000" fill-rule="evenodd"/><polyline points="22.68 19.53 22.68 19.53 9.5 19.53 9.5 19.53" fill="#9e0000" fill-rule="evenodd"/><polyline points="22.68 19.53 22.68 19.53 9.5 19.53 9.5 19.53" fill="#9e0000" fill-rule="evenodd"/><polyline points="22.68 19.53 22.68 19.53 9.5 19.53 9.5 19.53" fill="#9e0000" fill-rule="evenodd"/><polyline points="22 19.53 22 20.53 10 20.53 10 19.53" fill="#9e0000" fill-rule="evenodd"/><polyline points="22.68 20.53 22.68 20.53 9.5 20.53 9.5 20.53" fill="#9e0000" fill-rule="evenodd"/><polyline points="22.68 20.53 22.68 20.53 9.5 20.53 9.5 20.53" fill="#9e0000" fill-rule="evenodd"/><polyline points="22.17 20.53 22.17 20.53 9.55 20.53 9.55 20.53" fill="#9e0000" fill-rule="evenodd"/><polyline points="22.17 20.53 22.17 20.53 9.55 20.53 9.55 20.53" fill="#9e0000" fill-rule="evenodd"/><polyline points="22.68 20.53 22.68 20.53 9.5 20.53 9.5 20.53" fill="#9e0000" fill-rule="evenodd"/><polyline points="22.68 20.53 22.68 20.53 9.5 20.53 9.5 20.53" fill="#9e0000" fill-rule="evenodd"/><polyline points="22.17 20.53 22.17 20.53 9.55 20.53 9.55 20.53" fill="#9e0000" fill-rule="evenodd"/><polyline points="22.17 20.53 22.17 20.53 9.55 20.53 9.55 20.53" fill="#9e0000" fill-rule="evenodd"/><polyline points="22.68 20.53 22.68 20.53 9.5 20.53 9.5 20.53" fill="#9e0000" fill-rule="evenodd"/><polyline points="22.68 20.53 22.68 20.53 9.5 20.53 9.5 20.53" fill="#9e0000" fill-rule="evenodd"/><polyline points="22.17 20.53 22.17 20.53 9.55 20.53 9.55 20.53" fill="#9e0000" fill-rule="evenodd"/><polyline points="22.68 20.53 22.68 20.53 9.5 20.53 9.5 20.53" fill="#9e0000" fill-rule="evenodd"/><polyline points="22.68 20.53 22.68 20.53 9.5 20.53 9.5 20.53" fill="#9e0000" fill-rule="evenodd"/><polyline points="22.17 20.53 22.17 20.53 9.55 20.53 9.55 20.53" fill="#9e0000" fill-rule="evenodd"/><polyline points="22.17 20.53 22.17 20.53 9.55 20.53 9.55 20.53" fill="#9e0000" fill-rule="evenodd"/><polyline points="22.68 20.53 22.68 20.53 9.5 20.53 9.5 20.53" fill="#9e0000" fill-rule="evenodd"/><polyline points="22.68 20.53 22.68 20.53 9.5 20.53 9.5 20.53" fill="#9e0000" fill-rule="evenodd"/><polyline points="22 20.53 22 21.53 10 21.53 10 20.53" fill="#9e0000" fill-rule="evenodd"/><polyline points="22 20.53 22 21.53 10 21.53 10 20.53" fill="#9e0000" fill-rule="evenodd"/><polyline points="22.68 21.53 22.68 21.53 9.5 21.53 9.5 21.53" fill="#9e0000" fill-rule="evenodd"/><polyline points="22.68 21.53 22.68 21.53 9.5 21.53 9.5 21.53" fill="#9e0000" fill-rule="evenodd"/><polyline points="22.17 21.53 22.17 21.53 9.55 21.53 9.55 21.53" fill="#9e0000" fill-rule="evenodd"/><polyline points="22.68 21.53 22.68 21.53 9.5 21.53 9.5 21.53" fill="#9e0000" fill-rule="evenodd"/><polyline points="22.68 21.53 22.68 21.53 9.5 21.53 9.5 21.53" fill="#9e0000" fill-rule="evenodd"/><polyline points="22.68 21.53 22.68 21.53 9.5 21.53 9.5 21.53" fill="#9e0000" fill-rule="evenodd"/><polyline points="22.17 21.53 22.17 21.53 9.55 21.53 9.55 21.53" fill="#9e0000" fill-rule="evenodd"/><polyline points="22.68 21.53 22.68 21.53 9.5 21.53 9.5 21.53" fill="#9e0000" fill-rule="evenodd"/><polyline points="22.68 21.53 22.68 21.53 9.5 21.53 9.5 21.53" fill="#9e0000" fill-rule="evenodd"/><polyline points="22.17 21.53 22.17 21.53 9.55 21.53 9.55 21.53" fill="#9e0000" fill-rule="evenodd"/><polyline points="22.17 21.53 22.17 21.53 9.55 21.53 9.55 21.53" fill="#9e0000" fill-rule="evenodd"/><polyline points="22.68 21.53 22.68 21.53 9.5 21.53 9.5 21.53" fill="#9e0000" fill-rule="evenodd"/><polyline points="22.68 21.53 22.68 21.53 9.5 21.53 9.5 21.53" fill="#9e0000" fill-rule="evenodd"/><polyline points="22.17 21.53 22.17 21.53 9.55 21.53 9.55 21.53" fill="#9e0000" fill-rule="evenodd"/><polyline points="22.17 21.53 22.17 21.53 9.55 21.53 9.55 21.53" fill="#9e0000" fill-rule="evenodd"/><polyline points="22.68 21.53 22.68 21.53 9.5 21.53 9.5 21.53" fill="#9e0000" fill-rule="evenodd"/><polyline points="22.68 21.53 22.68 21.53 9.5 21.53 9.5 21.53" fill="#9e0000" fill-rule="evenodd"/><polyline points="22 21.53 22 22.53 10 22.53 10 21.53" fill="#9e0000" fill-rule="evenodd"/><polyline points="22.68 22.53 22.68 22.53 9.5 22.53 9.5 22.53" fill="#9e0000" fill-rule="evenodd"/><polyline points="22.68 22.53 22.68 22.53 9.5 22.53 9.5 22.53" fill="#9e0000" fill-rule="evenodd"/><polyline points="22.17 22.53 22.17 22.53 9.55 22.53 9.55 22.53" fill="#9e0000" fill-rule="evenodd"/><polyline points="22.17 22.53 22.17 22.53 9.55 22.53 9.55 22.53" fill="#9e0000" fill-rule="evenodd"/><polyline points="22.68 22.53 22.68 22.53 9.5 22.53 9.5 22.53" fill="#9e0000" fill-rule="evenodd"/><polyline points="22.68 22.53 22.68 22.53 9.5 22.53 9.5 22.53" fill="#9e0000" fill-rule="evenodd"/><polyline points="22.17 22.53 22.17 22.53 9.55 22.53 9.55 22.53" fill="#9e0000" fill-rule="evenodd"/><polyline points="22.17 22.53 22.17 22.53 9.55 22.53 9.55 22.53" fill="#9e0000" fill-rule="evenodd"/><polyline points="22.68 22.53 22.68 22.53 9.5 22.53 9.5 22.53" fill="#9e0000" fill-rule="evenodd"/><polyline points="22.68 22.53 22.68 22.53 9.5 22.53 9.5 22.53" fill="#9e0000" fill-rule="evenodd"/><polyline points="22.17 22.53 22.17 22.53 9.55 22.53 9.55 22.53" fill="#9e0000" fill-rule="evenodd"/><polyline points="22.68 22.53 22.68 22.53 9.5 22.53 9.5 22.53" fill="#9e0000" fill-rule="evenodd"/><polyline points="22.68 22.53 22.68 22.53 9.5 22.53 9.5 22.53" fill="#9e0000" fill-rule="evenodd"/><polyline points="22.68 22.53 22.68 22.53 9.5 22.53 9.5 22.53" fill="#9e0000" fill-rule="evenodd"/><polyline points="22.17 22.53 22.17 22.53 9.55 22.53 9.55 22.53" fill="#9e0000" fill-rule="evenodd"/><polyline points="22.68 22.53 22.68 22.53 9.5 22.53 9.5 22.53" fill="#9e0000" fill-rule="evenodd"/><polyline points="22.68 22.53 22.68 22.53 9.5 22.53 9.5 22.53" fill="#9e0000" fill-rule="evenodd"/><polyline points="22.17 22.53 22.17 22.53 9.55 22.53 9.55 22.53" fill="#9e0000" fill-rule="evenodd"/><polyline points="22.17 22.53 22.17 22.53 9.55 22.53 9.55 22.53" fill="#9e0000" fill-rule="evenodd"/><polyline points="22.68 22.53 22.68 22.53 9.5 22.53 9.5 22.53" fill="#9e0000" fill-rule="evenodd"/><polyline points="22.68 22.53 22.68 22.53 9.5 22.53 9.5 22.53" fill="#9e0000" fill-rule="evenodd"/><polyline points="22 22.53 22 24.53 10 24.53 10 22.53" fill="#9e0000" fill-rule="evenodd"/><polyline points="22.68 24.53 22.68 24.53 9.5 24.53 9.5 24.53" fill="#9e0000" fill-rule="evenodd"/><polyline points="22.68 24.53 22.68 24.53 9.5 24.53 9.5 24.53" fill="#9e0000" fill-rule="evenodd"/><polyline points="22.68 24.53 22.68 24.53 9.5 24.53 9.5 24.53" fill="#9e0000" fill-rule="evenodd"/><polyline points="22.17 24.53 22.17 24.53 9.55 24.53 9.55 24.53" fill="#9e0000" fill-rule="evenodd"/><polyline points="22.68 24.53 22.68 24.53 9.5 24.53 9.5 24.53" fill="#9e0000" fill-rule="evenodd"/><polyline points="22.68 24.53 22.68 24.53 9.5 24.53 9.5 24.53" fill="#9e0000" fill-rule="evenodd"/><polyline points="22.17 24.53 22.17 24.53 9.55 24.53 9.55 24.53" fill="#9e0000" fill-rule="evenodd"/><polyline points="22.17 24.53 22.17 24.53 9.55 24.53 9.55 24.53" fill="#9e0000" fill-rule="evenodd"/><polyline points="22.68 24.53 22.68 24.53 9.5 24.53 9.5 24.53" fill="#9e0000" fill-rule="evenodd"/><polyline points="22.68 24.53 22.68 24.53 9.5 24.53 9.5 24.53" fill="#9e0000" fill-rule="evenodd"/><polyline points="22.17 24.53 22.17 24.53 9.55 24.53 9.55 24.53" fill="#9e0000" fill-rule="evenodd"/><polyline points="22.17 24.53 22.17 24.53 9.55 24.53 9.55 24.53" fill="#9e0000" fill-rule="evenodd"/><polyline points="22.68 24.53 22.68 24.53 9.5 24.53 9.5 24.53" fill="#9e0000" fill-rule="evenodd"/><polyline points="22.68 24.53 22.68 24.53 9.5 24.53 9.5 24.53" fill="#9e0000" fill-rule="evenodd"/><polyline points="22.17 24.53 22.17 24.53 9.55 24.53 9.55 24.53" fill="#9e0000" fill-rule="evenodd"/><polyline points="22.68 24.53 22.68 24.53 9.5 24.53 9.5 24.53" fill="#9e0000" fill-rule="evenodd"/><polyline points="22.68 24.53 22.68 24.53 9.5 24.53 9.5 24.53" fill="#9e0000" fill-rule="evenodd"/><polyline points="22.68 24.53 22.68 24.53 9.5 24.53 9.5 24.53" fill="#9e0000" fill-rule="evenodd"/><polyline points="22 24.53 22 25.53 10 25.53 10 24.53" fill="#9e0000" fill-rule="evenodd"/><polyline points="22.68 25.53 22.68 25.53 9.5 25.53 9.5 25.53" fill="#9e0000" fill-rule="evenodd"/><polyline points="22.68 25.53 22.68 25.53 9.5 25.53 9.5 25.53" fill="#9e0000" fill-rule="evenodd"/><polyline points="22.17 25.53 22.17 25.53 9.55 25.53 9.55 25.53" fill="#9e0000" fill-rule="evenodd"/><polyline points="22.17 25.53 22.17 25.53 9.55 25.53 9.55 25.53" fill="#9e0000" fill-rule="evenodd"/><polyline points="22.68 25.53 22.68 25.53 9.5 25.53 9.5 25.53" fill="#9e0000" fill-rule="evenodd"/><polyline points="22.68 25.53 22.68 25.53 9.5 25.53 9.5 25.53" fill="#9e0000" fill-rule="evenodd"/><polyline points="22.17 25.53 22.17 25.53 9.55 25.53 9.55 25.53" fill="#9e0000" fill-rule="evenodd"/><polyline points="22.68 25.53 22.68 25.53 9.5 25.53 9.5 25.53" fill="#9e0000" fill-rule="evenodd"/><polyline points="22.68 25.53 22.68 25.53 9.5 25.53 9.5 25.53" fill="#9e0000" fill-rule="evenodd"/><polyline points="22.68 25.53 22.68 25.53 9.5 25.53 9.5 25.53" fill="#9e0000" fill-rule="evenodd"/><polyline points="22.17 25.53 22.17 25.53 9.55 25.53 9.55 25.53" fill="#9e0000" fill-rule="evenodd"/><polyline points="22.68 25.53 22.68 25.53 9.5 25.53 9.5 25.53" fill="#9e0000" fill-rule="evenodd"/><polyline points="22.68 25.53 22.68 25.53 9.5 25.53 9.5 25.53" fill="#9e0000" fill-rule="evenodd"/><polyline points="22.17 25.53 22.17 25.53 9.55 25.53 9.55 25.53" fill="#9e0000" fill-rule="evenodd"/><polyline points="22.17 25.53 22.17 25.53 9.55 25.53 9.55 25.53" fill="#9e0000" fill-rule="evenodd"/><polyline points="22.68 25.53 22.68 25.53 9.5 25.53 9.5 25.53" fill="#9e0000" fill-rule="evenodd"/><polyline points="22.68 25.53 22.68 25.53 9.5 25.53 9.5 25.53" fill="#9e0000" fill-rule="evenodd"/><polyline points="22 25.53 22 26.53 10 26.53 10 25.53" fill="#9e0000" fill-rule="evenodd"/><polyline points="22 25.53 22 26.53 10 26.53 10 25.53" fill="#9e0000" fill-rule="evenodd"/><polyline points="22.68 26.53 22.68 26.53 9.5 26.53 9.5 26.53" fill="#9e0000" fill-rule="evenodd"/><polyline points="22.68 26.53 22.68 26.53 9.5 26.53 9.5 26.53" fill="#9e0000" fill-rule="evenodd"/><polyline points="22.17 26.53 22.17 26.53 9.55 26.53 9.55 26.53" fill="#9e0000" fill-rule="evenodd"/><polyline points="22.68 26.53 22.68 26.53 9.5 26.53 9.5 26.53" fill="#9e0000" fill-rule="evenodd"/><polyline points="22.68 26.53 22.68 26.53 9.5 26.53 9.5 26.53" fill="#9e0000" fill-rule="evenodd"/><polyline points="22.17 26.53 22.17 26.53 9.55 26.53 9.55 26.53" fill="#9e0000" fill-rule="evenodd"/><polyline points="22.17 26.53 22.17 26.53 9.55 26.53 9.55 26.53" fill="#9e0000" fill-rule="evenodd"/><polyline points="22.68 26.53 22.68 26.53 9.5 26.53 9.5 26.53" fill="#9e0000" fill-rule="evenodd"/><polyline points="22.68 26.53 22.68 26.53 9.5 26.53 9.5 26.53" fill="#9e0000" fill-rule="evenodd"/><polyline points="22.17 26.53 22.17 26.53 9.55 26.53 9.55 26.53" fill="#9e0000" fill-rule="evenodd"/><polyline points="22.17 26.53 22.17 26.53 9.55 26.53 9.55 26.53" fill="#9e0000" fill-rule="evenodd"/><polyline points="22.68 26.53 22.68 26.53 9.5 26.53 9.5 26.53" fill="#9e0000" fill-rule="evenodd"/><polyline points="22.68 26.53 22.68 26.53 9.5 26.53 9.5 26.53" fill="#9e0000" fill-rule="evenodd"/><polyline points="22.17 26.53 22.17 26.53 9.55 26.53 9.55 26.53" fill="#9e0000" fill-rule="evenodd"/><polyline points="22.68 26.53 22.68 26.53 9.5 26.53 9.5 26.53" fill="#9e0000" fill-rule="evenodd"/><polyline points="22.68 26.53 22.68 26.53 9.5 26.53 9.5 26.53" fill="#9e0000" fill-rule="evenodd"/><polyline points="22.68 26.53 22.68 26.53 9.5 26.53 9.5 26.53" fill="#9e0000" fill-rule="evenodd"/><polyline points="22.17 26.53 22.17 26.53 9.55 26.53 9.55 26.53" fill="#9e0000" fill-rule="evenodd"/><polyline points="22.68 26.53 22.68 26.53 9.5 26.53 9.5 26.53" fill="#9e0000" fill-rule="evenodd"/><polyline points="22.68 26.53 22.68 26.53 9.5 26.53 9.5 26.53" fill="#9e0000" fill-rule="evenodd"/><polyline points="22 26.53 22 27.53 10 27.53 10 26.53" fill="#9e0000" fill-rule="evenodd"/><polyline points="22 26.53 22 27.53 10 27.53 10 26.53" fill="#9e0000" fill-rule="evenodd"/></g><path d="M23.36,0.19C18.88,1.22,11.94,3.31,11,8.25c-0.73,3.87,5.84,6.88,8.93,10.05,1.85,1.89,2.24,4-.43,6,5.55,1.34,13.33-3.17,8.9-9.51-2.33-3.33-7.74-5.08-8.59-8C18.72,3,22.66,1.4,23.36.19" transform="translate(0 1.53)" fill="#9e0000" fill-rule="evenodd"/><g clip-path="url(#c)"><polyline points="35.12 3.41 35.12 3.4 11.88 0.05 11.88 0.06" fill="#9e0000" fill-rule="evenodd"/><polyline points="35.12 3.35 35.1 3.51 11.87 0.16 11.89 0" fill="#9e0000" fill-rule="evenodd"/><polyline points="35.11 3.46 35.09 3.62 11.86 0.27 11.88 0.11" fill="#9e0000" fill-rule="evenodd"/><polyline points="35.1 3.56 35.08 3.72 11.85 0.37 11.86 0.21" fill="#9e0000" fill-rule="evenodd"/><polyline points="35.09 3.67 35.07 3.83 11.83 0.48 11.85 0.32" fill="#9e0000" fill-rule="evenodd"/><polyline points="35.07 3.78 35.05 3.94 11.82 0.59 11.84 0.43" fill="#9e0000" fill-rule="evenodd"/><polyline points="35.06 3.88 35.04 4.04 11.81 0.69 11.83 0.53" fill="#9e0000" fill-rule="evenodd"/><polyline points="35.05 3.99 35.03 4.15 11.79 0.8 11.81 0.64" fill="#9e0000" fill-rule="evenodd"/><polyline points="35.03 4.1 35.02 4.26 11.78 0.91 11.8 0.75" fill="#9e0000" fill-rule="evenodd"/><polyline points="35.02 4.2 35 4.36 11.77 1.01 11.79 0.85" fill="#9e0000" fill-rule="evenodd"/><polyline points="35.01 4.31 34.99 4.47 11.76 1.12 11.78 0.96" fill="#9e0000" fill-rule="evenodd"/><polyline points="35 4.42 34.98 4.58 11.74 1.23 11.76 1.07" fill="#9e0000" fill-rule="evenodd"/><polyline points="34.98 4.52 34.97 4.68 11.73 1.33 11.75 1.17" fill="#9e0000" fill-rule="evenodd"/><polyline points="34.97 4.63 34.95 4.79 11.72 1.44 11.74 1.28" fill="#9e0000" fill-rule="evenodd"/><polyline points="34.96 4.74 34.94 4.89 11.71 1.55 11.73 1.39" fill="#9e0000" fill-rule="evenodd"/><polyline points="34.95 4.84 34.93 5 11.69 1.65 11.71 1.49" fill="#9e0000" fill-rule="evenodd"/><polyline points="34.93 4.95 34.91 5.11 11.68 1.76 11.7 1.6" fill="#9e0000" fill-rule="evenodd"/><polyline points="34.92 5.05 34.9 5.21 11.67 1.86 11.69 1.71" fill="#9e0000" fill-rule="evenodd"/><polyline points="34.91 5.16 34.89 5.32 11.66 1.97 11.68 1.81" fill="#9e0000" fill-rule="evenodd"/><polyline points="34.9 5.27 34.88 5.43 11.64 2.08 11.66 1.92" fill="#9e0000" fill-rule="evenodd"/><polyline points="34.88 5.38 34.87 5.54 11.63 2.19 11.65 2.02" fill="#9e0000" fill-rule="evenodd"/><polyline points="34.87 5.48 34.85 5.64 11.62 2.29 11.64 2.13" fill="#9e0000" fill-rule="evenodd"/><polyline points="34.86 5.59 34.84 5.75 11.61 2.4 11.63 2.24" fill="#9e0000" fill-rule="evenodd"/><polyline points="34.85 5.7 34.83 5.86 11.59 2.5 11.61 2.35" fill="#9e0000" fill-rule="evenodd"/><polyline points="34.83 5.8 34.81 5.96 11.58 2.61 11.6 2.45" fill="#9e0000" fill-rule="evenodd"/><polyline points="34.82 5.91 34.8 6.07 11.57 2.72 11.59 2.56" fill="#9e0000" fill-rule="evenodd"/><polyline points="34.81 6.01 34.79 6.17 11.56 2.83 11.57 2.67" fill="#9e0000" fill-rule="evenodd"/><polyline points="34.8 6.12 34.78 6.28 11.54 2.93 11.56 2.77" fill="#9e0000" fill-rule="evenodd"/><polyline points="34.78 6.23 34.76 6.39 11.53 3.04 11.55 2.88" fill="#9e0000" fill-rule="evenodd"/><polyline points="34.77 6.33 34.75 6.49 11.52 3.15 11.54 2.98" fill="#9e0000" fill-rule="evenodd"/><polyline points="34.76 6.44 34.74 6.6 11.51 3.25 11.53 3.09" fill="#9e0000" fill-rule="evenodd"/><polyline points="34.74 6.55 34.73 6.71 11.49 3.36 11.51 3.2" fill="#9e0000" fill-rule="evenodd"/><polyline points="34.73 6.65 34.71 6.81 11.48 3.46 11.5 3.3" fill="#9e0000" fill-rule="evenodd"/><polyline points="34.72 6.76 34.7 6.92 11.47 3.57 11.49 3.41" fill="#9e0000" fill-rule="evenodd"/><polyline points="34.71 6.87 34.69 7.03 11.46 3.68 11.47 3.52" fill="#9e0000" fill-rule="evenodd"/><polyline points="34.7 6.97 34.68 7.13 11.44 3.78 11.46 3.62" fill="#9e0000" fill-rule="evenodd"/><polyline points="34.68 7.08 34.66 7.24 11.43 3.89 11.45 3.73" fill="#9e0000" fill-rule="evenodd"/><polyline points="34.67 7.19 34.65 7.35 11.42 4 11.44 3.84" fill="#9e0000" fill-rule="evenodd"/><polyline points="34.66 7.29 34.64 7.45 11.4 4.1 11.42 3.94" fill="#9e0000" fill-rule="evenodd"/><polyline points="34.64 7.4 34.63 7.56 11.39 4.21 11.41 4.05" fill="#9e0000" fill-rule="evenodd"/><polyline points="34.63 7.51 34.61 7.67 11.38 4.32 11.4 4.16" fill="#9e0000" fill-rule="evenodd"/><polyline points="34.62 7.61 34.6 7.77 11.37 4.42 11.39 4.26" fill="#9e0000" fill-rule="evenodd"/><polyline points="34.61 7.72 34.59 7.88 11.36 4.53 11.37 4.37" fill="#9e0000" fill-rule="evenodd"/><polyline points="34.59 7.83 34.58 7.99 11.34 4.64 11.36 4.48" fill="#9e0000" fill-rule="evenodd"/><polyline points="34.58 7.93 34.56 8.09 11.33 4.74 11.35 4.58" fill="#9e0000" fill-rule="evenodd"/><polyline points="34.57 8.04 34.55 8.2 11.32 4.85 11.34 4.69" fill="#9e0000" fill-rule="evenodd"/><polyline points="34.56 8.15 34.54 8.31 11.3 4.96 11.32 4.8" fill="#9e0000" fill-rule="evenodd"/><polyline points="34.54 8.25 34.52 8.41 11.29 5.06 11.31 4.9" fill="#9e0000" fill-rule="evenodd"/><polyline points="34.53 8.36 34.51 8.52 11.28 5.17 11.3 5.01" fill="#9e0000" fill-rule="evenodd"/><polyline points="34.52 8.47 34.5 8.63 11.27 5.28 11.29 5.12" fill="#9e0000" fill-rule="evenodd"/><polyline points="34.51 8.57 34.49 8.73 11.25 5.38 11.27 5.22" fill="#9e0000" fill-rule="evenodd"/><polyline points="34.49 8.68 34.48 8.84 11.24 5.49 11.26 5.33" fill="#9e0000" fill-rule="evenodd"/><polyline points="34.48 8.79 34.46 8.95 11.23 5.6 11.25 5.44" fill="#9e0000" fill-rule="evenodd"/><polyline points="34.47 8.89 34.45 9.05 11.22 5.7 11.23 5.54" fill="#9e0000" fill-rule="evenodd"/><polyline points="34.46 9 34.44 9.16 11.2 5.81 11.22 5.65" fill="#9e0000" fill-rule="evenodd"/><polyline points="34.44 9.11 34.42 9.27 11.19 5.92 11.21 5.76" fill="#9e0000" fill-rule="evenodd"/><polyline points="34.43 9.21 34.41 9.37 11.18 6.02 11.2 5.86" fill="#9e0000" fill-rule="evenodd"/><polyline points="34.42 9.32 34.4 9.48 11.17 6.13 11.19 5.97" fill="#9e0000" fill-rule="evenodd"/><polyline points="34.41 9.43 34.39 9.59 11.15 6.24 11.17 6.08" fill="#9e0000" fill-rule="evenodd"/><polyline points="34.39 9.53 34.37 9.69 11.14 6.34 11.16 6.18" fill="#9e0000" fill-rule="evenodd"/><polyline points="34.38 9.64 34.36 9.8 11.13 6.45 11.15 6.29" fill="#9e0000" fill-rule="evenodd"/><polyline points="34.37 9.75 34.35 9.9 11.12 6.56 11.13 6.4" fill="#9e0000" fill-rule="evenodd"/><polyline points="34.35 9.85 34.34 10.01 11.1 6.66 11.12 6.5" fill="#9e0000" fill-rule="evenodd"/><polyline points="34.34 9.96 34.32 10.12 11.09 6.77 11.11 6.61" fill="#9e0000" fill-rule="evenodd"/><polyline points="34.33 10.06 34.31 10.22 11.08 6.88 11.1 6.72" fill="#9e0000" fill-rule="evenodd"/><polyline points="34.32 10.17 34.3 10.33 11.06 6.98 11.08 6.82" fill="#9e0000" fill-rule="evenodd"/><polyline points="34.3 10.28 34.29 10.44 11.05 7.09 11.07 6.93" fill="#9e0000" fill-rule="evenodd"/><polyline points="34.29 10.38 34.27 10.54 11.04 7.2 11.06 7.04" fill="#9e0000" fill-rule="evenodd"/><polyline points="34.28 10.49 34.26 10.65 11.03 7.3 11.05 7.14" fill="#9e0000" fill-rule="evenodd"/><polyline points="34.27 10.6 34.25 10.76 11.02 7.41 11.03 7.25" fill="#9e0000" fill-rule="evenodd"/><polyline points="34.26 10.71 34.24 10.87 11 7.51 11.02 7.36" fill="#9e0000" fill-rule="evenodd"/><polyline points="34.24 10.81 34.22 10.97 10.99 7.62 11.01 7.46" fill="#9e0000" fill-rule="evenodd"/><polyline points="34.23 10.92 34.21 11.08 10.98 7.73 11 7.57" fill="#9e0000" fill-rule="evenodd"/><polyline points="34.22 11.03 34.2 11.19 10.96 7.83 10.98 7.67" fill="#9e0000" fill-rule="evenodd"/><polyline points="34.2 11.13 34.19 11.29 10.95 7.94 10.97 7.78" fill="#9e0000" fill-rule="evenodd"/><polyline points="34.19 11.24 34.17 11.4 10.94 8.05 10.96 7.89" fill="#9e0000" fill-rule="evenodd"/><polyline points="34.18 11.35 34.16 11.5 10.93 8.15 10.95 8" fill="#9e0000" fill-rule="evenodd"/><polyline points="34.17 11.45 34.15 11.61 10.91 8.26 10.93 8.1" fill="#9e0000" fill-rule="evenodd"/><polyline points="34.15 11.56 34.13 11.72 10.9 8.37 10.92 8.21" fill="#9e0000" fill-rule="evenodd"/><polyline points="34.14 11.66 34.12 11.82 10.89 8.47 10.91 8.31" fill="#9e0000" fill-rule="evenodd"/><polyline points="34.13 11.77 34.11 11.93 10.88 8.58 10.9 8.42" fill="#9e0000" fill-rule="evenodd"/><polyline points="34.12 11.88 34.1 12.04 10.86 8.69 10.88 8.53" fill="#9e0000" fill-rule="evenodd"/><polyline points="34.1 11.98 34.09 12.14 10.85 8.79 10.87 8.63" fill="#9e0000" fill-rule="evenodd"/><polyline points="34.09 12.09 34.07 12.25 10.84 8.9 10.86 8.74" fill="#9e0000" fill-rule="evenodd"/><polyline points="34.08 12.2 34.06 12.36 10.83 9.01 10.85 8.85" fill="#9e0000" fill-rule="evenodd"/><polyline points="34.07 12.3 34.05 12.46 10.81 9.11 10.83 8.95" fill="#9e0000" fill-rule="evenodd"/><polyline points="34.05 12.41 34.03 12.57 10.8 9.22 10.82 9.06" fill="#9e0000" fill-rule="evenodd"/><polyline points="34.04 12.52 34.02 12.68 10.79 9.33 10.81 9.17" fill="#9e0000" fill-rule="evenodd"/><polyline points="34.03 12.62 34.01 12.78 10.78 9.43 10.79 9.27" fill="#9e0000" fill-rule="evenodd"/><polyline points="34.02 12.73 34 12.89 10.76 9.54 10.78 9.38" fill="#9e0000" fill-rule="evenodd"/><polyline points="34 12.84 33.98 13 10.75 9.65 10.77 9.49" fill="#9e0000" fill-rule="evenodd"/><polyline points="33.99 12.94 33.97 13.1 10.74 9.75 10.76 9.59" fill="#9e0000" fill-rule="evenodd"/><polyline points="33.98 13.05 33.96 13.21 10.73 9.86 10.74 9.7" fill="#9e0000" fill-rule="evenodd"/><polyline points="33.97 13.16 33.95 13.32 10.71 9.97 10.73 9.81" fill="#9e0000" fill-rule="evenodd"/><polyline points="33.95 13.26 33.93 13.42 10.7 10.07 10.72 9.91" fill="#9e0000" fill-rule="evenodd"/><polyline points="33.94 13.37 33.92 13.53 10.69 10.18 10.71 10.02" fill="#9e0000" fill-rule="evenodd"/><polyline points="33.93 13.48 33.91 13.64 10.68 10.29 10.7 10.13" fill="#9e0000" fill-rule="evenodd"/><polyline points="33.91 13.58 33.9 13.74 10.66 10.39 10.68 10.23" fill="#9e0000" fill-rule="evenodd"/><polyline points="33.9 13.69 33.88 13.85 10.65 10.5 10.67 10.34" fill="#9e0000" fill-rule="evenodd"/><polyline points="33.89 13.8 33.87 13.96 10.64 10.61 10.66 10.45" fill="#9e0000" fill-rule="evenodd"/><polyline points="33.88 13.9 33.86 14.06 10.63 10.71 10.64 10.55" fill="#9e0000" fill-rule="evenodd"/><polyline points="33.87 14.01 33.85 14.17 10.61 10.82 10.63 10.66" fill="#9e0000" fill-rule="evenodd"/><polyline points="33.85 14.12 33.83 14.28 10.6 10.93 10.62 10.77" fill="#9e0000" fill-rule="evenodd"/><polyline points="33.84 14.22 33.82 14.38 10.59 11.03 10.61 10.87" fill="#9e0000" fill-rule="evenodd"/><polyline points="33.83 14.33 33.81 14.49 10.57 11.14 10.59 10.98" fill="#9e0000" fill-rule="evenodd"/><polyline points="33.81 14.44 33.8 14.6 10.56 11.25 10.58 11.09" fill="#9e0000" fill-rule="evenodd"/><polyline points="33.8 14.54 33.78 14.7 10.55 11.35 10.57 11.19" fill="#9e0000" fill-rule="evenodd"/><polyline points="33.79 14.65 33.77 14.81 10.54 11.46 10.56 11.3" fill="#9e0000" fill-rule="evenodd"/><polyline points="33.78 14.76 33.76 14.92 10.53 11.57 10.54 11.41" fill="#9e0000" fill-rule="evenodd"/><polyline points="33.76 14.86 33.74 15.02 10.51 11.67 10.53 11.51" fill="#9e0000" fill-rule="evenodd"/><polyline points="33.75 14.97 33.73 15.13 10.5 11.78 10.52 11.62" fill="#9e0000" fill-rule="evenodd"/><polyline points="33.74 15.07 33.72 15.23 10.49 11.89 10.51 11.73" fill="#9e0000" fill-rule="evenodd"/><polyline points="33.73 15.18 33.71 15.34 10.47 11.99 10.49 11.83" fill="#9e0000" fill-rule="evenodd"/><polyline points="33.71 15.29 33.7 15.45 10.46 12.1 10.48 11.94" fill="#9e0000" fill-rule="evenodd"/><polyline points="33.7 15.39 33.68 15.55 10.45 12.21 10.47 12.04" fill="#9e0000" fill-rule="evenodd"/><polyline points="33.69 15.5 33.67 15.66 10.44 12.31 10.46 12.15" fill="#9e0000" fill-rule="evenodd"/><polyline points="33.68 15.61 33.66 15.77 10.42 12.42 10.44 12.26" fill="#9e0000" fill-rule="evenodd"/><polyline points="33.66 15.71 33.65 15.88 10.41 12.53 10.43 12.37" fill="#9e0000" fill-rule="evenodd"/><polyline points="33.65 15.82 33.63 15.98 10.4 12.63 10.42 12.47" fill="#9e0000" fill-rule="evenodd"/><polyline points="33.64 15.93 33.62 16.09 10.39 12.74 10.4 12.58" fill="#9e0000" fill-rule="evenodd"/><polyline points="33.63 16.04 33.61 16.2 10.37 12.85 10.39 12.69" fill="#9e0000" fill-rule="evenodd"/><polyline points="33.61 16.14 33.59 16.3 10.36 12.95 10.38 12.79" fill="#9e0000" fill-rule="evenodd"/><polyline points="33.6 16.25 33.58 16.41 10.35 13.06 10.37 12.9" fill="#9e0000" fill-rule="evenodd"/><polyline points="33.59 16.36 33.57 16.52 10.34 13.16 10.36 13.01" fill="#9e0000" fill-rule="evenodd"/><polyline points="33.58 16.46 33.56 16.62 10.32 13.27 10.34 13.11" fill="#9e0000" fill-rule="evenodd"/><polyline points="33.56 16.57 33.54 16.73 10.31 13.38 10.33 13.22" fill="#9e0000" fill-rule="evenodd"/><polyline points="33.55 16.67 33.53 16.83 10.3 13.48 10.32 13.32" fill="#9e0000" fill-rule="evenodd"/><polyline points="33.54 16.78 33.52 16.94 10.29 13.59 10.3 13.43" fill="#9e0000" fill-rule="evenodd"/><polyline points="33.52 16.89 33.51 17.05 10.27 13.7 10.29 13.54" fill="#9e0000" fill-rule="evenodd"/><polyline points="33.51 16.99 33.49 17.15 10.26 13.8 10.28 13.64" fill="#9e0000" fill-rule="evenodd"/><polyline points="33.5 17.1 33.48 17.26 10.25 13.91 10.27 13.75" fill="#9e0000" fill-rule="evenodd"/><polyline points="33.49 17.21 33.47 17.37 10.24 14.02 10.25 13.86" fill="#9e0000" fill-rule="evenodd"/><polyline points="33.48 17.31 33.46 17.47 10.22 14.12 10.24 13.96" fill="#9e0000" fill-rule="evenodd"/><polyline points="33.46 17.42 33.44 17.58 10.21 14.23 10.23 14.07" fill="#9e0000" fill-rule="evenodd"/><polyline points="33.45 17.53 33.43 17.69 10.2 14.34 10.22 14.18" fill="#9e0000" fill-rule="evenodd"/><polyline points="33.44 17.63 33.42 17.79 10.19 14.44 10.2 14.28" fill="#9e0000" fill-rule="evenodd"/><polyline points="33.42 17.74 33.41 17.9 10.17 14.55 10.19 14.39" fill="#9e0000" fill-rule="evenodd"/><polyline points="33.41 17.85 33.39 18.01 10.16 14.66 10.18 14.5" fill="#9e0000" fill-rule="evenodd"/><polyline points="33.4 17.95 33.38 18.11 10.15 14.76 10.17 14.6" fill="#9e0000" fill-rule="evenodd"/><polyline points="33.39 18.06 33.37 18.22 10.13 14.87 10.15 14.71" fill="#9e0000" fill-rule="evenodd"/><polyline points="33.37 18.17 33.35 18.33 10.12 14.98 10.14 14.82" fill="#9e0000" fill-rule="evenodd"/><polyline points="33.36 18.27 33.34 18.43 10.11 15.08 10.13 14.92" fill="#9e0000" fill-rule="evenodd"/><polyline points="33.35 18.38 33.33 18.54 10.1 15.19 10.12 15.03" fill="#9e0000" fill-rule="evenodd"/><polyline points="33.34 18.49 33.32 18.65 10.09 15.3 10.1 15.14" fill="#9e0000" fill-rule="evenodd"/><polyline points="33.32 18.59 33.3 18.75 10.07 15.4 10.09 15.24" fill="#9e0000" fill-rule="evenodd"/><polyline points="33.31 18.7 33.29 18.86 10.06 15.51 10.08 15.35" fill="#9e0000" fill-rule="evenodd"/><polyline points="33.3 18.81 33.28 18.97 10.05 15.62 10.07 15.46" fill="#9e0000" fill-rule="evenodd"/><polyline points="33.29 18.91 33.27 19.07 10.03 15.72 10.05 15.56" fill="#9e0000" fill-rule="evenodd"/><polyline points="33.27 19.02 33.26 19.18 10.02 15.83 10.04 15.67" fill="#9e0000" fill-rule="evenodd"/><polyline points="33.26 19.13 33.24 19.29 10.01 15.94 10.03 15.78" fill="#9e0000" fill-rule="evenodd"/><polyline points="33.25 19.23 33.23 19.39 10 16.04 10.02 15.88" fill="#9e0000" fill-rule="evenodd"/><polyline points="33.24 19.34 33.22 19.5 9.98 16.15 10 15.99" fill="#9e0000" fill-rule="evenodd"/><polyline points="33.22 19.45 33.2 19.61 9.97 16.26 9.99 16.1" fill="#9e0000" fill-rule="evenodd"/><polyline points="33.21 19.55 33.19 19.71 9.96 16.36 9.98 16.2" fill="#9e0000" fill-rule="evenodd"/><polyline points="33.2 19.66 33.18 19.82 9.95 16.47 9.96 16.31" fill="#9e0000" fill-rule="evenodd"/><polyline points="33.19 19.77 33.17 19.93 9.93 16.58 9.95 16.42" fill="#9e0000" fill-rule="evenodd"/><polyline points="33.17 19.87 33.15 20.03 9.92 16.68 9.94 16.52" fill="#9e0000" fill-rule="evenodd"/><polyline points="33.16 19.98 33.14 20.14 9.91 16.79 9.93 16.63" fill="#9e0000" fill-rule="evenodd"/><polyline points="33.15 20.09 33.13 20.25 9.9 16.9 9.91 16.74" fill="#9e0000" fill-rule="evenodd"/><polyline points="33.13 20.19 33.12 20.35 9.88 17 9.9 16.84" fill="#9e0000" fill-rule="evenodd"/><polyline points="33.12 20.3 33.1 20.46 9.87 17.11 9.89 16.95" fill="#9e0000" fill-rule="evenodd"/><polyline points="33.11 20.41 33.09 20.57 9.86 17.21 9.88 17.05" fill="#9e0000" fill-rule="evenodd"/><polyline points="33.1 20.51 33.08 20.67 9.85 17.32 9.87 17.16" fill="#9e0000" fill-rule="evenodd"/><polyline points="33.09 20.62 33.07 20.78 9.83 17.43 9.85 17.27" fill="#9e0000" fill-rule="evenodd"/><polyline points="33.07 20.73 33.05 20.89 9.82 17.54 9.84 17.38" fill="#9e0000" fill-rule="evenodd"/><polyline points="33.06 20.83 33.04 20.99 9.81 17.64 9.83 17.48" fill="#9e0000" fill-rule="evenodd"/><polyline points="33.05 20.94 33.03 21.1 9.79 17.75 9.81 17.59" fill="#9e0000" fill-rule="evenodd"/><polyline points="33.03 21.05 33.02 21.2 9.78 17.86 9.8 17.7" fill="#9e0000" fill-rule="evenodd"/><polyline points="33.02 21.15 33 21.31 9.77 17.96 9.79 17.8" fill="#9e0000" fill-rule="evenodd"/><polyline points="33.01 21.26 32.99 21.42 9.76 18.07 9.78 17.91" fill="#9e0000" fill-rule="evenodd"/><polyline points="33 21.36 32.98 21.52 9.74 18.18 9.76 18.02" fill="#9e0000" fill-rule="evenodd"/><polyline points="32.98 21.47 32.97 21.63 9.73 18.28 9.75 18.12" fill="#9e0000" fill-rule="evenodd"/><polyline points="32.97 21.58 32.95 21.74 9.72 18.39 9.74 18.23" fill="#9e0000" fill-rule="evenodd"/><polyline points="32.96 21.68 32.94 21.84 9.71 18.49 9.73 18.34" fill="#9e0000" fill-rule="evenodd"/><polyline points="32.95 21.79 32.93 21.95 9.7 18.6 9.71 18.44" fill="#9e0000" fill-rule="evenodd"/><polyline points="32.93 21.9 32.91 22.06 9.68 18.71 9.7 18.55" fill="#9e0000" fill-rule="evenodd"/><polyline points="32.92 22 32.9 22.16 9.67 18.81 9.69 18.65" fill="#9e0000" fill-rule="evenodd"/><polyline points="32.91 22.11 32.89 22.27 9.66 18.92 9.68 18.76" fill="#9e0000" fill-rule="evenodd"/><polyline points="32.9 22.22 32.88 22.38 9.64 19.03 9.66 18.87" fill="#9e0000" fill-rule="evenodd"/><polyline points="32.88 22.32 32.87 22.48 9.63 19.13 9.65 18.97" fill="#9e0000" fill-rule="evenodd"/><polyline points="32.87 22.43 32.85 22.59 9.62 19.24 9.64 19.08" fill="#9e0000" fill-rule="evenodd"/><polyline points="32.86 22.54 32.84 22.7 9.61 19.35 9.63 19.19" fill="#9e0000" fill-rule="evenodd"/><polyline points="32.85 22.64 32.83 22.8 9.59 19.45 9.61 19.29" fill="#9e0000" fill-rule="evenodd"/><polyline points="32.83 22.75 32.81 22.91 9.58 19.56 9.6 19.4" fill="#9e0000" fill-rule="evenodd"/><polyline points="32.82 22.86 32.8 23.02 9.57 19.67 9.59 19.51" fill="#9e0000" fill-rule="evenodd"/><polyline points="32.81 22.96 32.79 23.12 9.56 19.77 9.57 19.61" fill="#9e0000" fill-rule="evenodd"/><polyline points="32.8 23.07 32.78 23.23 9.54 19.88 9.56 19.72" fill="#9e0000" fill-rule="evenodd"/><polyline points="32.78 23.18 32.76 23.34 9.53 19.99 9.55 19.83" fill="#9e0000" fill-rule="evenodd"/><polyline points="32.77 23.28 32.75 23.44 9.52 20.09 9.54 19.93" fill="#9e0000" fill-rule="evenodd"/><polyline points="32.76 23.39 32.74 23.55 9.51 20.2 9.53 20.04" fill="#9e0000" fill-rule="evenodd"/><polyline points="32.74 23.5 32.73 23.66 9.49 20.31 9.51 20.15" fill="#9e0000" fill-rule="evenodd"/><polyline points="32.73 23.6 32.71 23.76 9.48 20.41 9.5 20.25" fill="#9e0000" fill-rule="evenodd"/><polyline points="32.72 23.71 32.7 23.87 9.47 20.52 9.49 20.36" fill="#9e0000" fill-rule="evenodd"/><polyline points="32.71 23.82 32.69 23.98 9.46 20.63 9.47 20.47" fill="#9e0000" fill-rule="evenodd"/><polyline points="32.7 23.92 32.68 24.08 9.44 20.73 9.46 20.57" fill="#9e0000" fill-rule="evenodd"/><polyline points="32.68 24.03 32.66 24.19 9.43 20.84 9.45 20.68" fill="#9e0000" fill-rule="evenodd"/><polyline points="32.67 24.14 32.65 24.3 9.42 20.95 9.44 20.79" fill="#9e0000" fill-rule="evenodd"/><polyline points="32.66 24.24 32.64 24.4 9.41 21.05 9.42 20.89" fill="#9e0000" fill-rule="evenodd"/><polyline points="32.65 24.35 32.63 24.51 9.39 21.16 9.41 21" fill="#9e0000" fill-rule="evenodd"/><polyline points="32.63 24.46 32.61 24.62 9.38 21.27 9.4 21.11" fill="#9e0000" fill-rule="evenodd"/><polyline points="32.62 24.56 32.6 24.72 9.37 21.37 9.39 21.21" fill="#9e0000" fill-rule="evenodd"/><polyline points="32.61 24.67 32.59 24.83 9.36 21.48 9.37 21.32" fill="#9e0000" fill-rule="evenodd"/><polyline points="32.59 24.78 32.58 24.94 9.34 21.59 9.36 21.43" fill="#9e0000" fill-rule="evenodd"/><polyline points="32.58 24.88 32.56 25.04 9.33 21.69 9.35 21.53" fill="#9e0000" fill-rule="evenodd"/><polyline points="32.57 24.99 32.55 25.15 9.32 21.8 9.34 21.64" fill="#9e0000" fill-rule="evenodd"/><polyline points="32.56 25.1 32.54 25.25 9.3 21.91 9.32 21.75" fill="#9e0000" fill-rule="evenodd"/><polyline points="32.54 25.2 32.52 25.36 9.29 22.01 9.31 21.85" fill="#9e0000" fill-rule="evenodd"/><polyline points="32.53 25.31 32.51 25.47 9.28 22.12 9.3 21.96" fill="#9e0000" fill-rule="evenodd"/><polyline points="32.52 25.41 32.5 25.57 9.27 22.23 9.29 22.07" fill="#9e0000" fill-rule="evenodd"/><polyline points="32.51 25.52 32.49 25.68 9.26 22.33 9.27 22.17" fill="#9e0000" fill-rule="evenodd"/><polyline points="32.49 25.63 32.48 25.79 9.24 22.44 9.26 22.28" fill="#9e0000" fill-rule="evenodd"/><polyline points="32.48 25.73 32.46 25.89 9.23 22.55 9.25 22.39" fill="#9e0000" fill-rule="evenodd"/><polyline points="32.47 25.84 32.45 26 9.22 22.65 9.24 22.49" fill="#9e0000" fill-rule="evenodd"/><polyline points="32.46 25.95 32.44 26.11 9.2 22.76 9.22 22.6" fill="#9e0000" fill-rule="evenodd"/><polyline points="32.44 26.05 32.42 26.21 9.19 22.86 9.21 22.7" fill="#9e0000" fill-rule="evenodd"/><polyline points="32.43 26.16 32.41 26.32 9.18 22.97 9.2 22.81" fill="#9e0000" fill-rule="evenodd"/><polyline points="32.42 26.27 32.4 26.43 9.17 23.08 9.19 22.92" fill="#9e0000" fill-rule="evenodd"/><polyline points="32.41 26.38 32.39 26.54 9.15 23.18 9.17 23.02" fill="#9e0000" fill-rule="evenodd"/><polyline points="32.39 26.48 32.37 26.64 9.14 23.29 9.16 23.13" fill="#9e0000" fill-rule="evenodd"/><polyline points="32.38 26.59 32.36 26.75 9.13 23.4 9.15 23.24" fill="#9e0000" fill-rule="evenodd"/><polyline points="32.37 26.69 32.35 26.85 9.12 23.5 9.13 23.34" fill="#9e0000" fill-rule="evenodd"/><polyline points="32.36 26.8 32.34 26.96 9.1 23.61 9.12 23.45" fill="#9e0000" fill-rule="evenodd"/><polyline points="32.34 26.91 32.32 27.07 9.09 23.72 9.11 23.56" fill="#9e0000" fill-rule="evenodd"/><polyline points="32.33 27.01 32.31 27.17 9.08 23.82 9.1 23.66" fill="#9e0000" fill-rule="evenodd"/><polyline points="32.32 27.12 32.3 27.28 9.07 23.93 9.09 23.77" fill="#9e0000" fill-rule="evenodd"/><polyline points="32.3 27.23 32.29 27.39 9.05 24.04 9.07 23.88" fill="#9e0000" fill-rule="evenodd"/><polyline points="32.29 27.33 32.27 27.49 9.04 24.14 9.06 23.98" fill="#9e0000" fill-rule="evenodd"/><polyline points="32.28 27.44 32.26 27.6 9.03 24.25 9.05 24.09" fill="#9e0000" fill-rule="evenodd"/><polyline points="32.27 27.55 32.25 27.71 9.02 24.36 9.04 24.2" fill="#9e0000" fill-rule="evenodd"/><polyline points="32.26 27.65 32.24 27.81 9 24.46 9.02 24.3" fill="#9e0000" fill-rule="evenodd"/><polyline points="32.24 27.76 32.22 27.92 8.99 24.57 9.01 24.41" fill="#9e0000" fill-rule="evenodd"/><polyline points="32.23 27.87 32.21 28.03 8.98 24.68 9 24.52" fill="#9e0000" fill-rule="evenodd"/><polyline points="32.22 27.97 32.2 28.13 8.96 24.78 8.98 24.62" fill="#9e0000" fill-rule="evenodd"/><polyline points="32.2 28.08 32.19 28.24 8.95 24.89 8.97 24.73" fill="#9e0000" fill-rule="evenodd"/><polyline points="32.19 28.19 32.19 28.23 8.95 24.88 8.96 24.84" fill="#9e0000" fill-rule="evenodd"/></g><path d="M39.43,31V30a1.37,1.37,0,1,0,.1-2.73,1.32,1.32,0,0,0-1,.38l-0.13.12H0v-1H38a2.5,2.5,0,0,1,1.56-.53,2.36,2.36,0,0,1,2.33,2.43A2.43,2.43,0,0,1,39.43,31h0Zm-21.2,4A5.37,5.37,0,0,0,13,30.15H3.79V29.29H13A6.14,6.14,0,0,1,19.08,35H18.23Z" transform="translate(0 1.53)" fill="#9e0000"/><path d="M16.33,35a3.87,3.87,0,0,0-3.71-3H2.41V31.18H12.62A4.68,4.68,0,0,1,17.21,35Z" transform="translate(0 1.53)" fill="#9e0000"/><path d="M14.37,35a2.34,2.34,0,0,0-2.07-1.06H1V33.08H12.29a3.37,3.37,0,0,1,3,1.91H14.37Zm6.86,0a5.37,5.37,0,0,1,5.27-4.82h9.15V29.29H26.5A6.14,6.14,0,0,0,20.37,35h0.85Z" transform="translate(0 1.53)" fill="#9e0000"/><path d="M23.13,35a3.87,3.87,0,0,1,3.71-3H37V31.18H26.84A4.68,4.68,0,0,0,22.25,35l0.88,0h0Z" transform="translate(0 1.53)" fill="#9e0000"/><path d="M25.09,35a2.34,2.34,0,0,1,2.07-1.06H38.4V33.08H27.17a3.37,3.37,0,0,0-3,1.91h0.95Z" transform="translate(0 1.53)" fill="#9e0000"/></svg>