<svg xmlns="http://www.w3.org/2000/svg" width="185" height="35" viewBox="0 0 185 35">
  <defs>
    <clipPath id="a">
      <path d="M166.47 5.36H185v4.87h-6v19.44h-6.48V10.23h-6V5.36zm-28.47 0h7.82L155 29.67h-6.93l-1.73-5.15H137l-1.82 5.15h-6.41zm3.78 5.42l-3.15 9.11h6.19zm-41.7-5.42h7.82l9.2 24.31h-6.93l-1.73-5.15h-9.35l-1.82 5.15h-6.4zm3.78 5.42l-3.15 9.11h6.19zM75.75 5.64l-.48 5a16.89 16.89 0 0 0-2.86-1 11.8 11.8 0 0 0-2.65-.32 6.29 6.29 0 0 0-3.07.62 1.9 1.9 0 0 0-1.1 1.72 1.85 1.85 0 0 0 .56 1.34 4.2 4.2 0 0 0 1.69 1l1.07.34a21.37 21.37 0 0 1 5.54 2.38A6.15 6.15 0 0 1 76.34 19a6.91 6.91 0 0 1 .6 3 7.35 7.35 0 0 1-2.67 6.13q-2.66 2.11-7.73 2.11a26.83 26.83 0 0 1-3.67-.24 26.54 26.54 0 0 1-3.65-.77l.55-5.42A19.74 19.74 0 0 0 63.1 25a12.66 12.66 0 0 0 3.05.4 5.53 5.53 0 0 0 3-.72 2.21 2.21 0 0 0 1.11-2q0-1.52-3.55-2.76c-.57-.19-1-.34-1.31-.46a12.19 12.19 0 0 1-5-2.9 6.07 6.07 0 0 1-1.4-4.2 6.62 6.62 0 0 1 2.62-5.63q2.62-2 7.51-2a26.41 26.41 0 0 1 3.42.27 20.82 20.82 0 0 1 3.2.64z" fill="#9e0000" clip-rule="evenodd"/>
    </clipPath>
    <clipPath id="b">
      <path d="M20.13 24.75zm-.3-.06zm-1-.34h.07zm-.08 0h.07zm-7.9-12.8a4.3 4.3 0 0 0-1.43 3.15c.07 4.1 10.91 5 9.24 9.6 4-3 1-5.78-2.62-8.14A19.38 19.38 0 0 1 11 11.47z" fill="#9e0000" clip-rule="evenodd"/>
    </clipPath>
    <clipPath id="c">
      <path d="M23.36.19C18.88 1.22 11.94 3.31 11 8.25c-.73 3.87 5.84 6.88 8.93 10.05 1.85 1.89 2.24 4-.43 6 5.55 1.34 13.33-3.17 8.9-9.51-2.33-3.33-7.74-5.08-8.59-8C18.72 3 22.66 1.4 23.36.19" fill="#9e0000" clip-rule="evenodd"/>
    </clipPath>
  </defs>
  <title>
    mark
  </title>
  <path d="M166.47 5.36H185v4.87h-6v19.44h-6.48V10.23h-6V5.36zm-28.47 0h7.82L155 29.67h-6.93l-1.73-5.15H137l-1.82 5.15h-6.41zm3.78 5.42l-3.15 9.11h6.19zm-41.7-5.42h7.82l9.2 24.31h-6.93l-1.73-5.15h-9.35l-1.82 5.15h-6.4zm3.78 5.42l-3.15 9.11h6.19zM75.75 5.64l-.48 5a16.89 16.89 0 0 0-2.86-1 11.8 11.8 0 0 0-2.65-.32 6.29 6.29 0 0 0-3.07.62 1.9 1.9 0 0 0-1.1 1.72 1.85 1.85 0 0 0 .56 1.34 4.2 4.2 0 0 0 1.69 1l1.07.34a21.37 21.37 0 0 1 5.54 2.38A6.15 6.15 0 0 1 76.34 19a6.91 6.91 0 0 1 .6 3 7.35 7.35 0 0 1-2.67 6.13q-2.66 2.11-7.73 2.11a26.83 26.83 0 0 1-3.67-.24 26.54 26.54 0 0 1-3.65-.77l.55-5.42A19.74 19.74 0 0 0 63.1 25a12.66 12.66 0 0 0 3.05.4 5.53 5.53 0 0 0 3-.72 2.21 2.21 0 0 0 1.11-2q0-1.52-3.55-2.76c-.57-.19-1-.34-1.31-.46a12.19 12.19 0 0 1-5-2.9 6.07 6.07 0 0 1-1.4-4.2 6.62 6.62 0 0 1 2.62-5.63q2.62-2 7.51-2a26.41 26.41 0 0 1 3.42.27 20.82 20.82 0 0 1 3.2.64z" fill="#9e0000" fill-rule="evenodd"/>
  <g clip-path="url(#a)" fill="#9e0000" fill-rule="evenodd">
    <path d="M185 4.77v-.02H58.97v.02"/>
    <path d="M185 4.7v.17H58.97V4.7"/>
    <path d="M185 4.81v.17H58.97v-.17"/>
    <path d="M185 4.92v.17H58.97v-.17"/>
    <path d="M185 5.03v.17H58.97v-.17"/>
    <path d="M185 5.15v.16H58.97v-.16"/>
    <path d="M185 5.26v.16H58.97v-.16"/>
    <path d="M185 5.37v.17H58.97v-.17"/>
    <path d="M185 5.48v.17H58.97v-.17"/>
    <path d="M185 5.59v.17H58.97v-.17"/>
    <path d="M185 5.7v.17H58.97V5.7"/>
    <path d="M185 5.82v.16H58.97v-.16"/>
    <path d="M185 5.93v.16H58.97v-.16"/>
    <path d="M185 6.04v.17H58.97v-.17"/>
    <path d="M185 6.15v.17H58.97v-.17"/>
    <path d="M185 6.26v.17H58.97v-.17"/>
    <path d="M185 6.37v.17H58.97v-.17"/>
    <path d="M185 6.49v.16H58.97v-.16"/>
    <path d="M185 6.6v.16H58.97V6.6"/>
    <path d="M185 6.71v.17H58.97v-.17"/>
    <path d="M185 6.82v.17H58.97v-.17"/>
    <path d="M185 6.93v.17H58.97v-.17"/>
    <path d="M185 7.04v.17H58.97v-.17"/>
    <path d="M185 7.16v.16H58.97v-.16"/>
    <path d="M185 7.27v.16H58.97v-.16"/>
    <path d="M185 7.38v.17H58.97v-.17"/>
    <path d="M185 7.49v.17H58.97v-.17"/>
    <path d="M185 7.6v.17H58.97V7.6"/>
    <path d="M185 7.71v.17H58.97v-.17"/>
    <path d="M185 7.83v.16H58.97v-.16"/>
    <path d="M185 7.94v.16H58.97v-.16"/>
    <path d="M185 8.05v.17H58.97v-.17"/>
    <path d="M185 8.16v.17H58.97v-.17"/>
    <path d="M185 8.27v.17H58.97v-.17"/>
    <path d="M185 8.38v.17H58.97v-.17"/>
    <path d="M185 8.49v.17H58.97v-.17"/>
    <path d="M185 8.61v.16H58.97v-.16"/>
    <path d="M185 8.72v.16H58.97v-.16"/>
    <path d="M185 8.83V9H58.97v-.17"/>
    <path d="M185 8.94v.17H58.97v-.17"/>
    <path d="M185 9.05v.17H58.97v-.17"/>
    <path d="M185 9.16v.17H58.97v-.17"/>
    <path d="M185 9.28v.16H58.97v-.16"/>
    <path d="M185 9.39v.16H58.97v-.16"/>
    <path d="M185 9.5v.17H58.97V9.5"/>
    <path d="M185 9.61v.17H58.97v-.17"/>
    <path d="M185 9.72v.17H58.97v-.17"/>
    <path d="M185 9.83V10H58.97v-.17"/>
    <path d="M185 9.95v.16H58.97v-.16"/>
    <path d="M185 10.06v.16H58.97v-.16"/>
    <path d="M185 10.17v.17H58.97v-.17"/>
    <path d="M185 10.28v.17H58.97v-.17"/>
    <path d="M185 10.39v.17H58.97v-.17"/>
    <path d="M185 10.5v.17H58.97v-.17"/>
    <path d="M185 10.62v.16H58.97v-.16"/>
    <path d="M185 10.73v.16H58.97v-.16"/>
    <path d="M185 10.84v.17H58.97v-.17"/>
    <path d="M185 10.95v.17H58.97v-.17"/>
    <path d="M185 11.06v.17H58.97v-.17"/>
    <path d="M185 11.17v.17H58.97v-.17"/>
    <path d="M185 11.29v.16H58.97v-.16"/>
    <path d="M185 11.4v.16H58.97v-.16"/>
    <path d="M185 11.51v.17H58.97v-.17"/>
    <path d="M185 11.62v.17H58.97v-.17"/>
    <path d="M185 11.73v.17H58.97v-.17"/>
    <path d="M185 11.84v.17H58.97v-.17"/>
    <path d="M185 11.96v.16H58.97v-.16"/>
    <path d="M185 12.07v.16H58.97v-.16"/>
    <path d="M185 12.18v.17H58.97v-.17"/>
    <path d="M185 12.29v.17H58.97v-.17"/>
    <path d="M185 12.4v.17H58.97v-.17"/>
    <path d="M185 12.51v.17H58.97v-.17"/>
    <path d="M185 12.63v.16H58.97v-.16"/>
    <path d="M185 12.74v.16H58.97v-.16"/>
    <path d="M185 12.85v.17H58.97v-.17"/>
    <path d="M185 12.96v.17H58.97v-.17"/>
    <path d="M185 13.07v.17H58.97v-.17"/>
    <path d="M185 13.18v.17H58.97v-.17"/>
    <path d="M185 13.29v.17H58.97v-.17"/>
    <path d="M185 13.41v.16H58.97v-.16"/>
    <path d="M185 13.52v.17H58.97v-.17"/>
    <path d="M185 13.63v.17H58.97v-.17"/>
    <path d="M185 13.74v.17H58.97v-.17"/>
    <path d="M185 13.85v.17H58.97v-.17"/>
    <path d="M185 13.96v.17H58.97v-.17"/>
    <path d="M185 14.08v.16H58.97v-.16"/>
    <path d="M185 14.19v.17H58.97v-.17"/>
    <path d="M185 14.3v.17H58.97v-.17"/>
    <path d="M185 14.41v.17H58.97v-.17"/>
    <path d="M185 14.52v.17H58.97v-.17"/>
    <path d="M185 14.63v.17H58.97v-.17"/>
    <path d="M185 14.75v.16H58.97v-.16"/>
    <path d="M185 14.86v.17H58.97v-.17"/>
    <path d="M185 14.97v.17H58.97v-.17"/>
    <path d="M185 15.08v.17H58.97v-.17"/>
    <path d="M185 15.19v.17H58.97v-.17"/>
    <path d="M185 15.3v.17H58.97v-.17"/>
    <path d="M185 15.42v.16H58.97v-.16"/>
    <path d="M185 15.53v.17H58.97v-.17"/>
    <path d="M185 15.64v.17H58.97v-.17"/>
    <path d="M185 15.75v.17H58.97v-.17"/>
    <path d="M185 15.86v.17H58.97v-.17"/>
    <path d="M185 15.97v.17H58.97v-.17"/>
    <path d="M185 16.09v.16H58.97v-.16"/>
    <path d="M185 16.2v.16H58.97v-.16"/>
    <path d="M185 16.31v.17H58.97v-.17"/>
    <path d="M185 16.42v.17H58.97v-.17"/>
    <path d="M185 16.53v.17H58.97v-.17"/>
    <path d="M185 16.64v.17H58.97v-.17"/>
    <path d="M185 16.75v.17H58.97v-.17"/>
    <path d="M185 16.87v.17H58.97v-.17"/>
    <path d="M185 16.98v.17H58.97v-.17"/>
    <path d="M185 17.09v.17H58.97v-.17"/>
    <path d="M185 17.2v.17H58.97v-.17"/>
    <path d="M185 17.31v.17H58.97v-.17"/>
    <path d="M185 17.43v.16H58.97v-.16"/>
    <path d="M185 17.54v.16H58.97v-.16"/>
    <path d="M185 17.65v.17H58.97v-.17"/>
    <path d="M185 17.76v.17H58.97v-.17"/>
    <path d="M185 17.87v.17H58.97v-.17"/>
    <path d="M185 17.98v.17H58.97v-.17"/>
    <path d="M185 18.09v.17H58.97v-.17"/>
    <path d="M185 18.21v.16H58.97v-.16"/>
    <path d="M185 18.32v.17H58.97v-.17"/>
    <path d="M185 18.43v.17H58.97v-.17"/>
    <path d="M185 18.54v.17H58.97v-.17"/>
    <path d="M185 18.65v.17H58.97v-.17"/>
    <path d="M185 18.77v.16H58.97v-.16"/>
    <path d="M185 18.88v.16H58.97v-.16"/>
    <path d="M185 18.99v.17H58.97v-.17"/>
    <path d="M185 19.1v.17H58.97v-.17"/>
    <path d="M185 19.21v.17H58.97v-.17"/>
    <path d="M185 19.32v.17H58.97v-.17"/>
    <path d="M185 19.43v.17H58.97v-.17"/>
    <path d="M185 19.55v.16H58.97v-.16"/>
    <path d="M185 19.66v.16H58.97v-.16"/>
    <path d="M185 19.77v.17H58.97v-.17"/>
    <path d="M185 19.88v.17H58.97v-.17"/>
    <path d="M185 19.99v.17H58.97v-.17"/>
    <path d="M185 20.1v.17H58.97v-.17"/>
    <path d="M185 20.22v.16H58.97v-.16"/>
    <path d="M185 20.33v.17H58.97v-.17"/>
    <path d="M185 20.44v.17H58.97v-.17"/>
    <path d="M185 20.55v.17H58.97v-.17"/>
    <path d="M185 20.66v.17H58.97v-.17"/>
    <path d="M185 20.77v.17H58.97v-.17"/>
    <path d="M185 20.89v.16H58.97v-.16"/>
    <path d="M185 21v.16H58.97V21"/>
    <path d="M185 21.11v.17H58.97v-.17"/>
    <path d="M185 21.22v.17H58.97v-.17"/>
    <path d="M185 21.33v.17H58.97v-.17"/>
    <path d="M185 21.44v.17H58.97v-.17"/>
    <path d="M185 21.56v.16H58.97v-.16"/>
    <path d="M185 21.67v.17H58.97v-.17"/>
    <path d="M185 21.78v.17H58.97v-.17"/>
    <path d="M185 21.89v.17H58.97v-.17"/>
    <path d="M185 22v.17H58.97V22"/>
    <path d="M185 22.11v.17H58.97v-.17"/>
    <path d="M185 22.23v.16H58.97v-.16"/>
    <path d="M185 22.34v.16H58.97v-.16"/>
    <path d="M185 22.45v.17H58.97v-.17"/>
    <path d="M185 22.56v.17H58.97v-.17"/>
    <path d="M185 22.67v.17H58.97v-.17"/>
    <path d="M185 22.78v.17H58.97v-.17"/>
    <path d="M185 22.89v.17H58.97v-.17"/>
    <path d="M185 23.01v.16H58.97v-.16"/>
    <path d="M185 23.12v.17H58.97v-.17"/>
    <path d="M185 23.23v.17H58.97v-.17"/>
    <path d="M185 23.34v.17H58.97v-.17"/>
    <path d="M185 23.45v.17H58.97v-.17"/>
    <path d="M185 23.57v.16H58.97v-.16"/>
    <path d="M185 23.68v.16H58.97v-.16"/>
    <path d="M185 23.79v.17H58.97v-.17"/>
    <path d="M185 23.9v.17H58.97v-.17"/>
    <path d="M185 24.01v.17H58.97v-.17"/>
    <path d="M185 24.12v.17H58.97v-.17"/>
    <path d="M185 24.23v.17H58.97v-.17"/>
    <path d="M185 24.35v.16H58.97v-.16"/>
    <path d="M185 24.46v.17H58.97v-.17"/>
    <path d="M185 24.57v.17H58.97v-.17"/>
    <path d="M185 24.68v.17H58.97v-.17"/>
    <path d="M185 24.79v.17H58.97v-.17"/>
    <path d="M185 24.9v.17H58.97v-.17"/>
    <path d="M185 25.02v.16H58.97v-.16"/>
    <path d="M185 25.13v.17H58.97v-.17"/>
    <path d="M185 25.24v.17H58.97v-.17"/>
    <path d="M185 25.35v.17H58.97v-.17"/>
    <path d="M185 25.46v.17H58.97v-.17"/>
    <path d="M185 25.57v.17H58.97v-.17"/>
    <path d="M185 25.69v.16H58.97v-.16"/>
    <path d="M185 25.8v.16H58.97v-.16"/>
    <path d="M185 25.91v.17H58.97v-.17"/>
    <path d="M185 26.02v.17H58.97v-.17"/>
    <path d="M185 26.13v.17H58.97v-.17"/>
    <path d="M185 26.24v.17H58.97v-.17"/>
    <path d="M185 26.36v.16H58.97v-.16"/>
    <path d="M185 26.47v.17H58.97v-.17"/>
    <path d="M185 26.58v.17H58.97v-.17"/>
    <path d="M185 26.69v.17H58.97v-.17"/>
    <path d="M185 26.8v.17H58.97v-.17"/>
    <path d="M185 26.91v.17H58.97v-.17"/>
    <path d="M185 27.02v.17H58.97v-.17"/>
    <path d="M185 27.14v.16H58.97v-.16"/>
    <path d="M185 27.25v.17H58.97v-.17"/>
    <path d="M185 27.36v.17H58.97v-.17"/>
    <path d="M185 27.47v.17H58.97v-.17"/>
    <path d="M185 27.58v.17H58.97v-.17"/>
    <path d="M185 27.7v.16H58.97v-.16"/>
    <path d="M185 27.81v.16H58.97v-.16"/>
    <path d="M185 27.92v.17H58.97v-.17"/>
    <path d="M185 28.03v.17H58.97v-.17"/>
    <path d="M185 28.14v.17H58.97v-.17"/>
    <path d="M185 28.25v.17H58.97v-.17"/>
    <path d="M185 28.36v.17H58.97v-.17"/>
    <path d="M185 28.48v.16H58.97v-.16"/>
    <path d="M185 28.59v.17H58.97v-.17"/>
    <path d="M185 28.7v.17H58.97v-.17"/>
    <path d="M185 28.81v.17H58.97v-.17"/>
    <path d="M185 28.92v.17H58.97v-.17"/>
    <path d="M185 29.04v.16H58.97v-.16"/>
    <path d="M185 29.15v.16H58.97v-.16"/>
    <path d="M185 29.26v.17H58.97v-.17"/>
    <path d="M185 29.37v.17H58.97v-.17"/>
    <path d="M185 29.48v.17H58.97v-.17"/>
    <path d="M185 29.59v.17H58.97v-.17"/>
    <path d="M185 29.7v.17H58.97v-.17"/>
    <path d="M185 29.82v.16H58.97v-.16"/>
    <path d="M185 29.93v.16H58.97v-.16"/>
    <path d="M185 30.04v.17H58.97v-.17"/>
    <path d="M185 30.15v.08H58.97v-.08"/>
  </g>
  <path d="M20.13 24.75zm-.3-.06zm-1-.34h.07zm-.08 0h.07zm-7.9-12.8a4.3 4.3 0 0 0-1.43 3.15c.07 4.1 10.91 5 9.24 9.6 4-3 1-5.78-2.62-8.14A19.38 19.38 0 0 1 11 11.47z" fill="#9e0000" fill-rule="evenodd"/>
  <g clip-path="url(#b)" fill="#9e0000" fill-rule="evenodd">
    <path d="M22 12v1H10v-1"/>
    <path d="M22 12v1H10v-1m12 1v1H10v-1"/>
    <path d="M22 13v1H10v-1m12 1v1H10v-1"/>
    <path d="M22 14v1H10v-1m12 1v2H10v-2m12 2v1H10v-1"/>
    <path d="M22 17v1H10v-1m12 1v1H10v-1m12 1v1H10v-1"/>
    <path d="M22 19v1H10v-1m12 1v1H10v-1m12 1v2H10v-2m12 2v1H10v-1m12 1v1H10v-1"/>
    <path d="M22 24v1H10v-1m12 1v1H10v-1"/>
    <path d="M22 25v1H10v-1"/>
  </g>
  <path d="M23.36.19C18.88 1.22 11.94 3.31 11 8.25c-.73 3.87 5.84 6.88 8.93 10.05 1.85 1.89 2.24 4-.43 6 5.55 1.34 13.33-3.17 8.9-9.51-2.33-3.33-7.74-5.08-8.59-8C18.72 3 22.66 1.4 23.36.19" fill="#9e0000" fill-rule="evenodd"/>
  <g clip-path="url(#c)" fill="#9e0000" fill-rule="evenodd">
    <path d="M35.12 1.88v-.01L11.88-1.48v.01"/>
    <path d="M35.12 1.82l-.02.16-23.23-3.35.02-.16"/>
    <path d="M35.11 1.92l-.02.16-23.23-3.35.02-.16"/>
    <path d="M35.1 2.03l-.02.16-23.23-3.35.01-.16"/>
    <path d="M35.09 2.14l-.02.16-23.24-3.35.02-.16"/>
    <path d="M35.07 2.24l-.02.16L11.82-.95l.02-.16"/>
    <path d="M35.06 2.35l-.02.16L11.81-.84l.02-.16"/>
    <path d="M35.05 2.46l-.02.16L11.79-.73l.02-.16"/>
    <path d="M35.03 2.56l-.01.16L11.78-.63l.02-.16"/>
    <path d="M35.02 2.67l-.02.16L11.77-.52l.02-.16"/>
    <path d="M35.01 2.78l-.02.16L11.76-.41l.02-.16"/>
    <path d="M35 2.88l-.02.16L11.74-.31l.02-.16"/>
    <path d="M34.98 2.99l-.01.16L11.73-.2l.02-.16"/>
    <path d="M34.97 3.1l-.02.16L11.72-.09l.02-.16"/>
    <path d="M34.96 3.2l-.02.16L11.71.01l.02-.16"/>
    <path d="M34.95 3.31l-.02.16L11.69.12l.02-.16"/>
    <path d="M34.93 3.42l-.02.16L11.68.23l.02-.16"/>
    <path d="M34.92 3.52l-.02.16L11.67.33l.02-.16"/>
    <path d="M34.91 3.63l-.02.16L11.66.44l.02-.16"/>
    <path d="M34.9 3.74l-.02.16L11.64.55l.02-.16"/>
    <path d="M34.88 3.84l-.01.16L11.63.65l.02-.16"/>
    <path d="M34.87 3.95l-.02.16L11.62.76l.02-.16"/>
    <path d="M34.86 4.06l-.02.16L11.61.87l.02-.16"/>
    <path d="M34.85 4.16l-.02.16L11.59.97l.02-.16"/>
    <path d="M34.83 4.27l-.02.16-23.23-3.35.02-.16"/>
    <path d="M34.82 4.38l-.02.16-23.23-3.35.02-.16"/>
    <path d="M34.81 4.48l-.02.16-23.23-3.35.01-.16"/>
    <path d="M34.8 4.59l-.02.16L11.54 1.4l.02-.16"/>
    <path d="M34.78 4.7l-.02.16L11.53 1.5l.02-.15"/>
    <path d="M34.77 4.8l-.02.16-23.23-3.35.02-.16"/>
    <path d="M34.76 4.91l-.02.16-23.23-3.35.02-.16"/>
    <path d="M34.74 5.01l-.01.16-23.24-3.35.02-.15"/>
    <path d="M34.73 5.12l-.02.16-23.23-3.35.02-.16"/>
    <path d="M34.72 5.23l-.02.16-23.23-3.35.02-.16"/>
    <path d="M34.71 5.33l-.02.17-23.23-3.35.01-.16"/>
    <path d="M34.7 5.44l-.02.16-23.24-3.35.02-.16"/>
    <path d="M34.68 5.55l-.02.16-23.23-3.35.02-.16"/>
    <path d="M34.67 5.66l-.02.16-23.23-3.36.02-.15"/>
    <path d="M34.66 5.76l-.02.16L11.4 2.57l.02-.16"/>
    <path d="M34.64 5.87l-.01.16-23.24-3.35.02-.16"/>
    <path d="M34.63 5.97l-.02.16-23.23-3.34.02-.16"/>
    <path d="M34.62 6.08l-.02.16-23.23-3.35.02-.16"/>
    <path d="M34.61 6.19l-.02.16L11.36 3l.01-.16"/>
    <path d="M34.59 6.29l-.01.16L11.34 3.1l.02-.16"/>
    <path d="M34.58 6.4l-.02.16-23.23-3.35.02-.16"/>
    <path d="M34.57 6.51l-.02.16-23.23-3.35.02-.16"/>
    <path d="M34.56 6.61l-.02.16L11.3 3.42l.02-.16"/>
    <path d="M34.54 6.72l-.02.16-23.23-3.35.02-.16"/>
    <path d="M34.53 6.83l-.02.16-23.23-3.35.02-.16"/>
    <path d="M34.52 6.93l-.02.16-23.23-3.35.02-.16"/>
    <path d="M34.51 7.04l-.02.16-23.24-3.35.02-.16"/>
    <path d="M34.49 7.15l-.01.16-23.24-3.35.02-.16"/>
    <path d="M34.48 7.25l-.02.16-23.23-3.35.02-.16"/>
    <path d="M34.47 7.36l-.02.16-23.23-3.35.01-.16"/>
    <path d="M34.46 7.47l-.02.16L11.2 4.28l.02-.16"/>
    <path d="M34.44 7.57l-.02.16-23.23-3.35.02-.16"/>
    <path d="M34.43 7.68l-.02.16-23.23-3.35.02-.16"/>
    <path d="M34.42 7.79l-.02.16L11.17 4.6l.02-.16"/>
    <path d="M34.41 7.89l-.02.16L11.15 4.7l.02-.16"/>
    <path d="M34.39 8l-.02.16-23.23-3.35.02-.16"/>
    <path d="M34.38 8.11l-.02.16-23.23-3.35.02-.16"/>
    <path d="M34.37 8.21l-.02.16-23.23-3.35.01-.16"/>
    <path d="M34.35 8.32l-.01.16L11.1 5.13l.02-.16"/>
    <path d="M34.34 8.43l-.02.16-23.23-3.35.02-.16"/>
    <path d="M34.33 8.53l-.02.16-23.23-3.35.02-.16"/>
    <path d="M34.32 8.64l-.02.16-23.24-3.35.02-.16"/>
    <path d="M34.3 8.75l-.01.16-23.24-3.35.02-.16"/>
    <path d="M34.29 8.85l-.02.16-23.23-3.35.02-.16"/>
    <path d="M34.28 8.96l-.02.16-23.23-3.35.02-.16"/>
    <path d="M34.27 9.07l-.02.16-23.23-3.35.01-.16"/>
    <path d="M34.26 9.17l-.02.16L11 5.98l.02-.16"/>
    <path d="M34.24 9.28l-.02.16-23.23-3.35.02-.16"/>
    <path d="M34.23 9.39l-.02.16L10.98 6.2l.02-.16"/>
    <path d="M34.22 9.49l-.02.16L10.96 6.3l.02-.16"/>
    <path d="M34.2 9.6l-.01.16-23.24-3.35.02-.16"/>
    <path d="M34.19 9.71l-.02.16-23.23-3.35.02-.16"/>
    <path d="M34.18 9.81l-.02.16-23.23-3.35.02-.16"/>
    <path d="M34.17 9.92l-.02.16-23.24-3.35.02-.16"/>
    <path d="M34.15 10.03l-.02.16L10.9 6.83l.02-.16"/>
    <path d="M34.14 10.13l-.02.16-23.23-3.35.02-.16"/>
    <path d="M34.13 10.24l-.02.16-23.23-3.35.02-.16"/>
    <path d="M34.12 10.35l-.02.16-23.24-3.35.02-.16"/>
    <path d="M34.1 10.45l-.01.16-23.24-3.35.02-.16"/>
    <path d="M34.09 10.56l-.02.16-23.23-3.35.02-.16"/>
    <path d="M34.08 10.66l-.02.16-23.23-3.35.02-.15"/>
    <path d="M34.07 10.77l-.02.16-23.24-3.35.02-.16"/>
    <path d="M34.05 10.88l-.02.16L10.8 7.69l.02-.16"/>
    <path d="M34.04 10.98l-.02.16-23.23-3.35.02-.16"/>
    <path d="M34.03 11.09l-.02.16L10.78 7.9l.01-.16"/>
    <path d="M34.02 11.2l-.02.16-23.24-3.35.02-.16"/>
    <path d="M34 11.3l-.02.16-23.23-3.34.02-.16"/>
    <path d="M33.99 11.41l-.02.16-23.23-3.35.02-.16"/>
    <path d="M33.98 11.52l-.02.16-23.23-3.35.01-.16"/>
    <path d="M33.97 11.62l-.02.16-23.24-3.35.02-.16"/>
    <path d="M33.95 11.73l-.02.16L10.7 8.54l.02-.16"/>
    <path d="M33.94 11.84l-.02.16-23.23-3.35.02-.16"/>
    <path d="M33.93 11.94l-.02.16-23.23-3.35.02-.16"/>
    <path d="M33.91 12.05l-.01.16-23.24-3.35.02-.16"/>
    <path d="M33.9 12.16l-.02.16-23.23-3.35.02-.16"/>
    <path d="M33.89 12.26l-.02.16-23.23-3.35.02-.16"/>
    <path d="M33.88 12.37l-.02.16-23.23-3.35.01-.16"/>
    <path d="M33.87 12.48l-.02.16-23.24-3.35.02-.16"/>
    <path d="M33.85 12.58l-.02.16L10.6 9.39l.02-.16"/>
    <path d="M33.84 12.69l-.02.16L10.59 9.5l.02-.16"/>
    <path d="M33.83 12.8l-.02.16-23.24-3.35.02-.16"/>
    <path d="M33.81 12.9l-.01.16-23.24-3.35.02-.16"/>
    <path d="M33.8 13.01l-.02.16-23.23-3.35.02-.16"/>
    <path d="M33.79 13.12l-.02.16-23.23-3.35.02-.16"/>
    <path d="M33.78 13.22l-.02.16-23.23-3.35.01-.16"/>
    <path d="M33.76 13.33l-.02.16-23.23-3.35.02-.16"/>
    <path d="M33.75 13.44l-.02.16-23.23-3.35.02-.16"/>
    <path d="M33.74 13.54l-.02.16-23.23-3.35.02-.16"/>
    <path d="M33.73 13.65l-.02.16-23.24-3.35.02-.16"/>
    <path d="M33.71 13.76l-.01.16-23.24-3.35.02-.16"/>
    <path d="M33.7 13.86l-.02.16-23.23-3.35.02-.16"/>
    <path d="M33.69 13.97l-.02.16-23.23-3.35.02-.16"/>
    <path d="M33.68 14.08l-.02.16-23.24-3.35.02-.16"/>
    <path d="M33.66 14.18l-.01.16-23.24-3.35.02-.16"/>
    <path d="M33.65 14.29l-.02.16L10.4 11.1l.02-.16"/>
    <path d="M33.64 14.4l-.02.16-23.23-3.35.01-.16"/>
    <path d="M33.63 14.5l-.02.16-23.24-3.35.02-.16"/>
    <path d="M33.61 14.61l-.02.16-23.23-3.35.02-.16"/>
    <path d="M33.6 14.72l-.02.16-23.23-3.35.02-.16"/>
    <path d="M33.59 14.82l-.02.16-23.23-3.35.02-.16"/>
    <path d="M33.58 14.93l-.02.16-23.24-3.35.02-.16"/>
    <path d="M33.56 15.04l-.02.16-23.23-3.35.02-.16"/>
    <path d="M33.55 15.14l-.02.16-23.23-3.35.02-.16"/>
    <path d="M33.54 15.25l-.02.16-23.23-3.35.01-.16"/>
    <path d="M33.52 15.36l-.01.16-23.24-3.36.02-.15"/>
    <path d="M33.51 15.46l-.02.16-23.23-3.35.02-.16"/>
    <path d="M33.5 15.57l-.02.16-23.23-3.35.02-.16"/>
    <path d="M33.49 15.68l-.02.16-23.23-3.36.01-.16"/>
    <path d="M33.48 15.78l-.02.16-23.24-3.35.02-.16"/>
    <path d="M33.46 15.89l-.02.16-23.23-3.35.02-.16"/>
    <path d="M33.45 15.99l-.02.17L10.2 12.8l.02-.16"/>
    <path d="M33.44 16.1l-.02.16-23.23-3.35.01-.16"/>
    <path d="M33.42 16.21l-.01.16-23.24-3.35.02-.16"/>
    <path d="M33.41 16.31l-.02.16-23.23-3.35.02-.16"/>
    <path d="M33.4 16.42l-.02.16-23.23-3.35.02-.16"/>
    <path d="M33.39 16.53l-.02.16-23.24-3.35.02-.16"/>
    <path d="M33.37 16.63l-.02.16-23.23-3.35.02-.16"/>
    <path d="M33.36 16.74l-.02.16-23.23-3.35.02-.16"/>
    <path d="M33.35 16.85l-.02.16-23.23-3.35.02-.16"/>
    <path d="M33.34 16.95l-.02.16-23.23-3.35.01-.16"/>
    <path d="M33.32 17.06l-.02.16-23.23-3.35.02-.16"/>
    <path d="M33.31 17.17l-.02.16-23.23-3.35.02-.16"/>
    <path d="M33.3 17.27l-.02.16-23.23-3.35.02-.16"/>
    <path d="M33.29 17.38l-.02.16-23.24-3.35.02-.16"/>
    <path d="M33.27 17.49l-.01.16-23.24-3.35.02-.16"/>
    <path d="M33.26 17.59l-.02.16-23.23-3.35.02-.16"/>
    <path d="M33.25 17.7l-.02.16L10 14.51l.02-.16"/>
    <path d="M33.24 17.81l-.02.16-23.24-3.35.02-.16"/>
    <path d="M33.22 17.91l-.02.16-23.23-3.35.02-.16"/>
    <path d="M33.21 18.02l-.02.16-23.23-3.35.02-.16"/>
    <path d="M33.2 18.13l-.02.16-23.23-3.35.01-.16"/>
    <path d="M33.19 18.23l-.02.16-23.24-3.35.02-.16"/>
    <path d="M33.17 18.34l-.02.16-23.23-3.35.02-.16"/>
    <path d="M33.16 18.45l-.02.16-23.23-3.35.02-.16"/>
    <path d="M33.15 18.55l-.02.16L9.9 15.36l.01-.16"/>
    <path d="M33.13 18.66l-.01.16-23.24-3.35.02-.16"/>
    <path d="M33.12 18.77l-.02.16-23.23-3.35.02-.16"/>
    <path d="M33.11 18.87l-.02.16-23.23-3.35.02-.16"/>
    <path d="M33.1 18.98l-.02.16-23.23-3.35.02-.16"/>
    <path d="M33.09 19.09l-.02.16L9.83 15.9l.02-.16"/>
    <path d="M33.07 19.19l-.02.16L9.82 16l.02-.16"/>
    <path d="M33.06 19.3l-.02.16-23.23-3.35.02-.16"/>
    <path d="M33.05 19.41l-.02.16-23.24-3.35.02-.16"/>
    <path d="M33.03 19.51l-.01.16-23.24-3.35.02-.16"/>
    <path d="M33.02 19.62l-.02.16-23.23-3.35.02-.16"/>
    <path d="M33.01 19.73l-.02.16-23.23-3.35.02-.16"/>
    <path d="M33 19.83l-.02.16-23.24-3.35.02-.16"/>
    <path d="M32.98 19.94l-.01.16-23.24-3.35.02-.16"/>
    <path d="M32.97 20.05l-.02.15-23.23-3.34.02-.16"/>
    <path d="M32.96 20.15l-.02.16-23.23-3.35.02-.16"/>
    <path d="M32.95 20.26l-.02.16L9.7 17.07l.01-.16"/>
    <path d="M32.93 20.36l-.02.16-23.23-3.34.02-.16"/>
    <path d="M32.92 20.47l-.02.16-23.23-3.35.02-.16"/>
    <path d="M32.91 20.58l-.02.16-23.23-3.35.02-.16"/>
    <path d="M32.9 20.68l-.02.16L9.64 17.5l.02-.16"/>
    <path d="M32.88 20.79l-.01.16L9.63 17.6l.02-.16"/>
    <path d="M32.87 20.9l-.02.16-23.23-3.35.02-.16"/>
    <path d="M32.86 21l-.02.16-23.23-3.34.02-.16"/>
    <path d="M32.85 21.11l-.02.16-23.24-3.35.02-.16"/>
    <path d="M32.83 21.22l-.02.16-23.23-3.35.02-.16"/>
    <path d="M32.82 21.32l-.02.16-23.23-3.35.02-.15"/>
    <path d="M32.81 21.43l-.02.16-23.23-3.35.01-.16"/>
    <path d="M32.8 21.54l-.02.16-23.24-3.35.02-.16"/>
    <path d="M32.78 21.64l-.02.16-23.23-3.35.02-.16"/>
    <path d="M32.77 21.75l-.02.16-23.23-3.35.02-.16"/>
    <path d="M32.76 21.86l-.02.16-23.23-3.35.02-.16"/>
    <path d="M32.74 21.96l-.01.16-23.24-3.35.02-.16"/>
    <path d="M32.73 22.07l-.02.16-23.23-3.35.02-.16"/>
    <path d="M32.72 22.18l-.02.16-23.23-3.35.02-.16"/>
    <path d="M32.71 22.28l-.02.16-23.23-3.35.01-.16"/>
    <path d="M32.7 22.39l-.02.16L9.44 19.2l.02-.16"/>
    <path d="M32.68 22.5l-.02.16-23.23-3.35.02-.16"/>
    <path d="M32.67 22.6l-.02.16-23.23-3.35.02-.16"/>
    <path d="M32.66 22.71l-.02.16-23.23-3.35.01-.16"/>
    <path d="M32.65 22.82l-.02.16-23.24-3.35.02-.16"/>
    <path d="M32.63 22.92l-.02.16-23.23-3.35.02-.16"/>
    <path d="M32.62 23.03l-.02.16-23.23-3.35.02-.16"/>
    <path d="M32.61 23.14l-.02.16-23.23-3.35.01-.16"/>
    <path d="M32.59 23.24l-.01.16-23.24-3.35.02-.16"/>
    <path d="M32.58 23.35l-.02.16-23.23-3.35.02-.16"/>
    <path d="M32.57 23.46l-.02.16-23.23-3.35.02-.16"/>
    <path d="M32.56 23.56l-.02.16L9.3 20.37l.02-.16"/>
    <path d="M32.54 23.67l-.02.16-23.23-3.35.02-.16"/>
    <path d="M32.53 23.78l-.02.16-23.23-3.35.02-.16"/>
    <path d="M32.52 23.88l-.02.16-23.23-3.35.02-.16"/>
    <path d="M32.51 23.99l-.02.16L9.26 20.8l.01-.16"/>
    <path d="M32.49 24.1l-.01.16-23.24-3.35.02-.16"/>
    <path d="M32.48 24.2l-.02.16-23.23-3.35.02-.16"/>
    <path d="M32.47 24.31l-.02.16-23.23-3.35.02-.16"/>
    <path d="M32.46 24.42l-.02.16L9.2 21.23l.02-.16"/>
    <path d="M32.44 24.52l-.02.16-23.23-3.35.02-.16"/>
    <path d="M32.43 24.63l-.02.16-23.23-3.35.02-.16"/>
    <path d="M32.42 24.74l-.02.15-23.23-3.34.02-.16"/>
    <path d="M32.41 24.84l-.02.16-23.24-3.35.02-.16"/>
    <path d="M32.39 24.95l-.02.16-23.23-3.35.02-.16"/>
    <path d="M32.38 25.05l-.02.16-23.23-3.35.02-.16"/>
    <path d="M32.37 25.16l-.02.16-23.23-3.35.01-.16"/>
    <path d="M32.36 25.27l-.02.16L9.1 22.08l.02-.16"/>
    <path d="M32.34 25.38l-.02.16-23.23-3.36.02-.16"/>
    <path d="M32.33 25.48l-.02.16-23.23-3.35.02-.16"/>
    <path d="M32.32 25.59l-.02.16L9.07 22.4l.02-.16"/>
    <path d="M32.3 25.7l-.01.16L9.05 22.5l.02-.16"/>
    <path d="M32.29 25.8l-.02.16-23.23-3.35.02-.16"/>
    <path d="M32.28 25.91l-.02.16-23.23-3.35.02-.16"/>
    <path d="M32.27 26.02l-.02.16-23.23-3.36.02-.16"/>
    <path d="M32.26 26.12l-.02.16L9 22.93l.02-.16"/>
    <path d="M32.24 26.23l-.02.16-23.23-3.35.02-.16"/>
    <path d="M32.23 26.33l-.02.16-23.23-3.35.02-.16"/>
    <path d="M32.22 26.44l-.02.16-23.24-3.35.02-.16"/>
    <path d="M32.2 26.55l-.01.16-23.24-3.35.02-.16"/>
    <path d="M32.19 26.65v.05L8.95 23.35l.01-.05"/>
  </g>
  <path d="M39.43 31v-1a1.37 1.37 0 1 0 .1-2.73 1.32 1.32 0 0 0-1 .38l-.13.12H0v-1h38a2.5 2.5 0 0 1 1.56-.53 2.36 2.36 0 0 1 2.33 2.43A2.43 2.43 0 0 1 39.43 31zm-21.2 4A5.37 5.37 0 0 0 13 30.15H3.79v-.86H13A6.14 6.14 0 0 1 19.08 35h-.85z" fill="#9e0000"/>
  <path d="M16.33 35a3.87 3.87 0 0 0-3.71-3H2.41v-.82h10.21A4.68 4.68 0 0 1 17.21 35z" fill="#9e0000"/>
  <path d="M14.37 35a2.34 2.34 0 0 0-2.07-1.06H1v-.86h11.29a3.37 3.37 0 0 1 3 1.91h-.92zm6.86 0a5.37 5.37 0 0 1 5.27-4.82h9.15v-.89H26.5A6.14 6.14 0 0 0 20.37 35h.85z" fill="#9e0000"/>
  <path d="M23.13 35a3.87 3.87 0 0 1 3.71-3H37v-.82H26.84A4.68 4.68 0 0 0 22.25 35h.88z" fill="#9e0000"/>
  <path d="M25.09 35a2.34 2.34 0 0 1 2.07-1.06H38.4v-.86H27.17a3.37 3.37 0 0 0-3 1.91h.95z" fill="#9e0000"/>
</svg>
