<?xml version="1.0" standalone="no"?>
<!DOCTYPE svg PUBLIC "-//W3C//DTD SVG 20010904//EN"
 "http://www.w3.org/TR/2001/REC-SVG-20010904/DTD/svg10.dtd">
<svg version="1.0" xmlns="http://www.w3.org/2000/svg"
 width="700.000000pt" height="700.000000pt" viewBox="0 0 700.000000 700.000000"
 preserveAspectRatio="xMidYMid meet">
<metadata>
Created by potrace 1.11, written by Peter Selinger 2001-2013
</metadata>
<g transform="translate(0.000000,700.000000) scale(0.100000,-0.100000)"
fill="#000000" stroke="none">
<path d="M820 6994 c-109 -17 -237 -57 -305 -95 -120 -66 -170 -104 -246 -180
-126 -126 -209 -283 -249 -467 -18 -84 -18 -178 -17 -2777 l2 -2690 23 -80
c107 -368 367 -610 742 -692 19 -4 1239 -8 2710 -10 2894 -2 2725 -5 2892 51
162 54 305 155 420 296 101 123 159 250 196 430 9 43 10 5381 1 5430 -55 300
-222 534 -489 682 -55 30 -145 65 -208 79 -26 6 -56 14 -67 17 -21 7 -5361 12
-5405 6z"/>
</g>
</svg>
