<?xml version="1.0" standalone="no"?>
<!DOCTYPE svg PUBLIC "-//W3C//DTD SVG 20010904//EN"
 "http://www.w3.org/TR/2001/REC-SVG-20010904/DTD/svg10.dtd">
<svg version="1.0" xmlns="http://www.w3.org/2000/svg"
 width="700.000000pt" height="700.000000pt" viewBox="0 0 700.000000 700.000000"
 preserveAspectRatio="xMidYMid meet">
<metadata>
Created by potrace 1.11, written by Peter Selinger 2001-2013
</metadata>
<g transform="translate(0.000000,700.000000) scale(0.100000,-0.100000)"
fill="#000000" stroke="none">
<path d="M3337 6964 c-1 -1 -51 -5 -111 -8 -60 -4 -112 -9 -115 -10 -3 -2 -39
-7 -80 -10 -41 -4 -77 -9 -81 -11 -3 -2 -26 -6 -50 -10 -25 -3 -52 -8 -60 -10
-8 -2 -28 -7 -45 -10 -56 -9 -74 -14 -192 -45 -844 -224 -1573 -762 -2044
-1507 -72 -114 -192 -342 -244 -463 -62 -144 -155 -410 -169 -487 -2 -10 -9
-38 -16 -63 -7 -25 -14 -56 -16 -70 -3 -14 -7 -32 -10 -40 -3 -8 -8 -33 -10
-55 -3 -22 -9 -56 -14 -75 -5 -19 -12 -62 -16 -95 -3 -33 -8 -69 -10 -80 -19
-97 -26 -567 -11 -720 14 -146 43 -331 71 -450 2 -11 9 -41 15 -67 88 -384
291 -829 534 -1170 81 -114 76 -107 180 -233 576 -692 1429 -1139 2337 -1223
156 -15 624 -7 740 12 8 2 42 6 75 11 33 4 67 9 75 11 8 1 62 12 120 23 58 12
130 28 160 37 30 8 65 17 77 20 46 9 261 83 362 123 929 373 1669 1158 1987
2106 41 123 88 292 100 358 2 17 6 33 8 36 2 3 7 29 10 56 4 28 11 66 16 85 5
19 12 64 15 100 4 36 9 67 10 70 9 14 19 251 19 415 0 161 -9 331 -19 383 -2
10 -6 43 -9 74 -3 30 -11 79 -16 109 -6 30 -13 68 -16 84 -8 51 -45 206 -69
290 -123 431 -334 842 -614 1195 -107 134 -121 150 -266 295 -144 144 -194
190 -287 261 -35 27 -65 51 -68 54 -3 3 -36 28 -75 56 -257 185 -559 343 -850
448 -222 79 -518 151 -705 171 -25 3 -55 7 -67 9 -60 12 -545 30 -556 20z
m443 -147 c19 -3 62 -8 95 -12 91 -9 124 -14 190 -26 33 -6 71 -13 85 -16 177
-32 443 -115 650 -203 307 -131 634 -334 854 -530 381 -338 625 -655 831
-1075 148 -304 263 -679 301 -980 3 -27 8 -61 10 -75 25 -163 25 -673 0 -795
-2 -11 -7 -42 -10 -70 -4 -27 -11 -72 -16 -100 -5 -27 -11 -61 -14 -75 -72
-414 -291 -921 -558 -1293 -127 -177 -340 -413 -503 -558 -274 -242 -627 -458
-980 -599 -271 -109 -620 -192 -895 -216 -36 -3 -83 -7 -105 -9 -52 -6 -402
-6 -435 -1 -14 3 -61 7 -105 10 -82 6 -103 9 -215 27 -108 17 -151 25 -178 33
-9 3 -28 7 -42 10 -161 28 -473 139 -696 247 -349 169 -626 368 -909 653 -545
548 -872 1242 -952 2021 -10 97 -10 545 -1 635 31 288 121 674 203 865 7 17
20 48 28 70 91 240 340 665 482 821 5 7 19 22 29 35 482 599 1235 1041 1985
1164 19 3 37 7 40 9 3 2 35 7 71 11 36 4 72 8 81 10 8 2 55 6 105 10 49 4 90
9 92 10 5 5 445 -3 482 -8z"/>
<path d="M3450 6146 c-119 -43 -287 -114 -391 -166 -394 -197 -590 -455 -590
-775 0 -100 15 -171 59 -270 82 -188 191 -311 562 -635 312 -273 436 -429 487
-615 3 -11 7 -63 8 -117 5 -167 -55 -325 -169 -443 l-63 -65 56 5 c182 18 369
70 538 150 147 70 241 133 334 225 156 156 231 326 232 530 0 251 -121 451
-453 744 -63 55 -121 108 -130 116 -9 8 -51 47 -95 85 -329 290 -447 488 -439
729 5 155 37 256 128 401 31 49 55 97 54 105 -5 24 -57 22 -128 -4z"/>
<path d="M2344 4684 c-82 -90 -119 -190 -123 -334 -4 -160 68 -286 234 -410
28 -20 133 -85 235 -145 221 -130 278 -167 347 -229 60 -54 100 -110 127 -176
24 -58 29 -182 11 -235 -8 -22 -15 -44 -15 -48 0 -19 94 59 135 110 58 74 86
149 92 248 11 175 -67 338 -254 531 -85 89 -134 134 -277 259 -154 133 -185
162 -282 262 -55 57 -118 128 -140 158 -21 30 -41 55 -44 54 -3 0 -24 -20 -46
-45z"/>
<path d="M6010 2908 c-30 -5 -77 -21 -105 -37 l-50 -28 -2555 -1 c-1405 0
-2565 -1 -2577 -1 -22 -1 -23 -5 -23 -71 l0 -69 2604 0 c2507 0 2605 0 2628
18 90 70 181 69 254 -5 109 -108 54 -281 -99 -309 l-37 -7 0 -70 0 -70 39 6
c72 10 96 19 151 57 91 64 141 157 141 263 0 207 -168 354 -371 324z"/>
<path d="M1575 2490 l-361 -5 1 -55 1 -55 674 0 c371 0 680 -4 686 -7 6 -4 26
-10 44 -13 147 -26 331 -153 424 -293 67 -101 126 -252 126 -323 0 -17 8 -19
60 -19 l61 0 -6 48 c-13 106 -69 256 -130 347 -124 187 -314 315 -534 360 -90
18 -444 23 -1046 15z"/>
<path d="M4241 2488 c-366 -28 -662 -274 -751 -624 -11 -43 -20 -92 -20 -111
l0 -33 54 0 55 0 11 58 c62 296 290 529 570 583 47 9 243 12 720 13 l654 1 1
58 1 57 -555 1 c-306 0 -576 1 -601 2 -25 1 -87 -1 -139 -5z"/>
<path d="M1030 2178 c0 -40 4 -58 13 -59 6 0 338 -1 737 -2 l725 -3 65 -23
c103 -36 184 -94 247 -176 35 -46 93 -160 93 -182 0 -7 8 -13 18 -14 30 -2 97
3 101 7 2 2 -2 25 -9 51 -35 132 -160 294 -281 366 -66 38 -153 70 -231 83
-23 4 -366 8 -760 8 l-718 1 0 -57z"/>
<path d="M4275 2229 c-125 -12 -261 -72 -359 -159 -41 -36 -109 -127 -138
-185 -24 -46 -61 -155 -55 -161 2 -2 85 -6 103 -5 6 1 21 27 34 59 29 71 97
169 147 211 57 47 57 47 104 72 104 53 93 52 844 55 385 2 716 3 735 3 l36 1
-2 48 c-1 26 -2 52 -3 57 -1 11 -1338 15 -1446 4z"/>
<path d="M840 1920 l0 -60 808 -3 c444 -1 817 -5 829 -9 43 -13 84 -40 131
-84 48 -46 59 -50 144 -45 l28 1 -31 50 c-50 82 -138 146 -259 191 -27 10
-212 14 -842 16 l-808 2 0 -59z"/>
<path d="M4259 1956 c-78 -26 -142 -63 -191 -110 -39 -37 -93 -115 -85 -123 3
-2 30 -5 61 -5 55 -1 59 0 102 45 49 49 114 85 167 91 17 3 384 5 815 5 l782
1 0 59 0 60 -794 -1 c-785 0 -795 0 -857 -22z"/>
</g>
</svg>
