<svg xmlns="http://www.w3.org/2000/svg" width="171.55" height="36.53">
  <defs>
    <clipPath id="a" transform="translate(0 1.53)">
      <path fill="#9e0000" d="M155.07 7.07h16.48v4.33h-5.36v17.3h-5.76V11.41h-5.36V7.07zm-25.32 0h7l8.18 21.62h-6.16l-1.54-4.58h-8.32l-1.61 4.58h-5.7zm3.36 4.82L130.32 20h5.51zM96 7.07h7l8.18 21.62H105l-1.54-4.58h-8.31l-1.61 4.59h-5.7zm3.36 4.82L96.59 20h5.51zm-25-4.57L74 11.78a15 15 0 0 0-2.54-.85 10.49 10.49 0 0 0-2.36-.28 5.6 5.6 0 0 0-2.73.56 1.69 1.69 0 0 0-1 1.53 1.65 1.65 0 0 0 .5 1.19 3.74 3.74 0 0 0 1.51.85l1 .3a19 19 0 0 1 4.93 2.12 5.47 5.47 0 0 1 1.67 2 6.14 6.14 0 0 1 .53 2.65 6.53 6.53 0 0 1-2.37 5.45q-2.37 1.88-6.87 1.88a23.86 23.86 0 0 1-3.33-.18 23.61 23.61 0 0 1-3.25-.69l.49-4.82a17.56 17.56 0 0 0 3 1 11.26 11.26 0 0 0 2.72.36 4.92 4.92 0 0 0 2.69-.64 2 2 0 0 0 1-1.73q0-1.36-3.16-2.45l-1.17-.41a10.84 10.84 0 0 1-4.41-2.58 5.4 5.4 0 0 1-1.32-3.75 5.89 5.89 0 0 1 2.33-5q2.33-1.75 6.68-1.75a23.49 23.49 0 0 1 3.07.19 18.52 18.52 0 0 1 2.78.59z" clip-rule="evenodd"/>
    </clipPath>
    <clipPath id="b" transform="translate(0 1.53)">
      <path fill="#9e0000" d="M20.13 24.75zm-.3-.06zm-1-.34h.07zm-.08 0h.07zm-7.9-12.8a4.3 4.3 0 0 0-1.43 3.15c.07 4.1 10.91 5 9.24 9.6 4-3 1-5.78-2.62-8.14A19.38 19.38 0 0 1 11 11.47z" clip-rule="evenodd"/>
    </clipPath>
    <clipPath id="c" transform="translate(0 1.53)">
      <path fill="#9e0000" d="M23.36.19C18.88 1.22 11.94 3.31 11 8.25c-.73 3.87 5.84 6.88 8.93 10.05 1.85 1.89 2.24 4-.43 6 5.55 1.34 13.33-3.17 8.9-9.51-2.33-3.33-7.74-5.08-8.59-8C18.72 3 22.66 1.4 23.36.19" clip-rule="evenodd"/>
    </clipPath>
  </defs>
  <path fill="#9e0000" fill-rule="evenodd" d="M155.07 8.6h16.48v4.33h-5.36v17.3h-5.76V12.94h-5.36V8.6zm-25.32 0h7l8.18 21.62h-6.16l-1.54-4.58h-8.32l-1.61 4.58h-5.7zm3.36 4.82l-2.79 8.11h5.51zM96 8.6h7l8.18 21.62H105l-1.54-4.58h-8.31l-1.61 4.59h-5.7zm3.36 4.82l-2.77 8.11h5.51zm-25-4.57L74 13.31a15 15 0 0 0-2.54-.85 10.49 10.49 0 0 0-2.36-.28 5.6 5.6 0 0 0-2.73.56 1.69 1.69 0 0 0-1 1.53 1.65 1.65 0 0 0 .5 1.19 3.74 3.74 0 0 0 1.51.85l1 .3a19 19 0 0 1 4.93 2.12 5.47 5.47 0 0 1 1.67 2 6.14 6.14 0 0 1 .53 2.65 6.53 6.53 0 0 1-2.37 5.45q-2.37 1.88-6.87 1.88a23.86 23.86 0 0 1-3.33-.18 23.61 23.61 0 0 1-3.25-.69l.49-4.82a17.56 17.56 0 0 0 3 1 11.26 11.26 0 0 0 2.72.36 4.92 4.92 0 0 0 2.69-.64 2 2 0 0 0 1-1.73q0-1.36-3.16-2.45l-1.17-.41a10.84 10.84 0 0 1-4.41-2.58 5.4 5.4 0 0 1-1.32-3.75 5.89 5.89 0 0 1 2.33-5q2.33-1.75 6.68-1.75a23.49 23.49 0 0 1 3.07.19 18.52 18.52 0 0 1 2.78.59z"/>
  <g fill="#9e0000" fill-rule="evenodd" clip-path="url(#a)">
    <path d="M171.55 8.08v-.01H59.46v.01"/>
    <path d="M171.55 8.02v.15H59.46v-.15"/>
    <path d="M171.55 8.12v.15H59.46v-.15"/>
    <path d="M171.55 8.22v.15H59.46v-.15"/>
    <path d="M171.55 8.32v.14H59.46v-.14"/>
    <path d="M171.55 8.41v.15H59.46v-.15"/>
    <path d="M171.55 8.52v.14H59.46v-.14"/>
    <path d="M171.55 8.61v.15H59.46v-.15"/>
    <path d="M171.55 8.71v.15H59.46v-.15"/>
    <path d="M171.55 8.81v.15H59.46v-.15"/>
    <path d="M171.55 8.91v.15H59.46v-.15"/>
    <path d="M171.55 9.01v.15H59.46v-.15"/>
    <path d="M171.55 9.11v.15H59.46v-.15"/>
    <path d="M171.55 9.21v.15H59.46v-.15"/>
    <path d="M171.55 9.31v.15H59.46v-.15"/>
    <path d="M171.55 9.41v.15H59.46v-.15"/>
    <path d="M171.55 9.51v.15H59.46v-.15"/>
    <path d="M171.55 9.61v.15H59.46v-.15"/>
    <path d="M171.55 9.71v.15H59.46v-.15"/>
    <path d="M171.55 9.8v.15H59.46V9.8"/>
    <path d="M171.55 9.9v.15H59.46V9.9"/>
    <path d="M171.55 10v.15H59.46V10"/>
    <path d="M171.55 10.1v.15H59.46v-.15"/>
    <path d="M171.55 10.2v.15H59.46v-.15"/>
    <path d="M171.55 10.3v.15H59.46v-.15"/>
    <path d="M171.55 10.4v.15H59.46v-.15"/>
    <path d="M171.55 10.5v.15H59.46v-.15"/>
    <path d="M171.55 10.6v.15H59.46v-.15"/>
    <path d="M171.55 10.7v.15H59.46v-.15"/>
    <path d="M171.55 10.8v.15H59.46v-.15"/>
    <path d="M171.55 10.9v.15H59.46v-.15"/>
    <path d="M171.55 11v.15H59.46V11"/>
    <path d="M171.55 11.1v.14H59.46v-.14"/>
    <path d="M171.55 11.2v.14H59.46v-.14"/>
    <path d="M171.55 11.29v.15H59.46v-.15"/>
    <path d="M171.55 11.39v.15H59.46v-.15"/>
    <path d="M171.55 11.49v.15H59.46v-.15"/>
    <path d="M171.55 11.59v.15H59.46v-.15"/>
    <path d="M171.55 11.69v.15H59.46v-.15"/>
    <path d="M171.55 11.79v.15H59.46v-.15"/>
    <path d="M171.55 11.89v.15H59.46v-.15"/>
    <path d="M171.55 11.99v.15H59.46v-.15"/>
    <path d="M171.55 12.09v.15H59.46v-.15"/>
    <path d="M171.55 12.19v.15H59.46v-.15"/>
    <path d="M171.55 12.29v.15H59.46v-.15"/>
    <path d="M171.55 12.39v.15H59.46v-.15"/>
    <path d="M171.55 12.49v.14H59.46v-.14"/>
    <path d="M171.55 12.59v.14H59.46v-.14"/>
    <path d="M171.55 12.69v.14H59.46v-.14"/>
    <path d="M171.55 12.78v.15H59.46v-.15"/>
    <path d="M171.55 12.88v.15H59.46v-.15"/>
    <path d="M171.55 12.98v.15H59.46v-.15"/>
    <path d="M171.55 13.08v.15H59.46v-.15"/>
    <path d="M171.55 13.18v.15H59.46v-.15"/>
    <path d="M171.55 13.28v.15H59.46v-.15"/>
    <path d="M171.55 13.38v.15H59.46v-.15"/>
    <path d="M171.55 13.48v.15H59.46v-.15"/>
    <path d="M171.55 13.58v.15H59.46v-.15"/>
    <path d="M171.55 13.68v.15H59.46v-.15"/>
    <path d="M171.55 13.78v.15H59.46v-.15"/>
    <path d="M171.55 13.88v.15H59.46v-.15"/>
    <path d="M171.55 13.97v.15H59.46v-.15"/>
    <path d="M171.55 14.07v.15H59.46v-.15"/>
    <path d="M171.55 14.17v.15H59.46v-.15"/>
    <path d="M171.55 14.27v.15H59.46v-.15"/>
    <path d="M171.55 14.37v.15H59.46v-.15"/>
    <path d="M171.55 14.47v.15H59.46v-.15"/>
    <path d="M171.55 14.57v.15H59.46v-.15"/>
    <path d="M171.55 14.67v.15H59.46v-.15"/>
    <path d="M171.55 14.77v.15H59.46v-.15"/>
    <path d="M171.55 14.87v.15H59.46v-.15"/>
    <path d="M171.55 14.97v.15H59.46v-.15"/>
    <path d="M171.55 15.07v.15H59.46v-.15"/>
    <path d="M171.55 15.17v.15H59.46v-.15"/>
    <path d="M171.55 15.27v.14H59.46v-.14"/>
    <path d="M171.55 15.37v.14H59.46v-.14"/>
    <path d="M171.55 15.46v.15H59.46v-.15"/>
    <path d="M171.55 15.56v.15H59.46v-.15"/>
    <path d="M171.55 15.66v.15H59.46v-.15"/>
    <path d="M171.55 15.76v.15H59.46v-.15"/>
    <path d="M171.55 15.86v.15H59.46v-.15"/>
    <path d="M171.55 15.96v.15H59.46v-.15"/>
    <path d="M171.55 16.06v.15H59.46v-.15"/>
    <path d="M171.55 16.16v.15H59.46v-.15"/>
    <path d="M171.55 16.26v.15H59.46v-.15"/>
    <path d="M171.55 16.36v.15H59.46v-.15"/>
    <path d="M171.55 16.46v.15H59.46v-.15"/>
    <path d="M171.55 16.56v.14H59.46v-.14"/>
    <path d="M171.55 16.66v.14H59.46v-.14"/>
    <path d="M171.55 16.75v.15H59.46v-.15"/>
    <path d="M171.55 16.85V17H59.46v-.15"/>
    <path d="M171.55 16.95v.15H59.46v-.15"/>
    <path d="M171.55 17.05v.15H59.46v-.15"/>
    <path d="M171.55 17.15v.15H59.46v-.15"/>
    <path d="M171.55 17.25v.15H59.46v-.15"/>
    <path d="M171.55 17.35v.15H59.46v-.15"/>
    <path d="M171.55 17.45v.15H59.46v-.15"/>
    <path d="M171.55 17.55v.15H59.46v-.15"/>
    <path d="M171.55 17.65v.15H59.46v-.15"/>
    <path d="M171.55 17.75v.15H59.46v-.15"/>
    <path d="M171.55 17.85V18H59.46v-.15"/>
    <path d="M171.55 17.95v.14H59.46v-.14"/>
    <path d="M171.55 18.05v.15H59.46v-.15"/>
    <path d="M171.55 18.14v.15H59.46v-.15"/>
    <path d="M171.55 18.24v.15H59.46v-.15"/>
    <path d="M171.55 18.34v.15H59.46v-.15"/>
    <path d="M171.55 18.44v.15H59.46v-.15"/>
    <path d="M171.55 18.54v.15H59.46v-.15"/>
    <path d="M171.55 18.64v.15H59.46v-.15"/>
    <path d="M171.55 18.74v.15H59.46v-.15"/>
    <path d="M171.55 18.84v.15H59.46v-.15"/>
    <path d="M171.55 18.94v.15H59.46v-.15"/>
    <path d="M171.55 19.04v.15H59.46v-.15"/>
    <path d="M171.55 19.14v.15H59.46v-.15"/>
    <path d="M171.55 19.24v.15H59.46v-.15"/>
    <path d="M171.55 19.34v.14H59.46v-.14"/>
    <path d="M171.55 19.44v.15H59.46v-.15"/>
    <path d="M171.55 19.54v.14H59.46v-.14"/>
    <path d="M171.55 19.63v.15H59.46v-.15"/>
    <path d="M171.55 19.73v.15H59.46v-.15"/>
    <path d="M171.55 19.83v.15H59.46v-.15"/>
    <path d="M171.55 19.93v.15H59.46v-.15"/>
    <path d="M171.55 20.03v.15H59.46v-.15"/>
    <path d="M171.55 20.13v.15H59.46v-.15"/>
    <path d="M171.55 20.23v.15H59.46v-.15"/>
    <path d="M171.55 20.33v.15H59.46v-.15"/>
    <path d="M171.55 20.43v.15H59.46v-.15"/>
    <path d="M171.55 20.53v.15H59.46v-.15"/>
    <path d="M171.55 20.63v.15H59.46v-.15"/>
    <path d="M171.55 20.73v.15H59.46v-.15"/>
    <path d="M171.55 20.83v.15H59.46v-.15"/>
    <path d="M171.55 20.93v.14H59.46v-.14"/>
    <path d="M171.55 21.02v.15H59.46v-.15"/>
    <path d="M171.55 21.12v.15H59.46v-.15"/>
    <path d="M171.55 21.22v.15H59.46v-.15"/>
    <path d="M171.55 21.32v.15H59.46v-.15"/>
    <path d="M171.55 21.42v.15H59.46v-.15"/>
    <path d="M171.55 21.52v.15H59.46v-.15"/>
    <path d="M171.55 21.62v.15H59.46v-.15"/>
    <path d="M171.55 21.72v.15H59.46v-.15"/>
    <path d="M171.55 21.82v.15H59.46v-.15"/>
    <path d="M171.55 21.92v.15H59.46v-.15"/>
    <path d="M171.55 22.02v.15H59.46v-.15"/>
    <path d="M171.55 22.12v.15H59.46v-.15"/>
    <path d="M171.55 22.22v.14H59.46v-.14"/>
    <path d="M171.55 22.32v.14H59.46v-.14"/>
    <path d="M171.55 22.41v.15H59.46v-.15"/>
    <path d="M171.55 22.51v.15H59.46v-.15"/>
    <path d="M171.55 22.61v.15H59.46v-.15"/>
    <path d="M171.55 22.71v.15H59.46v-.15"/>
    <path d="M171.55 22.81v.15H59.46v-.15"/>
    <path d="M171.55 22.91v.15H59.46v-.15"/>
    <path d="M171.55 23.01v.15H59.46v-.15"/>
    <path d="M171.55 23.11v.15H59.46v-.15"/>
    <path d="M171.55 23.21v.15H59.46v-.15"/>
    <path d="M171.55 23.31v.15H59.46v-.15"/>
    <path d="M171.55 23.41v.15H59.46v-.15"/>
    <path d="M171.55 23.51v.15H59.46v-.15"/>
    <path d="M171.55 23.61v.14H59.46v-.14"/>
    <path d="M171.55 23.7v.15H59.46v-.15"/>
    <path d="M171.55 23.8v.15H59.46v-.15"/>
    <path d="M171.55 23.9v.15H59.46v-.15"/>
    <path d="M171.55 24v.15H59.46V24"/>
    <path d="M171.55 24.1v.15H59.46v-.15"/>
    <path d="M171.55 24.2v.15H59.46v-.15"/>
    <path d="M171.55 24.3v.15H59.46v-.15"/>
    <path d="M171.55 24.4v.15H59.46v-.15"/>
    <path d="M171.55 24.5v.15H59.46v-.15"/>
    <path d="M171.55 24.6v.15H59.46v-.15"/>
    <path d="M171.55 24.7v.15H59.46v-.15"/>
    <path d="M171.55 24.8v.15H59.46v-.15"/>
    <path d="M171.55 24.9v.15H59.46v-.15"/>
    <path d="M171.55 25v.14H59.46V25"/>
    <path d="M171.55 25.09v.15H59.46v-.15"/>
    <path d="M171.55 25.19v.15H59.46v-.15"/>
    <path d="M171.55 25.29v.15H59.46v-.15"/>
    <path d="M171.55 25.39v.15H59.46v-.15"/>
    <path d="M171.55 25.49v.15H59.46v-.15"/>
    <path d="M171.55 25.59v.15H59.46v-.15"/>
    <path d="M171.55 25.69v.15H59.46v-.15"/>
    <path d="M171.55 25.79v.15H59.46v-.15"/>
    <path d="M171.55 25.89v.15H59.46v-.15"/>
    <path d="M171.55 25.99v.15H59.46v-.15"/>
    <path d="M171.55 26.09v.15H59.46v-.15"/>
    <path d="M171.55 26.19v.15H59.46v-.15"/>
    <path d="M171.55 26.29v.14H59.46v-.14"/>
    <path d="M171.55 26.39v.14H59.46v-.14"/>
    <path d="M171.55 26.48v.15H59.46v-.15"/>
    <path d="M171.55 26.58v.15H59.46v-.15"/>
    <path d="M171.55 26.68v.15H59.46v-.15"/>
    <path d="M171.55 26.78v.15H59.46v-.15"/>
    <path d="M171.55 26.88v.15H59.46v-.15"/>
    <path d="M171.55 26.98v.15H59.46v-.15"/>
    <path d="M171.55 27.08v.15H59.46v-.15"/>
    <path d="M171.55 27.18v.15H59.46v-.15"/>
    <path d="M171.55 27.28v.15H59.46v-.15"/>
    <path d="M171.55 27.38v.15H59.46v-.15"/>
    <path d="M171.55 27.48v.15H59.46v-.15"/>
    <path d="M171.55 27.58v.15H59.46v-.15"/>
    <path d="M171.55 27.68v.14H59.46v-.14"/>
    <path d="M171.55 27.77v.15H59.46v-.15"/>
    <path d="M171.55 27.88v.14H59.46v-.14"/>
    <path d="M171.55 27.97v.15H59.46v-.15"/>
    <path d="M171.55 28.07v.15H59.46v-.15"/>
    <path d="M171.55 28.17v.15H59.46v-.15"/>
    <path d="M171.55 28.27v.15H59.46v-.15"/>
    <path d="M171.55 28.37v.15H59.46v-.15"/>
    <path d="M171.55 28.47v.15H59.46v-.15"/>
    <path d="M171.55 28.57v.15H59.46v-.15"/>
    <path d="M171.55 28.67v.15H59.46v-.15"/>
    <path d="M171.55 28.77v.15H59.46v-.15"/>
    <path d="M171.55 28.87v.15H59.46v-.15"/>
    <path d="M171.55 28.97v.15H59.46v-.15"/>
    <path d="M171.55 29.07v.14H59.46v-.14"/>
    <path d="M171.55 29.16v.15H59.46v-.15"/>
    <path d="M171.55 29.27v.14H59.46v-.14"/>
    <path d="M171.55 29.36v.15H59.46v-.15"/>
    <path d="M171.55 29.46v.15H59.46v-.15"/>
    <path d="M171.55 29.56v.15H59.46v-.15"/>
    <path d="M171.55 29.66v.15H59.46v-.15"/>
    <path d="M171.55 29.76v.15H59.46v-.15"/>
    <path d="M171.55 29.86v.15H59.46v-.15"/>
    <path d="M171.55 29.96v.15H59.46v-.15"/>
    <path d="M171.55 30.06v.15H59.46v-.15"/>
    <path d="M171.55 30.16v.15H59.46v-.15"/>
    <path d="M171.55 30.26v.15H59.46v-.15"/>
    <path d="M171.55 30.36v.15H59.46v-.15"/>
    <path d="M171.55 30.46v.15H59.46v-.15"/>
    <path d="M171.55 30.55v.15H59.46v-.15"/>
    <path d="M171.55 30.66v.07H59.46v-.07"/>
  </g>
  <path fill="#9e0000" fill-rule="evenodd" d="M20.13 26.28zm-.3-.06zm-1-.34h.07zm-.08 0h.07zm-7.9-12.8a4.3 4.3 0 0 0-1.43 3.15c.07 4.1 10.91 5 9.24 9.6 4-3 1-5.78-2.62-8.14A19.38 19.38 0 0 1 11 13z"/>
  <g fill="#9e0000" fill-rule="evenodd" clip-path="url(#b)">
    <path d="M22.68 13.53H9.5m13.18 0H9.5m12.67 0H9.55m12.62 0H9.55m13.13 0H9.5m13.18 0H9.5m12.67 0H9.55m13.13 0H9.5m13.18 0H9.5m12.5 0v1H10v-1"/>
    <path d="M22 13.53v1H10v-1m12.68 1H9.5m13.18 0H9.5m12.67 0H9.55m12.62 0H9.55m13.13 0H9.5m13.18 0H9.5m12.67 0H9.55m13.13 0H9.5m13.18 0H9.5m13.18 0H9.5m12.67 0H9.55m13.13 0H9.5m13.18 0H9.5m12.67 0H9.55m12.62 0H9.55m13.13 0H9.5m13.18 0H9.5m12.5 0v1H10v-1"/>
    <path d="M22 14.53v1H10v-1m12.68 1H9.5m13.18 0H9.5m12.67 0H9.55m13.13 0H9.5m13.18 0H9.5m12.67 0H9.55m12.62 0H9.55m13.13 0H9.5m13.18 0H9.5m12.67 0H9.55m12.62 0H9.55m13.13 0H9.5m13.18 0H9.5m12.67 0H9.55m13.13 0H9.5m13.18 0H9.5m13.18 0H9.5m12.67 0H9.55m13.13 0H9.5m13.18 0H9.5m12.5 0v1H10v-1"/>
    <path d="M22 15.53v1H10v-1m12.68 1H9.5m13.18 0H9.5m12.67 0H9.55m12.62 0H9.55m13.13 0H9.5m13.18 0H9.5m12.67 0H9.55m13.13 0H9.5m13.18 0H9.5m12.67 0H9.55m12.62 0H9.55m13.13 0H9.5m13.18 0H9.5m12.67 0H9.55m12.62 0H9.55m13.13 0H9.5m13.18 0H9.5m12.5 0v2H10v-2m12.68 2H9.5m13.18 0H9.5m13.18 0H9.5m12.67 0H9.55m13.13 0H9.5m13.18 0H9.5m12.67 0H9.55m12.62 0H9.55m13.13 0H9.5m13.18 0H9.5m12.67 0H9.55m13.13 0H9.5m13.18 0H9.5m13.18 0H9.5m12.67 0H9.55m13.13 0H9.5m13.18 0H9.5m12.5 0v1H10v-1"/>
    <path d="M22 18.53v1H10v-1m12.68 1H9.5m13.18 0H9.5m12.67 0H9.55m12.62 0H9.55m13.13 0H9.5m13.18 0H9.5m12.67 0H9.55m13.13 0H9.5m13.18 0H9.5m13.18 0H9.5m12.67 0H9.55m13.13 0H9.5m13.18 0H9.5m12.67 0H9.55m12.62 0H9.55m13.13 0H9.5m13.18 0H9.5m12.67 0H9.55m13.13 0H9.5m13.18 0H9.5m13.18 0H9.5m12.5 0v1H10v-1m12.68 1H9.5m13.18 0H9.5m12.67 0H9.55m12.62 0H9.55m13.13 0H9.5m13.18 0H9.5m12.67 0H9.55m12.62 0H9.55m13.13 0H9.5m13.18 0H9.5m12.67 0H9.55m13.13 0H9.5m13.18 0H9.5m12.67 0H9.55m12.62 0H9.55m13.13 0H9.5m13.18 0H9.5m12.5 0v1H10v-1"/>
    <path d="M22 20.53v1H10v-1m12.68 1H9.5m13.18 0H9.5m12.67 0H9.55m13.13 0H9.5m13.18 0H9.5m13.18 0H9.5m12.67 0H9.55m13.13 0H9.5m13.18 0H9.5m12.67 0H9.55m12.62 0H9.55m13.13 0H9.5m13.18 0H9.5m12.67 0H9.55m12.62 0H9.55m13.13 0H9.5m13.18 0H9.5m12.5 0v1H10v-1m12.68 1H9.5m13.18 0H9.5m12.67 0H9.55m12.62 0H9.55m13.13 0H9.5m13.18 0H9.5m12.67 0H9.55m12.62 0H9.55m13.13 0H9.5m13.18 0H9.5m12.67 0H9.55m13.13 0H9.5m13.18 0H9.5m13.18 0H9.5m12.67 0H9.55m13.13 0H9.5m13.18 0H9.5m12.67 0H9.55m12.62 0H9.55m13.13 0H9.5m13.18 0H9.5m12.5 0v2H10v-2m12.68 2H9.5m13.18 0H9.5m13.18 0H9.5m12.67 0H9.55m13.13 0H9.5m13.18 0H9.5m12.67 0H9.55m12.62 0H9.55m13.13 0H9.5m13.18 0H9.5m12.67 0H9.55m12.62 0H9.55m13.13 0H9.5m13.18 0H9.5m12.67 0H9.55m13.13 0H9.5m13.18 0H9.5m13.18 0H9.5m12.5 0v1H10v-1m12.68 1H9.5m13.18 0H9.5m12.67 0H9.55m12.62 0H9.55m13.13 0H9.5m13.18 0H9.5m12.67 0H9.55m13.13 0H9.5m13.18 0H9.5m13.18 0H9.5m12.67 0H9.55m13.13 0H9.5m13.18 0H9.5m12.67 0H9.55m12.62 0H9.55m13.13 0H9.5m13.18 0H9.5m12.5 0v1H10v-1"/>
    <path d="M22 25.53v1H10v-1m12.68 1H9.5m13.18 0H9.5m12.67 0H9.55m13.13 0H9.5m13.18 0H9.5m12.67 0H9.55m12.62 0H9.55m13.13 0H9.5m13.18 0H9.5m12.67 0H9.55m12.62 0H9.55m13.13 0H9.5m13.18 0H9.5m12.67 0H9.55m13.13 0H9.5m13.18 0H9.5m13.18 0H9.5m12.67 0H9.55m13.13 0H9.5m13.18 0H9.5m12.5 0v1H10v-1"/>
    <path d="M22 26.53v1H10v-1"/>
  </g>
  <path fill="#9e0000" fill-rule="evenodd" d="M23.36 1.72C18.88 2.75 11.94 4.84 11 9.78c-.73 3.87 5.84 6.88 8.93 10.05 1.85 1.89 2.24 4-.43 6 5.55 1.34 13.33-3.17 8.9-9.51-2.33-3.33-7.74-5.08-8.59-8-1.09-3.79 2.85-5.39 3.55-6.6"/>
  <g fill="#9e0000" fill-rule="evenodd" clip-path="url(#c)">
    <path d="M35.12 3.41V3.4L11.88.05v.01"/>
    <path d="M35.12 3.35l-.02.16L11.87.16l.02-.16"/>
    <path d="M35.11 3.46l-.02.16L11.86.27l.02-.16"/>
    <path d="M35.1 3.56l-.02.16L11.85.37l.01-.16"/>
    <path d="M35.09 3.67l-.02.16L11.83.48l.02-.16"/>
    <path d="M35.07 3.78l-.02.16L11.82.59l.02-.16"/>
    <path d="M35.06 3.88l-.02.16L11.81.69l.02-.16"/>
    <path d="M35.05 3.99l-.02.16L11.79.8l.02-.16"/>
    <path d="M35.03 4.1l-.01.16L11.78.91l.02-.16"/>
    <path d="M35.02 4.2l-.02.16-23.23-3.35.02-.16"/>
    <path d="M35.01 4.31l-.02.16-23.23-3.35.02-.16"/>
    <path d="M35 4.42l-.02.16-23.24-3.35.02-.16"/>
    <path d="M34.98 4.52l-.01.16-23.24-3.35.02-.16"/>
    <path d="M34.97 4.63l-.02.16-23.23-3.35.02-.16"/>
    <path d="M34.96 4.74l-.02.15-23.23-3.34.02-.16"/>
    <path d="M34.95 4.84l-.02.16-23.24-3.35.02-.16"/>
    <path d="M34.93 4.95l-.02.16-23.23-3.35.02-.16"/>
    <path d="M34.92 5.05l-.02.16-23.23-3.35.02-.15"/>
    <path d="M34.91 5.16l-.02.16-23.23-3.35.02-.16"/>
    <path d="M34.9 5.27l-.02.16-23.24-3.35.02-.16"/>
    <path d="M34.88 5.38l-.01.16-23.24-3.35.02-.17"/>
    <path d="M34.87 5.48l-.02.16-23.23-3.35.02-.16"/>
    <path d="M34.86 5.59l-.02.16L11.61 2.4l.02-.16"/>
    <path d="M34.85 5.7l-.02.16L11.59 2.5l.02-.15"/>
    <path d="M34.83 5.8l-.02.16-23.23-3.35.02-.16"/>
    <path d="M34.82 5.91l-.02.16-23.23-3.35.02-.16"/>
    <path d="M34.81 6.01l-.02.16-23.23-3.34.01-.16"/>
    <path d="M34.8 6.12l-.02.16-23.24-3.35.02-.16"/>
    <path d="M34.78 6.23l-.02.16-23.23-3.35.02-.16"/>
    <path d="M34.77 6.33l-.02.16-23.23-3.34.02-.17"/>
    <path d="M34.76 6.44l-.02.16-23.23-3.35.02-.16"/>
    <path d="M34.74 6.55l-.01.16-23.24-3.35.02-.16"/>
    <path d="M34.73 6.65l-.02.16-23.23-3.35.02-.16"/>
    <path d="M34.72 6.76l-.02.16-23.23-3.35.02-.16"/>
    <path d="M34.71 6.87l-.02.16-23.23-3.35.01-.16"/>
    <path d="M34.7 6.97l-.02.16-23.24-3.35.02-.16"/>
    <path d="M34.68 7.08l-.02.16-23.23-3.35.02-.16"/>
    <path d="M34.67 7.19l-.02.16L11.42 4l.02-.16"/>
    <path d="M34.66 7.29l-.02.16L11.4 4.1l.02-.16"/>
    <path d="M34.64 7.4l-.01.16-23.24-3.35.02-.16"/>
    <path d="M34.63 7.51l-.02.16-23.23-3.35.02-.16"/>
    <path d="M34.62 7.61l-.02.16-23.23-3.35.02-.16"/>
    <path d="M34.61 7.72l-.02.16-23.23-3.35.01-.16"/>
    <path d="M34.59 7.83l-.01.16-23.24-3.35.02-.16"/>
    <path d="M34.58 7.93l-.02.16-23.23-3.35.02-.16"/>
    <path d="M34.57 8.04l-.02.16-23.23-3.35.02-.16"/>
    <path d="M34.56 8.15l-.02.16L11.3 4.96l.02-.16"/>
    <path d="M34.54 8.25l-.02.16-23.23-3.35.02-.16"/>
    <path d="M34.53 8.36l-.02.16-23.23-3.35.02-.16"/>
    <path d="M34.52 8.47l-.02.16-23.23-3.35.02-.16"/>
    <path d="M34.51 8.57l-.02.16-23.24-3.35.02-.16"/>
    <path d="M34.49 8.68l-.01.16-23.24-3.35.02-.16"/>
    <path d="M34.48 8.79l-.02.16L11.23 5.6l.02-.16"/>
    <path d="M34.47 8.89l-.02.16L11.22 5.7l.01-.16"/>
    <path d="M34.46 9l-.02.16L11.2 5.81l.02-.16"/>
    <path d="M34.44 9.11l-.02.16-23.23-3.35.02-.16"/>
    <path d="M34.43 9.21l-.02.16-23.23-3.35.02-.16"/>
    <path d="M34.42 9.32l-.02.16-23.23-3.35.02-.16"/>
    <path d="M34.41 9.43l-.02.16-23.24-3.35.02-.16"/>
    <path d="M34.39 9.53l-.02.16-23.23-3.35.02-.16"/>
    <path d="M34.38 9.64l-.02.16-23.23-3.35.02-.16"/>
    <path d="M34.37 9.75l-.02.15-23.23-3.34.01-.16"/>
    <path d="M34.35 9.85l-.01.16L11.1 6.66l.02-.16"/>
    <path d="M34.34 9.96l-.02.16-23.23-3.35.02-.16"/>
    <path d="M34.33 10.06l-.02.16-23.23-3.34.02-.16"/>
    <path d="M34.32 10.17l-.02.16-23.24-3.35.02-.16"/>
    <path d="M34.3 10.28l-.01.16-23.24-3.35.02-.16"/>
    <path d="M34.29 10.38l-.02.16L11.04 7.2l.02-.16"/>
    <path d="M34.28 10.49l-.02.16L11.03 7.3l.02-.16"/>
    <path d="M34.27 10.6l-.02.16-23.23-3.35.01-.16"/>
    <path d="M34.26 10.71l-.02.16L11 7.51l.02-.15"/>
    <path d="M34.24 10.81l-.02.16-23.23-3.35.02-.16"/>
    <path d="M34.23 10.92l-.02.16-23.23-3.35.02-.16"/>
    <path d="M34.22 11.03l-.02.16-23.24-3.36.02-.16"/>
    <path d="M34.2 11.13l-.01.16-23.24-3.35.02-.16"/>
    <path d="M34.19 11.24l-.02.16-23.23-3.35.02-.16"/>
    <path d="M34.18 11.35l-.02.15-23.23-3.35.02-.15"/>
    <path d="M34.17 11.45l-.02.16-23.24-3.35.02-.16"/>
    <path d="M34.15 11.56l-.02.16L10.9 8.37l.02-.16"/>
    <path d="M34.14 11.66l-.02.16-23.23-3.35.02-.16"/>
    <path d="M34.13 11.77l-.02.16-23.23-3.35.02-.16"/>
    <path d="M34.12 11.88l-.02.16-23.24-3.35.02-.16"/>
    <path d="M34.1 11.98l-.01.16-23.24-3.35.02-.16"/>
    <path d="M34.09 12.09l-.02.16L10.84 8.9l.02-.16"/>
    <path d="M34.08 12.2l-.02.16-23.23-3.35.02-.16"/>
    <path d="M34.07 12.3l-.02.16-23.24-3.35.02-.16"/>
    <path d="M34.05 12.41l-.02.16L10.8 9.22l.02-.16"/>
    <path d="M34.04 12.52l-.02.16-23.23-3.35.02-.16"/>
    <path d="M34.03 12.62l-.02.16-23.23-3.35.01-.16"/>
    <path d="M34.02 12.73l-.02.16-23.24-3.35.02-.16"/>
    <path d="M34 12.84l-.02.16-23.23-3.35.02-.16"/>
    <path d="M33.99 12.94l-.02.16-23.23-3.35.02-.16"/>
    <path d="M33.98 13.05l-.02.16-23.23-3.35.01-.16"/>
    <path d="M33.97 13.16l-.02.16-23.24-3.35.02-.16"/>
    <path d="M33.95 13.26l-.02.16-23.23-3.35.02-.16"/>
    <path d="M33.94 13.37l-.02.16-23.23-3.35.02-.16"/>
    <path d="M33.93 13.48l-.02.16-23.23-3.35.02-.16"/>
    <path d="M33.91 13.58l-.01.16-23.24-3.35.02-.16"/>
    <path d="M33.9 13.69l-.02.16-23.23-3.35.02-.16"/>
    <path d="M33.89 13.8l-.02.16-23.23-3.35.02-.16"/>
    <path d="M33.88 13.9l-.02.16-23.23-3.35.01-.16"/>
    <path d="M33.87 14.01l-.02.16-23.24-3.35.02-.16"/>
    <path d="M33.85 14.12l-.02.16-23.23-3.35.02-.16"/>
    <path d="M33.84 14.22l-.02.16-23.23-3.35.02-.16"/>
    <path d="M33.83 14.33l-.02.16-23.24-3.35.02-.16"/>
    <path d="M33.81 14.44l-.01.16-23.24-3.35.02-.16"/>
    <path d="M33.8 14.54l-.02.16-23.23-3.35.02-.16"/>
    <path d="M33.79 14.65l-.02.16-23.23-3.35.02-.16"/>
    <path d="M33.78 14.76l-.02.16-23.23-3.35.01-.16"/>
    <path d="M33.76 14.86l-.02.16-23.23-3.35.02-.16"/>
    <path d="M33.75 14.97l-.02.16-23.23-3.35.02-.16"/>
    <path d="M33.74 15.07l-.02.16-23.23-3.34.02-.16"/>
    <path d="M33.73 15.18l-.02.16-23.24-3.35.02-.16"/>
    <path d="M33.71 15.29l-.01.16-23.24-3.35.02-.16"/>
    <path d="M33.7 15.39l-.02.16-23.23-3.34.02-.17"/>
    <path d="M33.69 15.5l-.02.16-23.23-3.35.02-.16"/>
    <path d="M33.68 15.61l-.02.16-23.24-3.35.02-.16"/>
    <path d="M33.66 15.71l-.01.17-23.24-3.35.02-.16"/>
    <path d="M33.65 15.82l-.02.16-23.23-3.35.02-.16"/>
    <path d="M33.64 15.93l-.02.16-23.23-3.35.01-.16"/>
    <path d="M33.63 16.04l-.02.16-23.24-3.35.02-.16"/>
    <path d="M33.61 16.14l-.02.16-23.23-3.35.02-.16"/>
    <path d="M33.6 16.25l-.02.16-23.23-3.35.02-.16"/>
    <path d="M33.59 16.36l-.02.16-23.23-3.36.02-.15"/>
    <path d="M33.58 16.46l-.02.16-23.24-3.35.02-.16"/>
    <path d="M33.56 16.57l-.02.16-23.23-3.35.02-.16"/>
    <path d="M33.55 16.67l-.02.16-23.23-3.35.02-.16"/>
    <path d="M33.54 16.78l-.02.16-23.23-3.35.01-.16"/>
    <path d="M33.52 16.89l-.01.16-23.24-3.35.02-.16"/>
    <path d="M33.51 16.99l-.02.16-23.23-3.35.02-.16"/>
    <path d="M33.5 17.1l-.02.16-23.23-3.35.02-.16"/>
    <path d="M33.49 17.21l-.02.16-23.23-3.35.01-.16"/>
    <path d="M33.48 17.31l-.02.16-23.24-3.35.02-.16"/>
    <path d="M33.46 17.42l-.02.16-23.23-3.35.02-.16"/>
    <path d="M33.45 17.53l-.02.16-23.23-3.35.02-.16"/>
    <path d="M33.44 17.63l-.02.16-23.23-3.35.01-.16"/>
    <path d="M33.42 17.74l-.01.16-23.24-3.35.02-.16"/>
    <path d="M33.41 17.85l-.02.16-23.23-3.35.02-.16"/>
    <path d="M33.4 17.95l-.02.16-23.23-3.35.02-.16"/>
    <path d="M33.39 18.06l-.02.16-23.24-3.35.02-.16"/>
    <path d="M33.37 18.17l-.02.16-23.23-3.35.02-.16"/>
    <path d="M33.36 18.27l-.02.16-23.23-3.35.02-.16"/>
    <path d="M33.35 18.38l-.02.16-23.23-3.35.02-.16"/>
    <path d="M33.34 18.49l-.02.16-23.23-3.35.01-.16"/>
    <path d="M33.32 18.59l-.02.16-23.23-3.35.02-.16"/>
    <path d="M33.31 18.7l-.02.16-23.23-3.35.02-.16"/>
    <path d="M33.3 18.81l-.02.16-23.23-3.35.02-.16"/>
    <path d="M33.29 18.91l-.02.16-23.24-3.35.02-.16"/>
    <path d="M33.27 19.02l-.01.16-23.24-3.35.02-.16"/>
    <path d="M33.26 19.13l-.02.16-23.23-3.35.02-.16"/>
    <path d="M33.25 19.23l-.02.16L10 16.04l.02-.16"/>
    <path d="M33.24 19.34l-.02.16-23.24-3.35.02-.16"/>
    <path d="M33.22 19.45l-.02.16-23.23-3.35.02-.16"/>
    <path d="M33.21 19.55l-.02.16-23.23-3.35.02-.16"/>
    <path d="M33.2 19.66l-.02.16-23.23-3.35.01-.16"/>
    <path d="M33.19 19.77l-.02.16-23.24-3.35.02-.16"/>
    <path d="M33.17 19.87l-.02.16-23.23-3.35.02-.16"/>
    <path d="M33.16 19.98l-.02.16-23.23-3.35.02-.16"/>
    <path d="M33.15 20.09l-.02.16L9.9 16.9l.01-.16"/>
    <path d="M33.13 20.19l-.01.16L9.88 17l.02-.16"/>
    <path d="M33.12 20.3l-.02.16-23.23-3.35.02-.16"/>
    <path d="M33.11 20.41l-.02.16-23.23-3.36.02-.16"/>
    <path d="M33.1 20.51l-.02.16-23.23-3.35.02-.16"/>
    <path d="M33.09 20.62l-.02.16-23.24-3.35.02-.16"/>
    <path d="M33.07 20.73l-.02.16-23.23-3.35.02-.16"/>
    <path d="M33.06 20.83l-.02.16-23.23-3.35.02-.16"/>
    <path d="M33.05 20.94l-.02.16-23.24-3.35.02-.16"/>
    <path d="M33.03 21.05l-.01.15-23.24-3.34.02-.16"/>
    <path d="M33.02 21.15l-.02.16-23.23-3.35.02-.16"/>
    <path d="M33.01 21.26l-.02.16-23.23-3.35.02-.16"/>
    <path d="M33 21.36l-.02.16-23.24-3.34.02-.16"/>
    <path d="M32.98 21.47l-.01.16-23.24-3.35.02-.16"/>
    <path d="M32.97 21.58l-.02.16-23.23-3.35.02-.16"/>
    <path d="M32.96 21.68l-.02.16-23.23-3.35.02-.15"/>
    <path d="M32.95 21.79l-.02.16L9.7 18.6l.01-.16"/>
    <path d="M32.93 21.9l-.02.16-23.23-3.35.02-.16"/>
    <path d="M32.92 22l-.02.16-23.23-3.35.02-.16"/>
    <path d="M32.91 22.11l-.02.16-23.23-3.35.02-.16"/>
    <path d="M32.9 22.22l-.02.16-23.24-3.35.02-.16"/>
    <path d="M32.88 22.32l-.01.16-23.24-3.35.02-.16"/>
    <path d="M32.87 22.43l-.02.16-23.23-3.35.02-.16"/>
    <path d="M32.86 22.54l-.02.16-23.23-3.35.02-.16"/>
    <path d="M32.85 22.64l-.02.16-23.24-3.35.02-.16"/>
    <path d="M32.83 22.75l-.02.16-23.23-3.35.02-.16"/>
    <path d="M32.82 22.86l-.02.16-23.23-3.35.02-.16"/>
    <path d="M32.81 22.96l-.02.16-23.23-3.35.01-.16"/>
    <path d="M32.8 23.07l-.02.16-23.24-3.35.02-.16"/>
    <path d="M32.78 23.18l-.02.16-23.23-3.35.02-.16"/>
    <path d="M32.77 23.28l-.02.16-23.23-3.35.02-.16"/>
    <path d="M32.76 23.39l-.02.16L9.51 20.2l.02-.16"/>
    <path d="M32.74 23.5l-.01.16-23.24-3.35.02-.16"/>
    <path d="M32.73 23.6l-.02.16-23.23-3.35.02-.16"/>
    <path d="M32.72 23.71l-.02.16-23.23-3.35.02-.16"/>
    <path d="M32.71 23.82l-.02.16-23.23-3.35.01-.16"/>
    <path d="M32.7 23.92l-.02.16-23.24-3.35.02-.16"/>
    <path d="M32.68 24.03l-.02.16-23.23-3.35.02-.16"/>
    <path d="M32.67 24.14l-.02.16-23.23-3.35.02-.16"/>
    <path d="M32.66 24.24l-.02.16-23.23-3.35.01-.16"/>
    <path d="M32.65 24.35l-.02.16-23.24-3.35.02-.16"/>
    <path d="M32.63 24.46l-.02.16-23.23-3.35.02-.16"/>
    <path d="M32.62 24.56l-.02.16-23.23-3.35.02-.16"/>
    <path d="M32.61 24.67l-.02.16-23.23-3.35.01-.16"/>
    <path d="M32.59 24.78l-.01.16-23.24-3.35.02-.16"/>
    <path d="M32.58 24.88l-.02.16-23.23-3.35.02-.16"/>
    <path d="M32.57 24.99l-.02.16L9.32 21.8l.02-.16"/>
    <path d="M32.56 25.1l-.02.15L9.3 21.91l.02-.16"/>
    <path d="M32.54 25.2l-.02.16-23.23-3.35.02-.16"/>
    <path d="M32.53 25.31l-.02.16-23.23-3.35.02-.16"/>
    <path d="M32.52 25.41l-.02.16-23.23-3.34.02-.16"/>
    <path d="M32.51 25.52l-.02.16-23.23-3.35.01-.16"/>
    <path d="M32.49 25.63l-.01.16-23.24-3.35.02-.16"/>
    <path d="M32.48 25.73l-.02.16-23.23-3.34.02-.16"/>
    <path d="M32.47 25.84l-.02.16-23.23-3.35.02-.16"/>
    <path d="M32.46 25.95l-.02.16L9.2 22.76l.02-.16"/>
    <path d="M32.44 26.05l-.02.16-23.23-3.35.02-.16"/>
    <path d="M32.43 26.16l-.02.16-23.23-3.35.02-.16"/>
    <path d="M32.42 26.27l-.02.16-23.23-3.35.02-.16"/>
    <path d="M32.41 26.38l-.02.16-23.24-3.36.02-.16"/>
    <path d="M32.39 26.48l-.02.16-23.23-3.35.02-.16"/>
    <path d="M32.38 26.59l-.02.16L9.13 23.4l.02-.16"/>
    <path d="M32.37 26.69l-.02.16L9.12 23.5l.01-.16"/>
    <path d="M32.36 26.8l-.02.16L9.1 23.61l.02-.16"/>
    <path d="M32.34 26.91l-.02.16-23.23-3.35.02-.16"/>
    <path d="M32.33 27.01l-.02.16-23.23-3.35.02-.16"/>
    <path d="M32.32 27.12l-.02.16-23.23-3.35.02-.16"/>
    <path d="M32.3 27.23l-.01.16-23.24-3.35.02-.16"/>
    <path d="M32.29 27.33l-.02.16-23.23-3.35.02-.16"/>
    <path d="M32.28 27.44l-.02.16-23.23-3.35.02-.16"/>
    <path d="M32.27 27.55l-.02.16-23.23-3.35.02-.16"/>
    <path d="M32.26 27.65l-.02.16L9 24.46l.02-.16"/>
    <path d="M32.24 27.76l-.02.16-23.23-3.35.02-.16"/>
    <path d="M32.23 27.87l-.02.16-23.23-3.35.02-.16"/>
    <path d="M32.22 27.97l-.02.16-23.24-3.35.02-.16"/>
    <path d="M32.2 28.08l-.01.16-23.24-3.35.02-.16"/>
    <path d="M32.19 28.19v.04L8.95 24.88l.01-.04"/>
  </g>
  <path fill="#9e0000" d="M39.43 32.53v-1a1.37 1.37 0 1 0 .1-2.73 1.32 1.32 0 0 0-1 .38l-.13.12H0v-1h38a2.5 2.5 0 0 1 1.56-.53 2.36 2.36 0 0 1 2.33 2.43 2.43 2.43 0 0 1-2.46 2.33zm-21.2 4A5.37 5.37 0 0 0 13 31.68H3.79v-.86H13a6.14 6.14 0 0 1 6.08 5.71h-.85z"/>
  <path fill="#9e0000" d="M16.33 36.53a3.87 3.87 0 0 0-3.71-3H2.41v-.82h10.21a4.68 4.68 0 0 1 4.59 3.82z"/>
  <path fill="#9e0000" d="M14.37 36.53a2.34 2.34 0 0 0-2.07-1.06H1v-.86h11.29a3.37 3.37 0 0 1 3 1.91h-.92zm6.86 0a5.37 5.37 0 0 1 5.27-4.82h9.15v-.89H26.5a6.14 6.14 0 0 0-6.13 5.71h.85z"/>
  <path fill="#9e0000" d="M23.13 36.53a3.87 3.87 0 0 1 3.71-3H37v-.82H26.84a4.68 4.68 0 0 0-4.59 3.82h.88z"/>
  <path fill="#9e0000" d="M25.09 36.53a2.34 2.34 0 0 1 2.07-1.06H38.4v-.86H27.17a3.37 3.37 0 0 0-3 1.91h.95z"/>
</svg>
